<svg xmlns="http://www.w3.org/2000/svg" viewBox="0 0 263 218" fill="none"><g clip-path="url(#a)"><path fill="#ECECEC" d="m11.347 80.606-1.19.69c-.12.07-.33.06-.47-.02l-1.12-.65c-.14-.08-.16-.2-.03-.27l1.19-.69c.12-.07.33-.06.47.02l1.12.65c.14.08.16.2.03.27Zm2.76 1.601-1.19.69c-.12.07-.33.06-.47-.02l-1.12-.65c-.14-.08-.16-.2-.03-.27l1.19-.69c.12-.07.33-.06.47.02l1.12.65c.14.08.16.2.03.27Zm-2.91 1.679-1.19.69c-.12.07-.33.06-.47-.02l-1.12-.65c-.14-.08-.16-.2-.03-.27l1.19-.69c.12-.07.33-.06.47.02l1.12.65c.14.08.16.2.03.27Zm5.67-.09-1.19.69c-.12.07-.33.06-.47-.02l-1.12-.65c-.14-.08-.16-.2-.03-.27l1.19-.69c.12-.07.33-.06.47.02l1.12.65c.14.08.16.2.03.27Zm-2.91 1.681-1.19.69c-.12.07-.33.06-.47-.02l-1.12-.65c-.14-.08-.16-.2-.03-.27l1.19-.69c.12-.07.33-.06.47.02l1.12.65c.14.08.16.2.03.27Zm5.83.01-1.19.68c-.12.07-.33.06-.47-.02l-1.12-.65c-.14-.08-.16-.2-.03-.27l1.19-.68c.12-.07.33-.06.47.02l1.12.65c.14.08.16.2.03.27Zm-2.91 1.679-1.19.69c-.12.07-.33.06-.47-.02l-1.12-.65c-.14-.08-.16-.2-.03-.27l1.19-.69c.12-.07.33-.06.47.02l1.12.65c.14.08.16.2.03.27Zm5.67-.09-1.19.69c-.12.07-.33.06-.47-.02l-1.12-.65c-.14-.08-.16-.2-.03-.27l1.19-.69c.12-.07.33-.06.47.02l1.12.65c.14.08.16.2.03.27Zm-2.91 1.681-1.19.69c-.12.07-.33.06-.47-.02l-1.12-.65c-.14-.08-.16-.2-.03-.27l1.19-.69c.12-.07.33-.06.47.02l1.12.65c.14.08.16.2.03.27Zm5.67-.091-1.19.69c-.12.07-.33.06-.47-.02l-1.12-.65c-.14-.08-.16-.2-.03-.27l1.19-.69c.12-.07.33-.06.47.02l1.12.65c.14.08.16.2.03.27Zm-2.91 1.681-1.19.69c-.12.07-.33.06-.47-.02l-1.12-.65c-.14-.08-.16-.2-.03-.27l1.19-.69c.12-.07.33-.06.47.02l1.12.65c.14.08.16.2.03.27Zm-19.5-14.7-1.19.68c-.12.07-.33.06-.47-.02l-1.12-.65c-.14-.08-.16-.2-.03-.27l1.19-.68c.12-.07.33-.06.47.02l1.12.65c.14.08.16.2.03.27Zm2.93 1.69-1.19.69c-.12.07-.33.06-.47-.02l-1.12-.65c-.14-.08-.16-.2-.03-.27l1.19-.69c.12-.07.33-.06.47.02l1.12.65c.14.08.16.2.03.27Zm-2.91 1.679-1.19.69c-.12.07-.33.06-.47-.02l-1.12-.65c-.14-.08-.16-.2-.03-.27l1.19-.69c.12-.07.33-.06.47.02l1.12.65c.14.08.16.2.03.27Zm5.67-.089-1.19.69c-.12.07-.33.06-.47-.02l-1.12-.65c-.14-.08-.16-.2-.03-.27l1.19-.69c.12-.07.33-.06.47.02l1.12.65c.14.08.16.2.03.27Zm-2.91 1.679-1.19.69c-.12.07-.33.06-.47-.02l-1.12-.65c-.14-.08-.16-.2-.03-.27l1.19-.69c.12-.07.33-.06.47.02l1.12.65c.14.08.16.2.03.27Zm2.76 1.601-1.19.69c-.12.07-.33.06-.47-.02l-1.12-.65c-.14-.08-.16-.2-.03-.27l1.19-.69c.12-.07.33-.06.47.02l1.12.65c.14.08.16.2.03.27Zm19.79 8.149-1.19.69c-.12.07-.33.06-.47-.02l-1.12-.65c-.14-.08-.16-.2-.03-.27l1.19-.68c.12-.07.33-.06.47.02l1.12.65c.14.08.16.2.03.27v-.01Zm-2.9 1.681-1.19.68c-.12.07-.33.06-.47-.02l-1.12-.65c-.14-.08-.16-.2-.03-.27l1.19-.68c.12-.07.33-.06.47.02l1.12.65c.14.08.16.2.03.27Zm5.81-3.36-1.19.68c-.12.07-.33.06-.47-.02l-1.12-.65c-.14-.08-.16-.2-.03-.27l1.19-.68c.12-.07.33-.06.47.02l1.12.65c.14.08.16.2.03.27Zm2.91-1.681-1.19.68c-.12.07-.33.06-.47-.02l-1.12-.65c-.14-.08-.16-.2-.03-.27l1.19-.68c.12-.07.33-.06.47.02l1.12.65c.14.08.16.2.03.27Zm2.91-1.679-1.19.69c-.12.07-.33.06-.47-.02l-1.12-.65c-.14-.08-.16-.2-.03-.27l1.19-.69c.12-.07.33-.06.47.02l1.12.65c.14.08.16.2.03.27Zm2.91-1.681-1.19.69c-.12.07-.33.06-.47-.02l-1.12-.65c-.14-.08-.16-.2-.03-.27l1.19-.69c.12-.07.33-.06.47.02l1.12.65c.14.08.16.2.03.27Zm2.91-1.679-1.19.69c-.12.07-.33.06-.47-.02l-1.12-.65c-.14-.08-.16-.2-.03-.27l1.19-.69c.12-.07.33-.06.47.02l1.12.65c.14.08.16.2.03.27Zm2.91-1.67-1.19.69c-.12.07-.33.06-.47-.02l-1.12-.65c-.14-.08-.16-.2-.03-.27l1.19-.69c.12-.07.33-.06.47.02l1.12.65c.14.08.16.2.03.27Zm2.91-1.681-1.19.69c-.12.07-.33.06-.47-.02l-1.12-.65c-.14-.08-.16-.2-.03-.27l1.19-.69c.12-.07.33-.06.47.02l1.12.65c.14.08.16.2.03.27Zm2.9-1.679-1.19.69c-.12.07-.33.06-.47-.02l-1.12-.65c-.14-.08-.16-.2-.03-.27l1.19-.69c.12-.07.33-.06.47.02l1.12.65c.14.08.16.2.03.27Zm2.91-1.681-1.19.68c-.12.07-.33.06-.47-.02l-1.12-.65c-.14-.08-.16-.2-.03-.27l1.19-.68c.12-.07.33-.06.47.02l1.12.65c.14.08.16.2.03.27Zm-23.42 16.711-1.19.68c-.12.07-.33.06-.47-.02l-1.12-.65c-.14-.08-.16-.2-.03-.27l1.19-.68c.12-.07.33-.06.47.02l1.12.65c.14.08.16.2.03.27Zm2.91-1.681-1.19.68c-.12.07-.33.06-.47-.02l-1.12-.65c-.14-.08-.16-.2-.03-.27l1.19-.69c.12-.07.33-.06.47.02l1.12.65c.14.08.16.2.03.27v.01Zm2.91-1.679-1.19.69c-.12.07-.33.06-.47-.02l-1.12-.65c-.14-.08-.16-.2-.03-.27l1.19-.69c.12-.07.33-.06.47.02l1.12.65c.14.08.16.2.03.27Zm2.91-1.681-1.19.69c-.12.07-.33.06-.47-.02l-1.12-.65c-.14-.08-.16-.2-.03-.27l1.19-.69c.12-.07.33-.06.47.02l1.12.65c.14.08.16.2.03.27Zm2.91-1.679-1.19.69c-.12.07-.33.06-.47-.02l-1.12-.65c-.14-.08-.16-.2-.03-.27l1.19-.69c.12-.07.33-.06.47.02l1.12.65c.14.08.16.2.03.27Zm2.91-1.681-1.19.69c-.12.07-.33.06-.47-.02l-1.12-.65c-.14-.08-.16-.2-.03-.27l1.19-.69c.12-.07.33-.06.47.02l1.12.65c.14.08.16.2.03.27Zm2.91-1.68-1.19.69c-.12.07-.33.06-.47-.02l-1.12-.65c-.14-.08-.16-.2-.03-.27l1.19-.69c.12-.07.33-.06.47.02l1.12.65c.14.08.16.2.03.27Zm2.91-1.679-1.19.69c-.12.07-.33.06-.47-.02l-1.12-.65c-.14-.08-.16-.2-.03-.27l1.19-.69c.12-.07.33-.06.47.02l1.12.65c.14.08.16.2.03.27Zm2.9-1.681-1.19.69c-.12.07-.33.06-.47-.02l-1.12-.65c-.14-.08-.16-.2-.03-.27l1.19-.69c.12-.07.33-.06.47.02l1.12.65c.14.08.16.2.03.27Zm-3.56-8.69h-1.39s-.04 0-.06-.02l-20.86-12.04c-1.25-.72-3.14-.8-4.22-.17l-20.99 12.12s-.03.01-.05.01l-1.56.08c-.06 0-.11.05-.11.11v1.35h.01c-.04.51.3 1.04 1.02 1.45l21.38 12.34c1.25.72 3.14.8 4.22.17l21.98-12.69c.46-.26.68-.61.71-.98v-1.05l-.09-.7.01.02Z"/><path fill="#000" d="M26.257 86.277c-.93 0-1.91-.23-2.69-.68l-21.38-12.34c-.75-.43-1.21-1.02-1.31-1.64h-.02l-.01-1.69c0-.39.3-.71.69-.73l1.44-.07 20.89-12.06c1.27-.73 3.39-.66 4.84.17l20.74 11.97h1.79l.19 1.32v1.05c-.06.64-.43 1.15-1.03 1.5l-21.98 12.69c-.58.34-1.35.5-2.15.5l-.01.01Zm-24.17-15.33.02.02v.36c-.03.27.24.6.7.87l21.38 12.34c1.06.61 2.71.69 3.6.17l21.98-12.69c.18-.1.39-.27.41-.49v-1.08h-1.02l-.2-.09-20.87-12.05c-1.06-.61-2.7-.69-3.6-.17l-21.12 12.19-.2.02-1.08.06v.54Z"/><path fill="#fff" d="m50.077 70.957-21.98 12.69c-1.08.62-2.97.55-4.22-.17l-21.38-12.34c-1.25-.72-1.38-1.81-.3-2.44l21.98-12.69c1.08-.62 2.97-.55 4.22.17l21.38 12.34c1.25.72 1.38 1.81.3 2.44Z"/><path fill="#000" d="M26.257 84.686c-.94 0-1.91-.23-2.69-.68l-21.38-12.34c-.85-.49-1.34-1.19-1.34-1.91 0-.64.37-1.21 1.04-1.59l21.99-12.69c1.27-.73 3.39-.66 4.84.18l21.38 12.34c.85.49 1.34 1.19 1.34 1.91 0 .64-.37 1.21-1.04 1.59l-21.98 12.69c-.58.34-1.35.5-2.15.5h-.01Zm-.25-28.49c-.58 0-1.12.11-1.52.34l-21.99 12.69c-.16.09-.42.28-.42.52 0 .21.19.53.72.84l21.38 12.34c1.06.61 2.71.69 3.6.17l21.98-12.69c.16-.09.42-.28.42-.52 0-.21-.19-.53-.72-.84l-21.38-12.34c-.59-.34-1.36-.52-2.08-.52l.01.01Z"/><path fill="#F15B25" d="M26.607 84.227h-.95v1.42h.95v-1.42ZM3.837 71.826h-.95v1.42h.95v-1.42Zm3.03 1.621h-.95v1.42h.95v-1.42Zm42.56-1.761h-.95v1.42h.95v-1.42Zm-8.04-5.55-.07-.27-9.26-34.85h-11.82l-9.33 35.12-.03.13c-.87 2.9.59 5.86 4.32 8.1 6.05 3.63 15.86 3.63 21.9 0 3.73-2.24 5.15-5.33 4.28-8.23h.01Z"/><path fill="#000" d="M26.147 77.697c-4.08 0-8.16-.93-11.27-2.8-3.89-2.34-5.57-5.55-4.59-8.8l.02-.09 9.46-35.6h12.77l9.45 35.58c.98 3.29-.73 6.62-4.56 8.92-3.11 1.87-7.19 2.8-11.27 2.8l-.01-.01Zm-5.43-46.06-9.24 34.77c-.81 2.71.66 5.4 4.03 7.43 5.86 3.52 15.41 3.52 21.27 0 3.32-2 4.82-4.81 4.01-7.52l-.07-.31-9.13-34.37h-10.87Z"/><path fill="#fff" d="M30.327 28.507c2.31 1.39 2.31 3.63 0 5.02-2.31 1.39-6.05 1.39-8.35 0-2.31-1.39-2.31-3.63 0-5.02 2.31-1.39 6.05-1.39 8.35 0Z"/><path fill="#000" d="M26.147 35.187c-1.62 0-3.23-.38-4.5-1.13-1.31-.79-2.03-1.86-2.03-3.04s.72-2.25 2.03-3.04c2.52-1.51 6.47-1.51 8.99 0 1.31.79 2.03 1.86 2.03 3.04s-.72 2.25-2.03 3.04c-1.26.76-2.88 1.13-4.5 1.13h.01Zm0-7.11c-1.4 0-2.79.32-3.86.96-.92.55-1.43 1.26-1.43 1.98s.51 1.42 1.43 1.98c2.12 1.28 5.59 1.28 7.72 0 .92-.55 1.43-1.26 1.43-1.98s-.51-1.42-1.43-1.98c-1.06-.64-2.46-.96-3.86-.96Z"/><path fill="#F15B25" d="M28.777 29.716c-1.46-.68-3.82-.68-5.28 0-1.46.68-1.46 1.78 0 2.46 1.46.68 3.82.68 5.28 0 1.46-.68 1.46-1.78 0-2.46Z"/><path fill="#000" d="M26.137 33.317c-1.04 0-2.09-.19-2.9-.57-1.26-.59-1.45-1.38-1.45-1.79 0-.41.19-1.2 1.45-1.79 1.63-.76 4.18-.76 5.8 0 1.26.59 1.45 1.38 1.45 1.79 0 .41-.19 1.2-1.45 1.79-.81.38-1.86.57-2.9.57Zm0-3.48c-.87 0-1.73.15-2.38.45-.51.24-.74.51-.74.67 0 .16.23.43.74.67 1.29.6 3.47.6 4.76 0 .51-.24.74-.51.74-.67 0-.16-.23-.43-.74-.67-.65-.3-1.51-.45-2.38-.45Z"/><path fill="#fff" d="m36.287 46.937-1.97-7.4c.32 1.47-.45 3.02-2.33 4.15-3.22 1.93-8.43 1.93-11.65 0-1.89-1.13-2.66-2.68-2.33-4.15l-1.38 5.24-.64 2.45c-.55 1.92.4 3.97 2.88 5.46 4.05 2.43 10.61 2.43 14.66 0 2.6-1.56 3.48-3.7 2.78-5.74l-.02-.01Z"/><path fill="#000" d="M26.177 55.107c-2.77 0-5.54-.63-7.65-1.9-2.63-1.58-3.8-3.88-3.15-6.16l2.14-8.13h1.24l-.16.75c-.28 1.27.47 2.54 2.05 3.49 3.04 1.82 7.98 1.82 11.01 0 1.58-.95 2.33-2.22 2.05-3.49l-.17-.75h1.24l.13.46 1.97 7.38c.81 2.4-.33 4.81-3.06 6.45-2.11 1.27-4.88 1.9-7.65 1.9h.01Zm-8.26-12.87-1.35 5.14c-.5 1.75.45 3.48 2.6 4.77 3.87 2.32 10.16 2.32 14.02 0 2.23-1.34 3.15-3.17 2.52-5.01v-.04l-1.31-4.86c-.46.75-1.17 1.43-2.1 1.99-3.39 2.03-8.9 2.03-12.28 0-.93-.56-1.64-1.23-2.09-1.98l-.01-.01Z"/><path fill="#fff" d="M40.407 62.487h.01l-.11-.39s0-.04-.02-.06l-1.83-6.76c.43 2.19-.74 4.47-3.54 6.15-4.85 2.91-12.72 2.91-17.57 0-2.8-1.68-3.97-3.96-3.54-6.15l-1.89 7.21h.02c-.61 2.6.73 5.33 4.06 7.33 5.62 3.38 14.74 3.38 20.37 0 3.33-2 4.67-4.73 4.06-7.33h-.02Z"/><path fill="#000" d="M26.167 72.957c-3.8 0-7.61-.87-10.5-2.61-3.12-1.87-4.75-4.53-4.47-7.24h-.07l.19-.77 2.01-7.67h1.23l-.14.74c-.4 2.02.79 4.02 3.26 5.5 4.67 2.8 12.26 2.8 16.93 0 2.47-1.48 3.65-3.49 3.25-5.5l-.14-.74h1.22l.13.46 2.16 7.99h-.09c.28 2.7-1.35 5.36-4.47 7.24-2.9 1.74-6.7 2.61-10.5 2.61v-.01Zm-13.57-10.65-.07.32c-.57 2.44.8 4.87 3.78 6.66 5.44 3.27 14.29 3.26 19.73 0 2.97-1.79 4.35-4.21 3.78-6.66l-.09-.37-1.04-3.86c-.61 1.34-1.78 2.56-3.44 3.56-5.02 3.01-13.19 3.01-18.21 0-1.64-.99-2.81-2.2-3.42-3.53l-1.01 3.87-.01.01Z"/><path fill="#fff" d="m21.398 36.842-6.195 28.177 1.211.266 6.195-28.177-1.211-.266Z"/><path fill="#F15B25" d="m19.642 44.877-.57 2.599 1.212.265.57-2.598-1.212-.266ZM15.84 62.152l-.63 2.871 1.211.266.63-2.872-1.211-.265Z"/><path fill="#000" d="M23.577 29.737c-1.38.64-1.38 1.68 0 2.33.31.14.66.25 1.03.33l.37-3.05c-.51.08-1 .2-1.41.39h.01Z"/><path fill="#ECECEC" d="m25.147 33.127-.66-.14c-.45-.09-.84-.22-1.17-.37-1.21-.56-1.39-1.32-1.39-1.72 0-.4.18-1.16 1.39-1.72.44-.2.97-.35 1.57-.45l.8-.12-.55 4.53.01-.01Zm-1.31-2.84c-.53.25-.68.5-.68.6 0 .1.14.35.68.6.08.04.16.07.25.1l.18-1.47c-.15.05-.3.1-.43.16v.01Zm7.519 6.56-1.2.27 2.247 10.03 1.2-.268-2.247-10.032Zm144.751 89.84-1.19.69c-.12.07-.33.06-.47-.02l-1.12-.65c-.14-.08-.16-.2-.03-.27l1.19-.69c.12-.07.33-.06.47.02l1.12.65c.14.08.16.2.03.27Zm2.76 1.59-1.19.68c-.12.07-.33.06-.47-.02l-1.12-.65c-.14-.08-.16-.2-.03-.27l1.19-.68c.12-.07.33-.06.47.02l1.12.65c.14.08.16.2.03.27Zm-2.91 1.68-1.19.69c-.12.07-.33.06-.47-.02l-1.12-.65c-.14-.08-.16-.2-.03-.27l1.19-.68c.12-.07.33-.06.47.02l1.12.65c.14.08.16.2.03.27v-.01Zm5.67-.08-1.19.69c-.12.07-.33.06-.47-.02l-1.12-.65c-.14-.08-.16-.2-.03-.27l1.19-.68c.12-.07.33-.06.47.02l1.12.65c.14.08.16.2.03.27v-.01Zm-2.91 1.67-1.19.69c-.12.07-.33.06-.47-.02l-1.12-.65c-.14-.08-.16-.2-.03-.27l1.19-.69c.12-.07.33-.06.47.02l1.12.649c.14.08.16.201.03.271Zm5.83.009-1.19.681c-.12.07-.33.06-.47-.02l-1.12-.65c-.14-.08-.16-.2-.03-.27l1.19-.69c.12-.07.33-.06.47.02l1.12.649c.14.08.16.201.03.271v.009Zm-2.91 1.681-1.19.679c-.12.07-.33.06-.47-.02l-1.12-.649c-.14-.08-.16-.201-.03-.271l1.19-.679c.12-.07.33-.06.47.02l1.12.65c.14.08.16.2.03.27Zm5.67-.081-1.19.68c-.12.07-.33.06-.47-.02l-1.12-.65c-.14-.08-.16-.2-.03-.27l1.19-.68c.12-.07.33-.06.47.02l1.12.65c.14.08.16.2.03.27Zm-2.91 1.681-1.19.68c-.12.07-.33.06-.47-.02l-1.12-.65c-.14-.08-.16-.2-.03-.27l1.19-.68c.12-.07.33-.06.47.02l1.12.65c.14.08.16.2.03.27Zm5.67-.09-1.19.69c-.12.07-.33.06-.47-.02l-1.12-.65c-.14-.08-.16-.2-.03-.27l1.19-.69c.12-.07.33-.06.47.02l1.12.65c.14.08.16.2.03.27Zm-2.9 1.68-1.19.69c-.12.07-.33.06-.47-.02l-1.12-.65c-.14-.08-.16-.2-.03-.27l1.19-.69c.12-.07.33-.06.47.02l1.12.65c.14.08.16.2.03.27Zm-19.5-14.7-1.19.68c-.12.07-.33.059-.47-.021l-1.12-.65c-.14-.08-.16-.2-.03-.27l1.19-.68c.12-.07.33-.06.47.02l1.12.65c.14.08.16.201.03.271Zm2.92 1.679-1.19.69c-.12.07-.33.06-.47-.02l-1.12-.65c-.14-.08-.16-.2-.03-.27l1.19-.69c.12-.07.33-.06.47.02l1.12.65c.14.08.16.2.03.27Zm-2.91 1.681-1.19.69c-.12.07-.33.06-.47-.02l-1.12-.65c-.14-.08-.16-.2-.03-.27l1.19-.69c.12-.07.33-.06.47.02l1.12.65c.14.08.16.2.03.27Zm5.67-.08-1.19.69c-.12.07-.33.06-.47-.02l-1.12-.65c-.14-.08-.16-.2-.03-.27l1.19-.69c.12-.07.33-.06.47.02l1.12.65c.14.08.16.2.03.27Zm-2.91 1.68-1.19.69c-.12.07-.33.06-.47-.02l-1.12-.65c-.14-.08-.16-.2-.03-.27l1.19-.69c.12-.07.33-.06.47.02l1.12.65c.14.08.16.2.03.27Zm2.76 1.59-1.19.68c-.12.07-.33.06-.47-.02l-1.12-.65c-.14-.08-.16-.2-.03-.27l1.19-.68c.12-.07.33-.06.47.02l1.12.65c.14.08.16.2.03.27Zm19.8 8.16-1.19.68c-.12.07-.33.06-.47-.02l-1.12-.65c-.14-.08-.16-.2-.03-.27l1.19-.68c.12-.07.33-.06.47.02l1.12.65c.14.08.16.2.03.27Zm-2.91 1.68-1.19.68c-.12.07-.33.06-.47-.02l-1.12-.65c-.14-.08-.16-.2-.03-.27l1.19-.68c.12-.07.33-.06.47.02l1.12.65c.14.08.16.2.03.27Zm5.81-3.36-1.19.69c-.12.07-.33.06-.47-.02l-1.12-.65c-.14-.08-.16-.2-.03-.27l1.19-.68c.12-.07.33-.06.47.02l1.12.65c.14.08.16.2.03.27v-.01Zm2.91-1.68-1.19.69c-.12.07-.33.06-.47-.02l-1.12-.65c-.14-.08-.16-.2-.03-.27l1.19-.69c.12-.07.33-.06.47.02l1.12.65c.14.08.16.2.03.27Zm2.91-1.68-1.19.68c-.12.07-.33.06-.47-.02l-1.12-.65c-.14-.08-.16-.2-.03-.27l1.19-.68c.12-.07.33-.06.47.02l1.12.65c.14.08.16.2.03.27Zm2.91-1.68-1.19.68c-.12.07-.33.06-.47-.02l-1.12-.65c-.14-.08-.16-.2-.03-.27l1.19-.68c.12-.07.33-.06.47.02l1.12.65c.14.08.16.2.03.27Zm2.91-1.681-1.19.69c-.12.07-.33.061-.47-.019l-1.12-.651c-.14-.08-.16-.2-.03-.27l1.19-.69c.12-.07.33-.06.47.02l1.12.65c.14.08.16.2.03.27Zm2.91-1.679-1.19.69c-.12.07-.33.059-.47-.021l-1.12-.65c-.14-.08-.16-.199-.03-.269l1.19-.691c.12-.07.33-.059.47.021l1.12.649c.14.08.16.201.03.271Zm2.91-1.68-1.19.69c-.12.07-.33.06-.47-.02l-1.12-.65c-.14-.08-.16-.2-.03-.27l1.19-.69c.12-.07.33-.06.47.02l1.12.65c.14.08.16.2.03.27Zm2.91-1.68-1.19.69c-.12.07-.33.06-.47-.02l-1.12-.65c-.14-.08-.16-.2-.03-.27l1.19-.69c.12-.07.33-.06.47.02l1.12.65c.14.08.16.2.03.27Zm2.9-1.68-1.19.69c-.12.07-.33.06-.47-.02l-1.12-.65c-.14-.08-.16-.2-.03-.27l1.19-.69c.12-.07.33-.06.47.02l1.12.65c.14.08.16.2.03.27Zm-23.41 16.709-1.19.69c-.12.07-.33.06-.47-.02l-1.12-.65c-.14-.08-.16-.2-.03-.27l1.19-.69c.12-.07.33-.06.47.02l1.12.65c.14.08.16.2.03.27Zm2.91-1.679-1.19.68c-.12.07-.33.06-.47-.02l-1.12-.65c-.14-.08-.16-.2-.03-.27l1.19-.68c.12-.07.33-.06.47.02l1.12.65c.14.08.16.2.03.27Zm2.9-1.681-1.19.691c-.12.07-.33.059-.47-.021l-1.12-.649c-.14-.08-.16-.201-.03-.271l1.19-.69c.12-.07.33-.059.47.021l1.12.649c.14.08.16.2.03.27Zm2.91-1.679-1.19.689c-.12.07-.33.061-.47-.019l-1.12-.651c-.14-.08-.16-.199-.03-.269l1.19-.69c.12-.07.33-.06.47.02l1.12.65c.14.08.16.2.03.27Zm2.91-1.68-1.19.68c-.12.07-.33.06-.47-.02l-1.12-.65c-.14-.08-.16-.2-.03-.27l1.19-.68c.12-.07.33-.06.47.02l1.12.65c.14.08.16.2.03.27Zm2.91-1.68-1.19.69c-.12.07-.33.06-.47-.02l-1.12-.65c-.14-.08-.16-.2-.03-.27l1.19-.69c.12-.07.33-.06.47.02l1.12.65c.14.08.16.2.03.27Zm2.91-1.68-1.19.69c-.12.07-.33.06-.47-.02l-1.12-.65c-.14-.08-.16-.2-.03-.27l1.19-.69c.12-.07.33-.06.47.02l1.12.65c.14.08.16.2.03.27Zm2.91-1.68-1.19.69c-.12.07-.33.06-.47-.02l-1.12-.65c-.14-.08-.16-.2-.03-.27l1.19-.69c.12-.07.33-.06.47.02l1.12.65c.14.08.16.2.03.27Zm2.91-1.67-1.19.69c-.12.07-.33.06-.47-.02l-1.12-.65c-.14-.08-.16-.2-.03-.27l1.19-.69c.12-.07.33-.06.47.02l1.12.65c.14.08.16.2.03.27Zm-2.05-8.79h-1.39s-.04 0-.06-.02l-20.86-12.04c-1.25-.72-3.14-.8-4.22-.17l-20.99 12.12s-.03.01-.05.01l-1.56.08c-.06 0-.11.05-.11.11v1.35h.01c-.04.51.3 1.04 1.02 1.45l21.38 12.34c1.25.72 3.14.8 4.22.17l21.98-12.69c.46-.26.68-.61.71-.98v-1.05l-.09-.7.01.02Z"/><path fill="#000" d="M192.537 132.267c-.93 0-1.91-.23-2.69-.68l-21.38-12.34c-.75-.43-1.21-1.02-1.31-1.65h-.02l-.01-1.68c0-.39.3-.71.69-.73l1.44-.07 20.89-12.06c1.27-.73 3.4-.66 4.84.17l20.74 11.97h1.79l.19 1.32v1.05c-.06.64-.43 1.15-1.03 1.5l-21.99 12.69c-.58.34-1.35.5-2.15.5v.01Zm-24.17-15.32.02.02v.35c-.03.27.24.6.7.87l21.38 12.34c1.06.61 2.71.69 3.6.18l21.98-12.69c.18-.1.39-.27.41-.49v-1.07h-1.02l-.2-.09-20.87-12.05c-1.06-.61-2.71-.69-3.6-.17l-21.12 12.19-.2.02-1.08.06v.55-.02Z"/><path fill="#fff" d="m216.357 116.937-21.98 12.69c-1.08.62-2.97.55-4.22-.17l-21.38-12.34c-1.25-.72-1.38-1.81-.3-2.44l21.98-12.69c1.08-.62 2.97-.55 4.22.17l21.38 12.34c1.25.72 1.38 1.81.3 2.44Z"/><path fill="#000" d="M192.537 130.677c-.93 0-1.91-.23-2.69-.68l-21.38-12.34c-.85-.49-1.34-1.19-1.34-1.91 0-.64.37-1.21 1.04-1.59l21.98-12.69c1.27-.73 3.39-.66 4.84.18l21.38 12.34c.85.49 1.34 1.19 1.34 1.91 0 .64-.37 1.21-1.04 1.59l-21.99 12.69c-.58.34-1.35.5-2.15.5h.01Zm-.25-28.49c-.58 0-1.12.11-1.52.34l-21.98 12.69c-.16.09-.42.28-.42.52 0 .21.19.53.72.84l21.38 12.34c1.06.61 2.71.69 3.6.17l21.98-12.69c.16-.09.42-.28.42-.52 0-.21-.19-.53-.72-.84l-21.38-12.34c-.59-.34-1.36-.52-2.08-.52v.01Z"/><path fill="#F15B25" d="M192.887 130.217h-.95v1.42h.95v-1.42Zm-22.77-12.4h-.95v1.42h.95v-1.42Zm3.04 1.62h-.95v1.42h.95v-1.42Zm42.55-1.76h-.95v1.42h.95v-1.42Zm-8.04-5.55-.07-.27-9.26-34.85h-11.82l-9.33 35.12-.03.13c-.87 2.9.59 5.86 4.32 8.1 6.05 3.63 15.86 3.63 21.9 0 3.73-2.24 5.15-5.33 4.28-8.23h.01Z"/><path fill="#000" d="M192.427 123.687c-4.08 0-8.16-.93-11.27-2.8-3.89-2.34-5.57-5.55-4.59-8.8l.02-.09 9.46-35.6h12.77l9.45 35.58c.98 3.29-.73 6.62-4.56 8.92-3.11 1.87-7.19 2.8-11.27 2.8l-.01-.01Zm-5.43-46.06-9.24 34.77c-.81 2.71.66 5.4 4.04 7.43 5.86 3.52 15.4 3.52 21.27 0 3.32-2 4.82-4.81 4.01-7.52l-.07-.31-9.14-34.37h-10.87Z"/><path fill="#fff" d="M196.607 74.496c2.31 1.39 2.31 3.63 0 5.02-2.31 1.39-6.05 1.39-8.35 0-2.31-1.39-2.31-3.63 0-5.02 2.31-1.39 6.05-1.39 8.35 0Z"/><path fill="#000" d="M192.437 81.177c-1.62 0-3.24-.38-4.5-1.14-1.31-.79-2.03-1.86-2.03-3.04s.72-2.25 2.03-3.04c2.52-1.51 6.47-1.51 8.99 0 1.31.79 2.03 1.86 2.03 3.04s-.72 2.25-2.03 3.04c-1.26.76-2.88 1.14-4.5 1.14h.01Zm0-7.11c-1.4 0-2.79.32-3.86.96-.92.55-1.43 1.26-1.43 1.98s.51 1.42 1.43 1.98c2.13 1.28 5.59 1.28 7.72 0 .92-.55 1.43-1.26 1.43-1.98s-.51-1.42-1.43-1.98c-1.06-.64-2.46-.96-3.86-.96Z"/><path fill="#F15B25" d="M195.057 75.707c-1.46-.68-3.82-.68-5.28 0-1.46.68-1.46 1.78 0 2.46 1.46.68 3.82.68 5.28 0 1.46-.68 1.46-1.78 0-2.46Z"/><path fill="#000" d="M192.417 79.296c-1.04 0-2.09-.19-2.9-.57-1.26-.59-1.45-1.37-1.45-1.79 0-.42.19-1.2 1.45-1.79 1.63-.76 4.18-.76 5.8 0 1.26.59 1.45 1.37 1.45 1.79 0 .42-.19 1.2-1.45 1.79-.81.38-1.86.57-2.9.57Zm0-3.48c-.87 0-1.74.15-2.38.45-.51.24-.74.51-.74.67 0 .16.23.43.74.67 1.29.6 3.47.6 4.76 0 .51-.24.74-.51.74-.67 0-.16-.23-.43-.74-.67-.65-.3-1.51-.45-2.38-.45Z"/><path fill="#fff" d="m202.567 92.916-1.97-7.4c.32 1.47-.45 3.02-2.33 4.15-3.22 1.93-8.43 1.93-11.65 0-1.89-1.13-2.66-2.68-2.33-4.15l-1.38 5.24-.64 2.45c-.55 1.92.4 3.97 2.88 5.46 4.05 2.431 10.61 2.431 14.66 0 2.6-1.56 3.48-3.7 2.78-5.74l-.02-.01Z"/><path fill="#000" d="M192.457 101.097c-2.77 0-5.54-.63-7.65-1.9-2.63-1.58-3.8-3.88-3.15-6.16l2.14-8.13h1.24l-.16.75c-.28 1.27.47 2.54 2.05 3.49 3.04 1.82 7.98 1.82 11.01 0 1.58-.95 2.33-2.22 2.05-3.49l-.17-.75h1.24l.13.46 1.97 7.38c.81 2.41-.33 4.82-3.06 6.45-2.11 1.27-4.88 1.9-7.65 1.9h.01Zm-8.26-12.86-1.35 5.14c-.5 1.75.45 3.48 2.6 4.77 3.87 2.32 10.16 2.32 14.02 0 2.23-1.34 3.15-3.17 2.52-5.01v-.04l-1.31-4.86c-.46.75-1.17 1.43-2.1 1.99-3.39 2.03-8.9 2.03-12.29 0-.93-.56-1.64-1.23-2.09-1.97v-.02Z"/><path fill="#fff" d="M206.697 108.477h.01l-.11-.39s0-.04-.02-.06l-1.83-6.76c.43 2.19-.74 4.47-3.54 6.15-4.85 2.91-12.72 2.91-17.57 0-2.8-1.68-3.97-3.96-3.54-6.15l-1.89 7.21h.02c-.61 2.6.73 5.33 4.06 7.33 5.62 3.38 14.74 3.38 20.37 0 3.33-2 4.67-4.73 4.06-7.33h-.02Z"/><path fill="#000" d="M192.447 118.947c-3.8 0-7.61-.87-10.5-2.61-3.12-1.87-4.75-4.53-4.47-7.24h-.07l.19-.77 2.01-7.67h1.23l-.14.74c-.4 2.02.79 4.02 3.26 5.5 4.67 2.8 12.27 2.8 16.93 0 2.47-1.48 3.65-3.49 3.26-5.5l-.14-.74h1.22l.13.46 2.16 7.99h-.09c.28 2.7-1.35 5.36-4.47 7.24-2.9 1.74-6.7 2.61-10.5 2.61l-.01-.01Zm-13.57-10.65-.07.32c-.57 2.44.8 4.87 3.78 6.66 5.44 3.27 14.29 3.27 19.73 0 2.97-1.79 4.35-4.21 3.78-6.66l-.09-.37-1.04-3.86c-.61 1.34-1.78 2.56-3.44 3.56-5.02 3.01-13.19 3.01-18.21 0-1.64-.99-2.81-2.2-3.42-3.52l-1.01 3.87h-.01Z"/><path fill="#fff" d="m187.672 82.826-6.196 28.177 1.212.267 6.195-28.177-1.211-.267Z"/><path fill="#F15B25" d="m185.926 90.87-.57 2.598 1.211.266.57-2.599-1.211-.265Zm-3.793 17.274-.63 2.872 1.212.266.629-2.872-1.211-.266Z"/><path fill="#000" d="M189.857 75.716c-1.38.64-1.38 1.68 0 2.33.31.14.66.25 1.03.33l.37-3.05c-.51.08-1 .2-1.41.39h.01Z"/><path fill="#ECECEC" d="m191.427 79.117-.66-.14c-.45-.09-.84-.22-1.17-.37-1.21-.56-1.39-1.32-1.39-1.72 0-.4.18-1.16 1.39-1.72.44-.2.97-.35 1.57-.44l.8-.12-.55 4.52.01-.01Zm-.88-3c-.15.05-.3.1-.43.16-.53.25-.68.5-.68.6 0 .1.14.35.68.6.08.04.16.07.25.1l.18-1.47v.01Zm5.768 6.091-1.228.174.459 3.247 1.228-.173-.459-3.248ZM43.867 138.277l-1.19.68c-.12.07-.33.06-.47-.02l-1.12-.65c-.14-.08-.16-.2-.03-.27l1.19-.68c.12-.07.33-.06.47.02l1.12.65c.14.08.16.2.03.27Zm2.76 1.59-1.19.69c-.12.07-.33.06-.47-.02l-1.12-.65c-.14-.08-.16-.2-.03-.27l1.19-.69c.12-.07.33-.06.47.02l1.12.65c.14.08.16.2.03.27Zm-2.9 1.68-1.19.68c-.12.07-.33.06-.47-.02l-1.12-.65c-.14-.08-.16-.2-.03-.27l1.19-.69c.12-.07.33-.06.47.02l1.12.65c.14.08.16.2.03.27v.01Zm5.67-.08-1.19.69c-.12.07-.33.06-.47-.02l-1.12-.65c-.14-.08-.16-.2-.03-.27l1.19-.69c.12-.07.33-.06.47.02l1.12.65c.14.08.16.2.03.27Zm-2.91 1.68-1.19.68c-.12.07-.33.06-.47-.02l-1.12-.65c-.14-.08-.16-.2-.03-.27l1.19-.68c.12-.07.33-.06.47.02l1.12.65c.14.08.16.2.03.27Zm5.83 0-1.19.68c-.12.07-.33.06-.47-.02l-1.12-.65c-.14-.08-.16-.2-.03-.27l1.19-.68c.12-.07.33-.06.47.02l1.12.65c.14.08.16.2.03.27Zm-2.91 1.68-1.19.69c-.12.07-.33.06-.47-.02l-1.12-.65c-.14-.08-.16-.2-.03-.27l1.19-.69c.12-.07.33-.06.47.02l1.12.65c.14.08.16.2.03.27Zm5.67-.08-1.19.69c-.12.07-.33.06-.47-.02l-1.12-.65c-.14-.08-.16-.2-.03-.27l1.19-.69c.12-.07.33-.06.47.02l1.12.65c.14.08.16.2.03.27Zm-2.91 1.68-1.19.69c-.12.07-.33.06-.47-.02l-1.12-.65c-.14-.08-.16-.2-.03-.27l1.19-.69c.12-.07.33-.06.47.02l1.12.65c.14.08.16.2.03.27Zm5.67-.09-1.19.69c-.12.07-.33.06-.47-.02l-1.12-.65c-.14-.08-.16-.2-.03-.27l1.19-.69c.12-.07.33-.06.47.02l1.12.65c.14.08.16.2.03.27Zm-2.91 1.68-1.19.68c-.12.07-.33.06-.47-.02l-1.12-.65c-.14-.08-.16-.2-.03-.27l1.19-.68c.12-.07.33-.06.47.02l1.12.65c.14.08.16.2.03.27Zm5.83.01-1.19.68c-.12.07-.33.06-.47-.02l-1.12-.65c-.14-.08-.16-.2-.03-.27l1.19-.68c.12-.07.33-.06.47.02l1.12.65c.14.08.16.2.03.27Zm-2.91 1.68-1.19.68c-.12.07-.33.06-.47-.02l-1.12-.65c-.14-.08-.16-.2-.03-.27l1.19-.68c.12-.07.33-.06.47.02l1.12.65c.14.08.16.2.03.27Zm-26.89-36.18-1.19.69c-.12.07-.33.06-.47-.02l-1.12-.65c-.14-.08-.16-.2-.03-.27l1.19-.69c.12-.07.33-.06.47.02l1.12.65c.14.08.16.2.03.27Zm2.76 1.59-1.19.69c-.12.07-.33.06-.47-.02l-1.12-.65c-.14-.08-.16-.2-.03-.27l1.19-.69c.12-.07.33-.06.47.02l1.12.65c.14.08.16.2.03.27Zm-2.9 1.68-1.19.69c-.12.07-.33.06-.47-.02l-1.12-.65c-.14-.08-.16-.2-.03-.27l1.19-.69c.12-.07.33-.06.47.02l1.12.65c.14.08.16.2.03.27Zm5.83.01-1.19.69c-.12.07-.33.06-.47-.02l-1.12-.65c-.14-.08-.16-.2-.03-.27l1.19-.68c.12-.07.33-.06.47.02l1.12.65c.14.08.16.2.03.27v-.01Zm-2.91 1.68-1.19.68c-.12.07-.33.06-.47-.02l-1.12-.65c-.14-.08-.16-.2-.03-.27l1.19-.68c.12-.07.33-.06.47.02l1.12.65c.14.08.16.2.03.27Zm5.67-.09-1.19.68c-.12.07-.33.06-.47-.02l-1.12-.65c-.14-.08-.16-.2-.03-.27l1.19-.68c.12-.07.33-.06.47.02l1.12.65c.14.08.16.2.03.27Zm-2.91 1.68-1.19.68c-.12.07-.33.06-.47-.02l-1.12-.65c-.14-.08-.16-.2-.03-.27l1.19-.68c.12-.07.33-.06.47.02l1.12.65c.14.08.16.2.03.27Zm5.67-.08-1.19.68c-.12.07-.33.06-.47-.02l-1.12-.65c-.14-.08-.16-.2-.03-.27l1.19-.68c.12-.07.33-.06.47.02l1.12.65c.14.08.16.2.03.27Zm-2.91 1.67-1.19.69c-.12.07-.33.06-.47-.02l-1.12-.65c-.14-.08-.16-.2-.03-.27l1.19-.69c.12-.07.33-.06.47.02l1.12.65c.14.08.16.2.03.27Zm2.92 1.69-1.19.68c-.12.07-.33.06-.47-.02l-1.12-.65c-.14-.08-.16-.2-.03-.27l1.19-.68c.12-.07.33-.06.47.02l1.12.65c.14.08.16.2.03.27Zm105.62 57.35-1.19.69c-.12.07-.33.06-.47-.02l-1.12-.65c-.14-.08-.16-.2-.03-.27l1.19-.69c.12-.07.33-.06.47.02l1.12.65c.14.08.16.2.03.27Zm2.76 1.6-1.19.69c-.12.07-.33.06-.47-.02l-1.12-.65c-.14-.08-.16-.2-.03-.27l1.19-.69c.12-.07.33-.06.47.02l1.12.65c.14.08.16.2.03.27Zm2.92 1.68-1.19.68c-.12.07-.33.06-.47-.02l-1.12-.65c-.14-.08-.16-.2-.03-.27l1.19-.68c.12-.07.33-.06.47.02l1.12.65c.14.08.16.2.03.27Zm2.76 1.6-1.19.68c-.12.07-.33.06-.47-.02l-1.12-.65c-.14-.08-.16-.2-.03-.27l1.19-.68c.12-.07.33-.06.47.02l1.12.65c.14.08.16.2.03.27Zm2.76 1.59-1.19.69c-.12.07-.33.06-.47-.02l-1.12-.65c-.14-.08-.16-.2-.03-.27l1.19-.69c.12-.07.33-.06.47.02l1.12.65c.14.08.16.2.03.27Zm-2.91 1.68-1.19.69c-.12.07-.33.06-.47-.02l-1.12-.65c-.14-.08-.16-.2-.03-.27l1.19-.68c.12-.07.33-.06.47.02l1.12.65c.14.08.16.2.03.27v-.01Zm2.93 1.69-1.19.68c-.12.07-.33.06-.47-.02l-1.12-.65c-.14-.08-.16-.2-.03-.27l1.19-.68c.12-.07.33-.06.47.02l1.12.65c.14.08.16.2.03.27Zm-95.35-44.2-1.19.68c-.12.07-.33.06-.47-.02l-1.12-.65c-.14-.08-.16-.2-.03-.27l1.19-.68c.12-.07.33-.06.47.02l1.12.65c.14.08.16.2.03.27Zm2.91-1.68-1.19.69c-.12.07-.33.06-.47-.02l-1.12-.65c-.14-.08-.16-.2-.03-.27l1.19-.69c.12-.07.33-.06.47.02l1.12.65c.14.08.16.2.03.27Zm2.91-1.68-1.19.69c-.12.07-.33.06-.47-.02l-1.12-.65c-.14-.08-.16-.2-.03-.27l1.19-.69c.12-.07.33-.06.47.02l1.12.65c.14.08.16.2.03.27Zm2.91-1.68-1.19.68c-.12.07-.33.06-.47-.02l-1.12-.65c-.14-.08-.16-.2-.03-.27l1.19-.68c.12-.07.33-.06.47.02l1.12.65c.14.08.16.2.03.27Zm2.9-1.68-1.19.68c-.12.07-.33.06-.47-.02l-1.12-.65c-.14-.08-.16-.2-.03-.27l1.19-.68c.12-.07.33-.06.47.02l1.12.65c.14.08.16.2.03.27Zm2.91-1.68-1.19.69c-.12.07-.33.06-.47-.02l-1.12-.65c-.14-.08-.16-.2-.03-.27l1.19-.69c.12-.07.33-.06.47.02l1.12.65c.14.08.16.2.03.27Zm2.91-1.68-1.19.68c-.12.07-.33.06-.47-.02l-1.12-.65c-.14-.08-.16-.2-.03-.27l1.19-.68c.12-.07.33-.06.47.02l1.12.65c.14.08.16.2.03.27Zm2.91-1.68-1.19.68c-.12.07-.33.06-.47-.02l-1.12-.65c-.14-.08-.16-.2-.03-.27l1.19-.68c.12-.07.33-.06.47.02l1.12.65c.14.08.16.2.03.27Zm2.91-1.67-1.19.68c-.12.07-.33.06-.47-.02l-1.12-.65c-.14-.08-.16-.2-.03-.27l1.19-.68c.12-.07.33-.06.47.02l1.12.65c.14.08.16.2.03.27Zm-23.42 16.7-1.19.68c-.12.07-.33.06-.47-.02l-1.12-.65c-.14-.08-.16-.2-.03-.27l1.19-.68c.12-.07.33-.06.47.02l1.12.65c.14.08.16.2.03.27Zm2.91-1.68-1.19.68c-.12.07-.33.06-.47-.02l-1.12-.65c-.14-.08-.16-.2-.03-.27l1.19-.68c.12-.07.33-.06.47.02l1.12.65c.14.08.16.2.03.27Zm2.91-1.68-1.19.68c-.12.07-.33.06-.47-.02l-1.12-.65c-.14-.08-.16-.2-.03-.27l1.19-.68c.12-.07.33-.06.47.02l1.12.65c.14.08.16.2.03.27Zm2.91-1.67-1.19.68c-.12.07-.33.06-.47-.02l-1.12-.65c-.14-.08-.16-.2-.03-.27l1.19-.68c.12-.07.33-.06.47.02l1.12.65c.14.08.16.2.03.27Zm2.91-1.68-1.19.69c-.12.07-.33.06-.47-.02l-1.12-.65c-.14-.08-.16-.2-.03-.27l1.19-.69c.12-.07.33-.06.47.02l1.12.65c.14.08.16.2.03.27Zm2.9-1.68-1.19.68c-.12.07-.33.06-.47-.02l-1.12-.65c-.14-.08-.16-.2-.03-.27l1.19-.68c.12-.07.33-.06.47.02l1.12.65c.14.08.16.2.03.27Zm2.91-1.68-1.19.69c-.12.07-.33.06-.47-.02l-1.12-.65c-.14-.08-.16-.2-.03-.27l1.19-.69c.12-.07.33-.06.47.02l1.12.65c.14.08.16.2.03.27Zm2.91-1.68-1.19.69c-.12.07-.33.06-.47-.02l-1.12-.65c-.14-.08-.16-.2-.03-.27l1.19-.69c.12-.07.33-.06.47.02l1.12.65c.14.08.16.2.03.27Zm2.91-1.68-1.19.68c-.12.07-.33.06-.47-.02l-1.12-.65c-.14-.08-.16-.2-.03-.27l1.19-.68c.12-.07.33-.06.47.02l1.12.65c.14.08.16.2.03.27Z"/><path fill="#fff" d="m45.157 51.606 23.74-14.56h.02l14.19 8.19s.01.03 0 .04l-23.74 14.56h-.02l-14.19-8.19s-.01-.03 0-.04Z"/><path fill="#000" d="m59.357 60.676-.4-.24-14.52-8.38v-.829l.35-.22 24.1-14.78.39.21 14.54 8.4.02.83-.36.23-24.12 14.79v-.011Zm-12.84-9.07 12.82 7.4 22.4-13.73-12.82-7.4-22.4 13.73Zm12.87 92.49 23.74-14.56v-17.44s-.02-.03-.03-.02l-23.74 14.56v17.44s.02.03.03.02Z"/><path fill="#000" d="m59.407 144.926-.76-.41v-.44l-.01-17.83.37-.22 24.08-14.77.75.41v.43l.01 17.8-.33.23-24.11 14.79v.01Zm.66-17.88v15.79l22.36-13.71v-15.79l-22.36 13.71Z"/><path fill="#000" d="m68.167 131.707 23.74-14.561v-13.81s-.02-.03-.03-.02l-23.74 14.56s-.01.01-.01.02v13.79s.02.031.03.021h.01Z"/><path fill="#000" d="m68.177 132.527-.74-.41v-.43l-.01-14.2.37-.22 24.08-14.77.75.41v.43l.01 14.2-.37.22-24.08 14.76-.01.01Zm.67-14.24v12.16l22.36-13.71v-12.16l-22.36 13.71Z"/><path fill="#fff" d="m26.697 93.966 23.79-14.58 17.57 10.14-23.78 14.591-17.58-10.151Z"/><path fill="#000" d="m44.287 104.947-18.98-10.96 25.17-15.43 18.98 10.96-25.17 15.43Zm-16.19-10.99 16.17 9.33 22.4-13.73-16.17-9.34-22.4 13.73v.01Z"/><path fill="#000" d="m26.697 93.966 23.79-14.58-5.96-7.7-11.9 3.08-7.95 14.76 2.02 4.44Z"/><path fill="#000" d="m26.387 94.996-2.5-5.49 8.26-15.35 12.66-3.28 6.73 8.7-25.15 15.42Zm-.91-5.44 1.54 3.38 22.42-13.75-5.19-6.7-11.15 2.89-7.63 14.18h.01Z"/><path fill="#F15B25" d="m68.107 131.706-8.72-5.04s-.03 0-.03.02v17.32c0 .05-.05.08-.1.06l-14.97-8.64s-.01-.01-.01-.02v-17.44s0-.01-.01-.02l-31.13-17.97s-.01-.01-.01-.02V87.577l31.98-35.92h.03l14.2 8.2s.01.01.01.02v52.95s0 .01.01.02l8.77 5.06s.01.01.01.02v13.79s-.02.03-.03.02v-.031Zm-23.86-27.61s.03 0 .03-.02v-14.26c0-2.38.08-5.79.25-10.23.17-4.44.3-6.99.4-7.67l-.4-.23a32.473 32.473 0 0 1-4.44 6.66l-13.36 15.6v.03l17.52 10.12Z"/><path fill="#000" d="M59.287 144.786c-.14 0-.27-.04-.39-.11l-15.32-8.849v-.431l-.01-17.039-31.14-17.981v-.43l-.01-12.61.15-.2 32.42-36.41 15.08 8.7v.43l.01 52.551 8.78 5.07v.43l.01 14.2-.72.429-.38-.199-7.69-4.441v16.53l-.39.261a.75.75 0 0 1-.39.099h-.01Zm-14.3-9.779 13.65 7.88v-16.61l.73-.431.38.211 7.68 4.43v-12.19l-8.78-5.07v-.43l-.01-52.55-13.37-7.72-31.43 35.31v11.71l31.14 17.98v.429l.01 17.041v.01Zm-.73-30.08-.37-.21-17.81-10.28-.13-.66.21-.27 13.37-15.61c1.69-1.95 3.15-4.14 4.35-6.52l.34-.67 1.47.85-.07.48c-.07.45-.19 2.13-.39 7.59-.17 4.42-.25 7.85-.25 10.21v14.679l-.73.43.01-.019Zm-16.45-11.14 15.76 9.1v-13.06c0-2.37.08-5.82.25-10.26.09-2.39.17-4.22.24-5.52a32.924 32.924 0 0 1-3.43 4.78l-12.82 14.97v-.01Z"/><path fill="#000" d="m59.597 112.666 23.46-14.38s.08-.08.08-.14v-52.6c0-.13-.14-.2-.25-.14l-23.46 14.38s-.08.08-.08.14v52.6c0 .13.14.2.25.14Z"/><path fill="#000" d="M59.517 113.407a.873.873 0 0 1-.88-.87v-52.6c0-.3.16-.59.42-.75l23.46-14.38c.27-.17.61-.17.88-.02.28.15.45.45.45.76v52.6c0 .31-.16.58-.42.74l-23.46 14.38c-.14.09-.3.13-.46.13l.01.01Zm.55-53.16v51.3l22.36-13.71v-51.3l-22.36 13.71Z"/><path fill="#fff" d="m59.377 112.796 23.74-14.56h.02l8.75 5.05s.01.03 0 .04l-23.74 14.56h-.02l-8.75-5.05s-.01-.03 0-.04Z"/><path fill="#000" d="m68.187 118.696-.37-.18-9.14-5.28v-.85l.34-.21 24.1-14.78.39.21 9.09 5.25.03.82-.35.24-24.09 14.77v.01Zm-7.44-5.9 7.38 4.26 22.4-13.73-7.38-4.26-22.4 13.73Z"/><path fill="#F15B25" d="m80.638 123.216-10.7 6.558.747 1.219 10.7-6.558-.747-1.219Zm.465-34.284-20.585 12.61.747 1.219 20.585-12.61-.747-1.219Zm-14.179-3.217-6.396 3.918.747 1.22 6.396-3.918-.747-1.22Z"/><path fill="#ECECEC" d="m94.297 168.187-1.19.69c-.12.07-.33.06-.47-.02l-1.12-.65c-.14-.08-.16-.2-.03-.27l1.19-.69c.12-.07.33-.06.47.02l1.12.65c.14.08.16.2.03.27Zm2.76 1.589-1.19.68c-.12.07-.33.06-.47-.02l-1.12-.65c-.14-.08-.16-.2-.03-.27l1.19-.68c.12-.07.33-.06.47.02l1.12.65c.14.08.16.2.03.27Zm-2.91 1.681-1.19.68c-.12.07-.33.06-.47-.02l-1.12-.65c-.14-.08-.16-.2-.03-.27l1.19-.68c.12-.07.33-.06.47.02l1.12.65c.14.08.16.2.03.27Zm5.67-.09-1.19.68c-.12.07-.33.06-.47-.02l-1.12-.65c-.14-.08-.16-.2-.03-.27l1.19-.68c.12-.07.33-.06.47.02l1.12.65c.14.08.16.2.03.27Zm-2.91 1.68-1.19.69c-.12.07-.33.06-.47-.02l-1.12-.65c-.14-.08-.16-.2-.03-.27l1.19-.69c.12-.07.33-.06.47.02l1.12.649c.14.08.16.201.03.271Zm5.83.01-1.19.69c-.12.07-.33.06-.47-.02l-1.12-.65c-.14-.08-.16-.2-.03-.27l1.19-.69c.12-.07.33-.06.47.02l1.12.65c.14.08.16.2.03.27Zm-2.9 1.68-1.19.689c-.12.07-.33.061-.47-.019l-1.12-.651c-.14-.08-.16-.199-.03-.269l1.19-.69c.12-.07.33-.06.47.02l1.12.65c.14.08.16.2.03.27Zm5.67-.081-1.19.69c-.12.07-.33.06-.47-.02l-1.12-.65c-.14-.08-.16-.2-.03-.27l1.19-.69c.12-.07.33-.06.47.02l1.12.65c.14.08.16.2.03.27Zm-2.91 1.671-1.19.68c-.12.07-.33.06-.47-.02l-1.12-.65c-.14-.08-.16-.2-.03-.27l1.19-.68c.12-.07.33-.06.47.02l1.12.65c.14.08.16.2.03.27Zm5.67-.08-1.19.68c-.12.07-.33.06-.47-.02l-1.12-.65c-.14-.08-.16-.2-.03-.27l1.19-.68c.12-.07.33-.06.47.02l1.12.65c.14.08.16.2.03.27Zm-2.91 1.68-1.19.69c-.12.07-.33.06-.47-.02l-1.12-.65c-.14-.08-.16-.2-.03-.27l1.19-.69c.12-.07.33-.06.47.02l1.12.65c.14.08.16.2.03.27Zm5.83.01-1.19.68c-.12.07-.33.06-.47-.02l-1.12-.65c-.14-.08-.16-.2-.03-.27l1.19-.68c.12-.07.33-.06.47.02l1.12.65c.14.08.16.2.03.27Zm-2.91 1.68-1.19.68c-.12.07-.33.06-.47-.02l-1.12-.65c-.14-.08-.16-.2-.03-.27l1.19-.68c.12-.07.33-.06.47.02l1.12.65c.14.08.16.2.03.27Zm2.89-5.05-1.19.69c-.12.07-.33.06-.47-.02l-1.12-.65c-.14-.08-.16-.2-.03-.27l1.19-.69c.12-.07.33-.06.47.02l1.12.65c.14.08.16.2.03.27Zm2.93 1.69-1.19.68c-.12.07-.33.06-.47-.02l-1.12-.65c-.14-.08-.16-.2-.03-.27l1.19-.68c.12-.07.33-.06.47.02l1.12.65c.14.08.16.2.03.27Zm2.91-1.68-1.19.68c-.12.07-.33.06-.47-.02l-1.12-.65c-.14-.08-.16-.2-.03-.27l1.19-.68c.12-.07.33-.06.47.02l1.12.65c.14.08.16.2.03.27Zm2.9-1.68-1.19.68c-.12.07-.33.06-.47-.02l-1.12-.65c-.14-.08-.16-.2-.03-.27l1.19-.68c.12-.07.33-.06.47.02l1.12.65c.14.08.16.2.03.27Zm2.91-1.68-1.19.69c-.12.07-.33.06-.47-.02l-1.12-.65c-.14-.08-.16-.2-.03-.27l1.19-.69c.12-.07.33-.06.47.02l1.12.65c.14.08.16.2.03.27Zm2.91-1.681-1.19.68c-.12.07-.33.06-.47-.02l-1.12-.65c-.14-.08-.16-.2-.03-.27l1.19-.69c.12-.07.33-.06.47.02l1.12.65c.14.08.16.2.03.27v.01Zm2.91-1.679-1.19.679c-.12.07-.33.061-.47-.019l-1.12-.651c-.14-.08-.16-.199-.03-.269l1.19-.681c.12-.07.33-.059.47.021l1.12.649c.14.08.16.201.03.271Zm2.91-1.68-1.19.69c-.12.07-.33.06-.47-.02l-1.12-.65c-.14-.08-.16-.2-.03-.27l1.19-.69c.12-.07.33-.06.47.02l1.12.65c.14.08.16.2.03.27Zm2.91-1.68-1.19.69c-.12.07-.33.06-.47-.02l-1.12-.65c-.14-.08-.16-.2-.03-.27l1.19-.69c.12-.07.33-.06.47.02l1.12.65c.14.08.16.2.03.27Zm2.91-1.68-1.19.68c-.12.07-.33.06-.47-.02l-1.12-.65c-.14-.08-.16-.2-.03-.27l1.19-.68c.12-.07.33-.06.47.02l1.12.65c.14.08.16.2.03.27Zm-23.42 16.709-1.19.68c-.12.07-.33.06-.47-.02l-1.12-.65c-.14-.08-.16-.2-.03-.27l1.19-.68c.12-.07.33-.06.47.02l1.12.65c.14.08.16.2.03.27Zm2.91-1.679-1.19.69c-.12.07-.33.06-.47-.02l-1.12-.65c-.14-.08-.16-.2-.03-.27l1.19-.69c.12-.07.33-.06.47.02l1.12.65c.14.08.16.2.03.27Zm2.91-1.681-1.19.681c-.12.07-.33.06-.47-.02l-1.12-.651c-.14-.08-.16-.199-.03-.269l1.19-.681c.12-.07.33-.059.47.021l1.12.649c.14.08.16.2.03.27Zm2.9-1.679-1.19.679c-.12.07-.33.06-.47-.02l-1.12-.649c-.14-.08-.16-.201-.03-.271l1.19-.679c.12-.07.33-.06.47.02l1.12.65c.14.08.16.2.03.27Zm2.91-1.68-1.19.69c-.12.07-.33.06-.47-.02l-1.12-.65c-.14-.08-.16-.2-.03-.27l1.19-.68c.12-.07.33-.06.47.02l1.12.65c.14.08.16.2.03.27v-.01Zm2.91-1.68-1.19.69c-.12.07-.33.06-.47-.02l-1.12-.65c-.14-.08-.16-.2-.03-.27l1.19-.69c.12-.07.33-.06.47.02l1.12.65c.14.08.16.2.03.27Zm2.91-1.68-1.19.68c-.12.07-.33.06-.47-.02l-1.12-.65c-.14-.08-.16-.2-.03-.27l1.19-.68c.12-.07.33-.06.47.02l1.12.65c.14.08.16.2.03.27Zm2.91-1.68-1.19.68c-.12.07-.33.06-.47-.02l-1.12-.65c-.14-.08-.16-.2-.03-.27l1.19-.68c.12-.07.33-.06.47.02l1.12.65c.14.08.16.2.03.27Zm2.91-1.67-1.19.69c-.12.07-.33.06-.47-.02l-1.12-.65c-.14-.08-.16-.2-.03-.27l1.19-.69c.12-.07.33-.06.47.02l1.12.65c.14.08.16.2.03.27Z"/><path fill="#fff" d="M148.237 125.047c0-14.22-2.15-26.26-6.47-36.13-4.31-9.87-10.68-17.23-19.1-22.09-7.15-4.13-12.74-4.91-16.82-2.45l-23.72 14.48s-.06.06-.06.1l-1.6 20.15v.02l5.33 48.72s.02.049.03.079l11.92 12.691s.05.04.08.04l13.9 1.68s.09.04.11.08l3.51 8.36c.03.07.12.1.19.06l23.84-14.67c.93-.53 1.82-1.18 2.6-2.04 4.18-4.66 6.27-14.351 6.27-29.071l-.01-.009Z"/><path fill="#000" d="M115.467 171.557c-.09 0-.17-.01-.26-.04a.804.804 0 0 1-.52-.481l-3.38-8.049-13.82-1.67-.26-.22-12.08-12.86-.07-.311-5.34-48.81 1.61-20.23c.02-.27.17-.51.4-.65l23.72-14.48c4.33-2.6 10.23-1.78 17.55 2.45 8.51 4.92 15.04 12.46 19.39 22.43 4.33 9.91 6.52 22.161 6.52 36.421 0 15.04-2.11 24.7-6.45 29.54-.75.84-1.66 1.549-2.77 2.189l-23.82 14.661c-.13.08-.29.13-.44.13l.02-.02Zm-17.34-11.6 13.69 1.65c.3.04.56.23.68.51l3.25 7.74 23.26-14.321c1.02-.58 1.78-1.179 2.44-1.909 4.04-4.5 6.08-14.12 6.08-28.59s-2.16-26.11-6.41-35.84c-4.23-9.68-10.55-17-18.8-21.76-6.84-3.95-12.25-4.77-16.1-2.46l-23.46 14.32-1.58 19.8 5.3 48.48 11.64 12.4.01-.02Z"/><path fill="#F15B25" d="m105.797 64.356-23.72 14.48s-.06.06-.06.1l-.69 8.6 6.98.75 3.91-1.56 3.7-6.88 23.92-14.51c-5.83-2.8-10.5-3.11-14.04-.99v.01Z"/><path fill="#000" d="m88.407 89.016-7.84-.84.74-9.29c.02-.27.17-.51.41-.66l23.72-14.47c3.75-2.26 8.7-1.93 14.71.95l1.19.57-24.88 15.09-3.73 6.93-4.31 1.72h-.01Zm-6.31-2.11 6.11.66 3.5-1.4 3.67-6.82 22.93-13.91c-5-2.15-9.08-2.31-12.14-.46l-23.46 14.32-.61 7.62v-.01Z"/><path fill="#F15B25" d="m139.457 84.207-24.09 13.97-3.14 5.589 3.12 21.52-4.69 35.41-.48 1.37 1.54.19s.09.04.11.08l3.51 8.36c.03.07.12.1.19.06l23.84-14.67c.93-.53 1.82-1.18 2.6-2.04 4.18-4.66 6.27-14.35 6.27-29.07s-2.15-26.26-6.47-36.13c-.71-1.62-1.49-3.15-2.31-4.63v-.009Z"/><path fill="#000" d="M115.467 171.486a.83.83 0 0 1-.78-.52l-3.38-8.05-2.09-.25.75-2.14 4.66-35.24-3.15-21.66 3.35-5.97 24.89-14.44.35.64c.95 1.72 1.69 3.22 2.34 4.69 4.33 9.91 6.52 22.16 6.52 36.42 0 15.04-2.11 24.7-6.45 29.54-.75.84-1.66 1.55-2.77 2.19l-23.82 14.66c-.13.08-.29.13-.44.13h.02Zm-4.31-10.02.66.08c.3.04.56.23.68.51l3.25 7.74 23.26-14.32c1.02-.58 1.78-1.18 2.44-1.91 4.04-4.5 6.08-14.12 6.08-28.59s-2.16-26.11-6.41-35.84c-.55-1.25-1.17-2.51-1.93-3.93l-23.29 13.51-2.92 5.21 3.1 21.37-4.73 35.66-.19.53v-.02Z"/><path fill="#000" d="m144.957 98.326-23.96 13.911-5.05 6.17 2.34 15.1-8.04 28.65 1.41.17s.09.04.11.08l3.51 8.36c.03.07.12.1.19.06l23.84-14.67c.93-.53 1.82-1.18 2.6-2.04 4.18-4.66 6.27-14.35 6.27-29.07 0-9.99-1.09-18.88-3.21-26.71l-.01-.01v-.001Z"/><path fill="#000" d="M115.397 171.557a.686.686 0 0 1-.25-.04.845.845 0 0 1-.53-.48l-3.38-8.05-1.9-.23 8.22-29.3-2.37-15.26 5.45-6.58 24.76-14.37.24.9c2.15 7.92 3.24 16.97 3.24 26.9 0 15.04-2.11 24.7-6.45 29.54-.75.84-1.66 1.55-2.77 2.19l-23.82 14.66a.846.846 0 0 1-.44.13v-.01Zm-4.24-10.01.59.07c.3.03.55.23.67.5l3.25 7.74 23.26-14.32c1.02-.58 1.78-1.18 2.44-1.91 4.04-4.5 6.08-14.12 6.08-28.59 0-9.43-.99-18.05-2.95-25.63l-23.04 13.37-4.77 5.82 2.32 14.94-7.85 28v.01Z"/><path fill="#F15B25" d="m91.257 145.797 24.05-14.32s-.65-4.45-.91-6.19c-.26-1.75-3.25-16.07-3.65-16.98-.39-.91-4.07-15.88-12.06-17.32l-7.99-1.43-6.51 13.02s1.3 2.21-.65 15.1c-1.95 12.89-1.95 11.72-1.95 11.72s1.82 12.32 2.6 12.54c.78.22 7.07 3.87 7.07 3.87v-.01Z"/><path fill="#000" d="m91.257 146.627-.36-.21c-3.02-1.75-6.43-3.65-6.91-3.8-.48-.13-1.2-.34-3.03-12.53h-.09v-.7l.55-.04-.49-.2c.06-.19.38-1.59 1.89-11.58 1.84-12.12.77-14.57.72-14.67l-.15-.31.14-.34 6.75-13.5 8.51 1.53c5.01.9 9.18 6.64 12.37 17.05.11.35.18.59.22.68.47 1.1 3.49 15.78 3.7 17.16.26 1.75.91 6.2.91 6.2l.07.47-24.82 14.78.02.01Zm-6.65-5.29c1.16.49 4.97 2.68 6.64 3.64l23.28-13.87c-.17-1.19-.63-4.32-.84-5.72-.27-1.83-3.24-15.92-3.6-16.81-.05-.11-.14-.39-.27-.82-3.77-12.29-8.21-15.52-11.26-16.07l-7.46-1.34-6.13 12.27c.33 1.1.87 4.7-.72 15.16-1.13 7.45-1.58 10.42-1.94 11.6.77 5.2 1.82 10.92 2.31 11.95l-.01.01Z"/><path fill="#000" d="m88.777 135.256 24.05-14.32s-.65-4.45-.91-6.19c-.26-1.75-3.25-16.07-3.65-16.98-.4-.91-4.07-15.88-12.06-17.32l-7.99-1.43-6.51 13.02s1.3 2.21-.65 15.1c-1.95 12.89-1.95 11.72-1.95 11.72s1.82 12.32 2.6 12.54c.78.22 7.07 3.87 7.07 3.87v-.01Z"/><path fill="#000" d="m88.787 136.086-.36-.21c-3.02-1.75-6.43-3.65-6.91-3.8-.48-.13-1.2-.34-3.03-12.53h-.09v-.7l.55-.04-.49-.2c.06-.19.38-1.59 1.89-11.58 1.84-12.12.77-14.57.72-14.67l-.15-.31.14-.34 6.75-13.5 8.51 1.53c5.01.9 9.17 6.64 12.37 17.05.11.35.18.59.22.68.47 1.11 3.49 15.78 3.7 17.16.26 1.75.91 6.2.91 6.2l.07.47-24.82 14.78.02.01Zm-6.65-5.29c1.16.49 4.97 2.68 6.64 3.64l23.28-13.86c-.17-1.19-.63-4.32-.84-5.72-.27-1.83-3.24-15.92-3.6-16.81-.05-.11-.14-.39-.27-.82-3.77-12.29-8.21-15.52-11.26-16.07l-7.46-1.34-6.13 12.27c.33 1.1.87 4.7-.72 15.17-1.13 7.45-1.58 10.42-1.94 11.6.77 5.2 1.82 10.92 2.31 11.95l-.01-.01Z"/><path fill="#F15B25" d="M124.447 139.627c0 14.72-2.09 24.41-6.27 29.07s-10.61 4.48-19.3-.53c-8.42-4.86-14.77-12.18-19.05-21.95-4.28-9.77-6.42-21.79-6.42-36.04s2.08-24.63 6.24-29.28c4.16-4.65 10.57-4.48 19.22.52 8.42 4.86 14.79 12.23 19.1 22.09 4.31 9.87 6.47 21.91 6.47 36.13l.01-.01Zm-35.7-20.61c0 10.34.77 18.19 2.32 23.56 1.55 5.37 4.15 9.11 7.81 11.23 3.59 2.08 6.19 1.31 7.79-2.31 1.6-3.62 2.4-10.53 2.4-20.75s-.81-18.23-2.42-23.68c-1.61-5.45-4.2-9.2-7.76-11.26-3.63-2.09-6.22-1.34-7.79 2.28-1.57 3.62-2.35 10.59-2.35 20.93Z"/><path fill="#000" d="M110.597 172.767c-3.43 0-7.46-1.33-12.06-3.99-8.51-4.92-15.02-12.41-19.34-22.28-4.3-9.81-6.47-22.04-6.47-36.33 0-15.2 2.1-24.93 6.42-29.76 4.39-4.92 11.16-4.79 20.11.38 8.52 4.92 15.04 12.46 19.39 22.42 4.33 9.91 6.52 22.16 6.52 36.42 0 15.04-2.11 24.7-6.45 29.54-2.15 2.4-4.86 3.6-8.12 3.6Zm-23.33-94.55c-2.85 0-5.19 1.05-7.07 3.15-4.02 4.49-6.06 14.19-6.06 28.81s2.14 26.12 6.36 35.76c4.19 9.58 10.5 16.86 18.75 21.62 8.43 4.86 14.45 5.09 18.41.67 4.04-4.5 6.08-14.12 6.08-28.59s-2.16-26.11-6.41-35.84c-4.23-9.68-10.55-17-18.8-21.76-4.4-2.54-8.14-3.81-11.27-3.81l.01-.01Zm15.17 77.44c-1.18 0-2.48-.41-3.9-1.23-3.81-2.2-6.55-6.12-8.14-11.65-1.56-5.41-2.35-13.4-2.35-23.76 0-10.36.79-17.47 2.41-21.21.84-1.94 1.99-3.16 3.43-3.63 1.52-.5 3.32-.16 5.37 1.02 3.71 2.14 6.43 6.07 8.09 11.67 1.63 5.49 2.45 13.52 2.45 23.88s-.8 17.3-2.46 21.04c-.86 1.95-2.03 3.17-3.48 3.65-.45.15-.92.22-1.42.22Zm-7.12-60.28c-.35 0-.68.05-.98.15-1.03.34-1.9 1.3-2.57 2.85-1.52 3.5-2.29 10.45-2.29 20.64 0 10.19.77 18.09 2.29 23.36 1.49 5.16 4.01 8.8 7.48 10.81 1.65.95 3.05 1.25 4.16.89 1.05-.34 1.93-1.31 2.62-2.87 1.55-3.51 2.34-10.39 2.34-20.46s-.8-18.12-2.39-23.48c-1.55-5.24-4.06-8.89-7.44-10.84-1.22-.7-2.3-1.06-3.22-1.06v.01Z"/><path fill="#F15B25" d="m144.334 110.738-18.783 10.766.711 1.24 18.783-10.766-.711-1.24Zm-45.758 1.504-7.887 4.831.741 1.211 7.888-4.832-.742-1.21Zm46.71 7.476-7.887 4.833.747 1.22 7.887-4.833-.747-1.22Z"/><path fill="#000" d="m129.67 80.117-18.783 10.766.711 1.24 18.783-10.765-.711-1.241Z"/><path fill="#000" d="m167.027 105.266 3.54-3.759-1.1-.701c.91-3.1.81-6.93-.5-11.29-2.15-7.14-3.48-17.04-9.72-22.75-5.86-5.36-16.49-6.71-23.31-8.31-4.43-1.04-8.27-.91-11.31.2l-.76-1.06-3.74 3.96c-3.24 3.45-4.21 9.05-2.13 15.97 4.17 13.84 18.95 27.75 33.03 31.06 7.18 1.69 12.78.29 15.99-3.32h.01Zm-17.94-3.149c-5.22-1.23-7.57-8.17-12-12.35-4.44-4.17-10.96-5.57-12.51-10.71-3.09-10.27 2.87-16.61 13.31-14.15 10.44 2.46 21.42 12.78 24.51 23.05 3.09 10.27-2.87 16.609-13.31 14.149v.011Z"/><path fill="#000" d="M156.807 109.917c-1.85 0-3.83-.24-5.92-.74-14.24-3.35-29.26-17.48-33.48-31.49-2.08-6.89-1.28-12.76 2.23-16.53l.05-.05 4.24-4.5.93 1.3c3.16-1.03 7.02-1.05 11.22-.06 1.18.28 2.47.55 3.84.83 6.58 1.37 14.78 3.08 19.74 7.63 5.11 4.67 6.99 11.97 8.64 18.41.42 1.64.82 3.18 1.25 4.62 1.24 4.12 1.45 7.98.63 11.19l1.35.86-4.2 4.46s-.07.08-.11.12l-.14.15c-2.48 2.51-6.02 3.8-10.27 3.8Zm-33-51.36-3.23 3.42c-3.23 3.44-3.94 8.89-1.99 15.37 4.1 13.63 18.72 27.38 32.58 30.64 6.72 1.58 12.18.47 15.39-3.13l.4-.45h.01l2.63-2.78-.86-.55.13-.45c.9-3.07.73-6.85-.5-10.94-.44-1.47-.84-3.02-1.27-4.67-1.61-6.27-3.44-13.38-8.28-17.81-4.72-4.32-12.73-5.99-19.16-7.33-1.37-.29-2.68-.56-3.87-.84-4.16-.98-7.95-.92-10.96.17l-.44.16-.59-.83.01.02Zm29.56 44.71c-1.38 0-2.86-.18-4.43-.55-3.52-.83-5.72-3.95-8.05-7.26-1.3-1.84-2.64-3.74-4.23-5.24-1.61-1.52-3.53-2.67-5.39-3.78-3.22-1.93-6.25-3.76-7.29-7.2-1.56-5.19-.95-9.61 1.72-12.45s7.05-3.72 12.32-2.48c10.62 2.5 21.82 13.03 24.96 23.48 1.56 5.19.95 9.61-1.72 12.45-1.88 2-4.61 3.03-7.9 3.03h.01Zm-19.77-38.27c-2.94 0-5.36.89-7 2.64-2.36 2.51-2.87 6.5-1.44 11.25.9 2.98 3.61 4.61 6.74 6.49 1.91 1.15 3.89 2.33 5.6 3.94 1.68 1.58 3.06 3.54 4.39 5.42 2.19 3.11 4.26 6.05 7.33 6.77 4.82 1.14 8.78.38 11.14-2.12 2.36-2.51 2.87-6.5 1.44-11.25-3.03-10.07-13.83-20.22-24.06-22.63-1.47-.35-2.85-.52-4.14-.52v.01Z"/><path fill="#fff" d="M172.917 85.306c-4.17-13.84-18.95-27.75-33.03-31.06-14.07-3.31-22.1 5.22-17.94 19.07 4.17 13.84 18.95 27.75 33.03 31.06 14.07 3.31 22.1-5.22 17.94-19.07Zm-19.88 12.6c-10.44-2.46-21.42-12.78-24.51-23.05-3.09-10.27 2.87-16.61 13.31-14.15 10.44 2.46 21.42 12.78 24.51 23.05 3.09 10.27-2.87 16.611-13.31 14.15Z"/><path fill="#000" d="M160.757 105.717c-1.85 0-3.83-.24-5.91-.73-14.24-3.35-29.26-17.48-33.48-31.49-2.08-6.92-1.28-12.8 2.27-16.57 3.55-3.77 9.37-4.93 16.4-3.28 14.24 3.35 29.26 17.48 33.48 31.49 2.08 6.92 1.28 12.8-2.27 16.57-2.49 2.65-6.11 4.01-10.49 4.01Zm-26.63-51.57c-4.03 0-7.34 1.23-9.59 3.62-3.23 3.43-3.93 8.89-1.99 15.37 4.1 13.63 18.72 27.38 32.58 30.64 6.58 1.55 11.99.51 15.22-2.92 3.23-3.43 3.93-8.89 1.99-15.37-4.1-13.63-18.72-27.38-32.58-30.64-1.99-.47-3.88-.7-5.63-.7Zm23.2 44.92c-1.38 0-2.87-.18-4.43-.55-10.62-2.5-21.82-13.03-24.96-23.48-1.56-5.19-.95-9.61 1.72-12.45s7.05-3.72 12.32-2.48c10.62 2.5 21.82 13.03 24.96 23.48 1.56 5.19.95 9.61-1.72 12.45-1.88 2-4.61 3.03-7.9 3.03h.01Zm-19.77-38.27c-2.94 0-5.36.9-7 2.64-2.36 2.51-2.87 6.5-1.44 11.25 3.03 10.07 13.83 20.22 24.06 22.63 4.83 1.14 8.78.38 11.14-2.12 2.36-2.51 2.87-6.5 1.44-11.25-3.03-10.07-13.83-20.22-24.06-22.63-1.47-.35-2.85-.52-4.14-.52Z"/><path fill="#F15B25" d="m144.894 100.196-3.891 4.138.903.849 3.891-4.138-.903-.849ZM120.438 68.77l-3.891 4.138.904.85 3.891-4.138-.904-.85Zm2.764 8.465-3.891 4.138.903.85 3.891-4.138-.903-.85Zm41.16 2.257-3.891 4.137.903.85 3.892-4.138-.904-.849ZM146.468 62l-3.891 4.138.904.85 3.891-4.139-.904-.849Z"/><path fill="#fff" d="M170.577 151.756c.2-.06.31-.269.25-.459l-14.15-46.34s-.14-.2-.3-.24l-4.12-.97c-.39-.09-.96.11-1.28.44l-2.75 2.92c-.14.15-.19.29-.19.42l14.15 46.33c.06.19.26.3.46.25l7.93-2.351Z"/><path fill="#000" d="M162.547 154.746a.981.981 0 0 1-.94-.7l-14.18-46.42v-.09c0-.21.06-.53.36-.85l2.75-2.92c.47-.5 1.27-.76 1.87-.62l4.12.97c.37.09.61.4.67.49l.08.17 14.15 46.34c.08.26.05.52-.08.76-.13.23-.33.4-.59.48l-7.93 2.35c-.09.03-.19.04-.28.04Zm-13.86-47.21 14.03 45.92 7.45-2.21-14.03-45.94-4.03-.95c-.15-.03-.5.07-.68.26l-2.74 2.92Z"/><path fill="#F15B25" d="m166.747 155.546-4.12-.97c-.39-.09-.45-.44-.13-.77l2.75-2.92c.32-.34.89-.53 1.28-.44l4.12.97c.39.09.45.44.13.77l-2.75 2.92c-.32.34-.89.53-1.28.44Z"/><path fill="#000" d="M166.937 156.186c-.12 0-.23-.01-.34-.04l-4.12-.97c-.39-.09-.67-.34-.77-.68-.11-.37.01-.78.33-1.12l2.74-2.92c.47-.49 1.27-.76 1.87-.62l4.12.97c.39.09.67.34.77.68.11.37-.01.78-.33 1.12l-2.75 2.92c-.38.41-.99.66-1.53.66h.01Zm-3.84-2.13 3.78.89c.14.04.5-.07.68-.26l2.59-2.75-3.78-.89c-.14-.03-.5.07-.69.26l-2.58 2.75Z"/><path fill="#000" d="m150.097 105.136-1.86 1.97 14.25 46.7 1.83-1.94-14.22-46.73Zm3.715 1.907-1.186.362 7.354 24.082 1.186-.362-7.354-24.082Zm8.673 28.757-1.186.362 2.436 7.976 1.186-.362-2.436-7.976Z"/><path fill="#F15B25" d="M146.447 107.807c-4.63-1.91-8.46-4.37-8.5-4.39l.67-1.04s3.78 2.42 8.3 4.29l-.47 1.14Z"/><path fill="#ECECEC" d="m160.497 205.237-1.19.679c-.12.07-.33.06-.47-.02l-1.12-.649c-.14-.08-.16-.201-.03-.271l1.19-.679c.12-.07.33-.06.47.02l1.12.65c.14.08.16.2.03.27Zm2.76 1.59-1.19.69c-.12.07-.33.06-.47-.02l-1.12-.65c-.14-.08-.16-.2-.03-.27l1.19-.69c.12-.07.33-.06.47.02l1.12.65c.14.08.16.2.03.27Zm-2.91 1.68-1.19.69c-.12.07-.33.06-.47-.02l-1.12-.65c-.14-.08-.16-.2-.03-.27l1.19-.69c.12-.07.33-.06.47.02l1.12.65c.14.08.16.2.03.27Zm5.67-.08-1.19.69c-.12.07-.33.06-.47-.02l-1.12-.65c-.14-.08-.16-.2-.03-.27l1.19-.69c.12-.07.33-.06.47.02l1.12.65c.14.08.16.2.03.27Zm-2.91 1.68-1.19.679c-.12.07-.33.061-.47-.019l-1.12-.651c-.14-.08-.16-.199-.03-.269l1.19-.681c.12-.07.33-.059.47.021l1.12.649c.14.08.16.201.03.271Zm5.83 0-1.19.679c-.12.07-.33.061-.47-.019l-1.12-.651c-.14-.08-.16-.199-.03-.269l1.19-.681c.12-.07.33-.059.47.021l1.12.649c.14.08.16.201.03.271Zm-2.9 1.679-1.19.68c-.12.07-.33.06-.47-.02l-1.12-.65c-.14-.08-.16-.2-.03-.27l1.19-.68c.12-.07.33-.06.47.02l1.12.65c.14.08.16.2.03.27Zm5.67-.079-1.19.69c-.12.07-.33.06-.47-.02l-1.12-.65c-.14-.08-.16-.2-.03-.27l1.19-.68c.12-.07.33-.06.47.02l1.12.65c.14.08.16.2.03.27v-.01Zm-2.91 1.68-1.19.69c-.12.07-.33.06-.47-.02l-1.12-.65c-.14-.08-.16-.2-.03-.27l1.19-.68c.12-.07.33-.06.47.02l1.12.65c.14.08.16.2.03.27v-.01Zm5.67-.09-1.19.679c-.12.07-.33.061-.47-.019l-1.12-.651c-.14-.08-.16-.2-.03-.27l1.19-.679c.12-.07.33-.06.47.02l1.12.649c.14.08.16.201.03.271Zm-2.91 1.679-1.19.681c-.12.07-.33.06-.47-.02l-1.12-.65c-.14-.08-.16-.2-.03-.27l1.19-.681c.12-.07.33-.06.47.02l1.12.651c.14.08.16.199.03.269Zm5.83.011-1.19.689c-.12.07-.33.061-.47-.019l-1.12-.651c-.14-.08-.16-.199-.03-.269l1.19-.69c.12-.07.33-.06.47.02l1.12.65c.14.08.16.2.03.27Zm-2.91 1.679-1.19.681c-.12.07-.33.06-.47-.02l-1.12-.651c-.14-.08-.16-.199-.03-.269l1.19-.681c.12-.07.33-.059.47.021l1.12.649c.14.08.16.2.03.27Zm5.82-3.359-1.19.68c-.12.07-.33.06-.47-.02l-1.12-.65c-.14-.08-.16-.2-.03-.27l1.19-.68c.12-.07.33-.06.47.02l1.12.65c.14.08.16.2.03.27Zm2.91-1.68-1.19.69c-.12.07-.33.06-.47-.02l-1.12-.65c-.14-.08-.16-.2-.03-.27l1.19-.69c.12-.07.33-.06.47.02l1.12.65c.14.08.16.2.03.27Zm2.9-1.68-1.19.69c-.12.07-.33.06-.47-.02l-1.12-.65c-.14-.08-.16-.2-.03-.27l1.19-.69c.12-.07.33-.06.47.02l1.12.65c.14.08.16.2.03.27Zm2.91-1.68-1.19.68c-.12.07-.33.06-.47-.02l-1.12-.65c-.14-.08-.16-.2-.03-.27l1.19-.68c.12-.07.33-.06.47.02l1.12.65c.14.08.16.2.03.27Zm2.91-1.68-1.19.69c-.12.07-.33.06-.47-.02l-1.12-.65c-.14-.08-.16-.2-.03-.27l1.19-.68c.12-.07.33-.06.47.02l1.12.65c.14.08.16.2.03.27v-.01Zm2.91-1.681-1.19.68c-.12.07-.33.06-.47-.02l-1.12-.65c-.14-.08-.16-.2-.03-.27l1.19-.68c.12-.07.33-.06.47.02l1.12.65c.14.08.16.2.03.27Zm2.91-1.68-1.19.681c-.12.07-.33.06-.47-.02l-1.12-.65c-.14-.08-.16-.2-.03-.27l1.19-.681c.12-.07.33-.06.47.02l1.12.651c.14.08.16.199.03.269Zm2.91-1.679-1.19.679c-.12.07-.33.061-.47-.019l-1.12-.651c-.14-.08-.16-.2-.03-.27l1.19-.679c.12-.07.33-.06.47.02l1.12.649c.14.08.16.201.03.271Zm2.91-1.68-1.19.68c-.12.07-.33.06-.47-.02l-1.12-.65c-.14-.08-.16-.2-.03-.27l1.19-.68c.12-.07.33-.06.47.02l1.12.65c.14.08.16.2.03.27Zm-23.42 16.71-1.19.68c-.12.07-.33.06-.47-.02l-1.12-.65c-.14-.08-.16-.2-.03-.27l1.19-.68c.12-.07.33-.06.47.02l1.12.65c.14.08.16.2.03.27Zm2.91-1.68-1.19.69c-.12.07-.33.06-.47-.02l-1.12-.65c-.14-.08-.16-.2-.03-.27l1.19-.69c.12-.07.33-.06.47.02l1.12.65c.14.08.16.2.03.27Zm2.91-1.68-1.19.68c-.12.07-.33.06-.47-.02l-1.12-.65c-.14-.08-.16-.2-.03-.27l1.19-.68c.12-.07.33-.06.47.02l1.12.65c.14.08.16.2.03.27Zm2.9-1.681-1.19.69c-.12.07-.33.06-.47-.02l-1.12-.65c-.14-.08-.16-.2-.03-.27l1.19-.69c.12-.07.33-.06.47.02l1.12.65c.14.08.16.2.03.27Zm2.91-1.679-1.19.69c-.12.07-.33.059-.47-.021l-1.12-.649c-.14-.08-.16-.2-.03-.27l1.19-.691c.12-.07.33-.059.47.021l1.12.649c.14.08.16.201.03.271Zm2.91-1.68-1.19.68c-.12.07-.33.06-.47-.02l-1.12-.65c-.14-.08-.16-.2-.03-.27l1.19-.68c.12-.07.33-.06.47.02l1.12.65c.14.08.16.2.03.27Zm2.91-1.67-1.19.69c-.12.07-.33.06-.47-.02l-1.12-.65c-.14-.08-.16-.2-.03-.27l1.19-.69c.12-.07.33-.06.47.02l1.12.65c.14.08.16.2.03.27Zm2.91-1.68-1.19.68c-.12.07-.33.06-.47-.02l-1.12-.65c-.14-.08-.16-.2-.03-.27l1.19-.68c.12-.07.33-.06.47.02l1.12.65c.14.08.16.2.03.27Zm2.91-1.68-1.19.68c-.12.07-.33.06-.47-.02l-1.12-.65c-.14-.08-.16-.2-.03-.27l1.19-.68c.12-.07.33-.06.47.02l1.12.65c.14.08.16.2.03.27Z"/><path fill="#fff" d="m161.877 118.677 23.74-14.56h.02l14.19 8.19s.01.03 0 .04l-23.74 14.56h-.02l-14.19-8.19s-.01-.03 0-.04Z"/><path fill="#000" d="m176.097 127.727-.39-.21-14.53-8.39-.03-.82.36-.24 24.1-14.78.39.21 14.54 8.4.02.83-.36.23-24.1 14.78v-.01Zm-12.86-9.06 12.82 7.4 22.4-13.73-12.82-7.4-22.4 13.73Zm12.87 92.5 23.74-14.56v-17.44s-.02-.03-.03-.02l-23.74 14.56s-.01.01-.01.02v17.42s.02.03.03.02h.01Z"/><path fill="#000" d="m176.117 211.987-.74-.41v-.43l-.01-17.83.37-.22 24.08-14.77.75.41v.43l.01 17.83-.37.22-24.08 14.76-.01.01Zm.67-17.87v15.79l22.36-13.71v-15.79l-22.36 13.71Z"/><path fill="#000" d="m184.887 198.767 23.74-14.56v-13.81s-.02-.03-.03-.02l-23.74 14.56v13.81s.02.03.03.02Z"/><path fill="#000" d="m184.897 199.597-.74-.41v-.43l-.01-14.17.33-.23 24.12-14.79.75.41v.43l.01 14.2-.37.22-24.08 14.76-.01.01Zm.67-14.24v12.16l22.36-13.71v-12.16l-22.36 13.71Z"/><path fill="#fff" d="m143.427 161.037 23.78-14.59 17.57 10.15-23.78 14.58-17.57-10.14Z"/><path fill="#000" d="m161.007 172.007-18.98-10.96 25.17-15.43 18.98 10.96-25.17 15.43Zm-16.19-10.99 16.17 9.33 22.4-13.73-16.17-9.33-22.4 13.73Z"/><path fill="#000" d="m143.427 161.037 23.78-14.59-5.96-7.69-11.9 3.08-7.95 14.76 2.03 4.44Z"/><path fill="#000" d="m143.107 162.067-2.5-5.49 8.26-15.35 12.66-3.28 6.73 8.7-25.15 15.42Zm-.91-5.44 1.54 3.38 22.42-13.74-5.19-6.7-11.15 2.88-7.63 14.18h.01Z"/><path fill="#F15B25" d="m184.827 198.777-8.72-5.04s-.03 0-.03.02v17.39s-.02.03-.03.02l-15.04-8.68s-.01-.01-.01-.02v-17.44s0-.01-.01-.02l-31.13-17.97s-.01-.01-.01-.02v-12.38l31.98-35.92h.03l14.2 8.2s.01.01.01.02v52.95s0 .01.01.02l8.77 5.06s.01.01.01.02v13.79s-.02.03-.03.02v-.02Zm-23.86-27.61s.03 0 .03-.02v-14.26c0-2.38.08-5.79.25-10.23.17-4.44.3-6.99.4-7.67l-.4-.23a32.464 32.464 0 0 1-4.44 6.66l-13.36 15.6v.03l17.52 10.12Z"/><path fill="#000" d="m176.047 211.997-.38-.21-15.38-8.88v-.43l-.01-17.04-31.14-17.98v-.43l-.01-12.67.21-.22 32.35-36.34 15.08 8.7v.43l.01 52.55 8.78 5.07v.43l.01 14.19-.7.43-.4-.2-7.69-4.44v16.61l-.73.43Zm-14.34-9.92 13.65 7.88v-16.61l.73-.43.38.21 7.68 4.43v-12.19l-8.78-5.07v-.43l-.01-52.55-13.37-7.72-31.43 35.31v11.71l31.14 17.98v.43l.01 17.04v.01Zm-.73-30.08-.37-.21-17.81-10.28-.13-.66.21-.27 13.37-15.62c1.69-1.95 3.15-4.14 4.35-6.52l.34-.67 1.47.85-.07.48c-.1.64-.23 3.19-.39 7.59-.17 4.42-.25 7.85-.25 10.21v14.68l-.73.43.01-.01Zm-16.45-11.14 15.76 9.1v-13.06c0-2.37.08-5.82.25-10.26.09-2.39.17-4.22.24-5.52a32.855 32.855 0 0 1-3.43 4.78l-12.82 14.97v-.01Z"/><path fill="#000" d="m176.257 179.767 23.53-14.43s.06-.06.06-.11v-52.69c0-.1-.11-.16-.19-.11l-23.53 14.43s-.06.06-.06.11v52.69c0 .1.11.16.19.11Z"/><path fill="#000" d="M176.197 180.497a.85.85 0 0 1-.84-.84v-52.69c0-.29.15-.56.4-.71l23.53-14.43c.26-.16.58-.17.85-.02.26.15.43.43.43.73v52.69c0 .29-.15.57-.41.72l-23.53 14.43a.833.833 0 0 1-.44.12h.01Zm.59-53.19v51.3l22.36-13.71v-51.3l-22.36 13.71Z"/><path fill="#fff" d="m176.107 179.867 23.74-14.56h.02l8.75 5.05s.01.03 0 .04l-23.74 14.56h-.02l-8.75-5.05s-.01-.03 0-.04Z"/><path fill="#000" d="m184.887 185.777-.39-.21-9.1-5.25-.02-.82.36-.24 24.1-14.78.39.21 9.1 5.26v.83l-.35.23-24.09 14.77Zm-7.42-5.91 7.38 4.26 22.4-13.73-7.38-4.26-22.4 13.73Z"/><path fill="#F15B25" d="m197.363 190.319-10.704 6.552.747 1.22 10.704-6.552-.747-1.22Zm.473-38.338-20.596 12.612.747 1.219 20.596-12.611-.747-1.22Zm-14.193-3.196-6.396 3.916.746 1.22 6.397-3.916-.747-1.22Z"/><path fill="#ECECEC" d="m110.917 198.166-1.19.681c-.12.07-.33.06-.47-.02l-1.12-.651c-.14-.08-.16-.199-.03-.269l1.19-.681c.12-.07.33-.059.47.021l1.12.649c.14.08.16.2.03.27Zm2.76 1.601-1.19.68c-.12.07-.33.06-.47-.02l-1.12-.65c-.14-.08-.16-.2-.03-.27l1.19-.68c.12-.07.33-.06.47.02l1.12.65c.14.08.16.2.03.27Zm-2.91 1.68-1.19.69c-.12.07-.33.06-.47-.02l-1.12-.65c-.14-.08-.16-.2-.03-.27l1.19-.69c.12-.07.33-.06.47.02l1.12.65c.14.08.16.2.03.27Zm5.67-.09-1.19.68c-.12.07-.33.06-.47-.02l-1.12-.65c-.14-.08-.16-.2-.03-.27l1.19-.69c.12-.07.33-.06.47.02l1.12.65c.14.08.16.2.03.27v.01Zm-2.91 1.679-1.19.68c-.12.07-.33.06-.47-.02l-1.12-.65c-.14-.08-.16-.2-.03-.27l1.19-.68c.12-.07.33-.06.47.02l1.12.65c.14.08.16.2.03.27Zm5.83.011-1.19.69c-.12.07-.33.06-.47-.02l-1.12-.65c-.14-.08-.16-.2-.03-.27l1.19-.69c.12-.07.33-.06.47.02l1.12.649c.14.08.16.201.03.271Zm-2.91 1.679-1.19.681c-.12.07-.33.06-.47-.02l-1.12-.65c-.14-.08-.16-.2-.03-.27l1.19-.681c.12-.07.33-.06.47.02l1.12.651c.14.08.16.199.03.269Zm5.67-.089-1.19.68c-.12.07-.33.06-.47-.02l-1.12-.65c-.14-.08-.16-.2-.03-.27l1.19-.68c.12-.07.33-.06.47.02l1.12.65c.14.08.16.2.03.27Zm-2.91 1.68-1.19.68c-.12.07-.33.06-.47-.02l-1.12-.65c-.14-.08-.16-.2-.03-.27l1.19-.68c.12-.07.33-.06.47.02l1.12.65c.14.08.16.2.03.27Zm5.67-.08-1.19.679c-.12.07-.33.06-.47-.02l-1.12-.649c-.14-.08-.16-.201-.03-.271l1.19-.679c.12-.07.33-.06.47.02l1.12.65c.14.08.16.2.03.27Zm-2.91 1.679-1.19.681c-.12.07-.33.06-.47-.02l-1.12-.651c-.14-.08-.16-.199-.03-.269l1.19-.681c.12-.07.33-.059.47.021l1.12.649c.14.08.16.2.03.27Zm-19.5-14.709-1.19.69c-.12.07-.33.06-.47-.02l-1.12-.65c-.14-.08-.16-.2-.03-.27l1.19-.69c.12-.07.33-.06.47.02l1.12.65c.14.08.16.2.03.27Zm2.93 1.69-1.19.68c-.12.07-.33.06-.47-.02l-1.12-.65c-.14-.08-.16-.2-.03-.27l1.19-.68c.12-.07.33-.06.47.02l1.12.65c.14.08.16.2.03.27Zm-2.91 1.68-1.19.68c-.12.07-.33.06-.47-.02l-1.12-.65c-.14-.08-.16-.2-.03-.27l1.19-.68c.12-.07.33-.06.47.02l1.12.65c.14.08.16.2.03.27Zm5.67-.09-1.19.679c-.12.07-.33.06-.47-.02l-1.12-.649c-.14-.08-.16-.201-.03-.271l1.19-.679c.12-.07.33-.06.47.02l1.12.65c.14.08.16.2.03.27Zm-2.91 1.679-1.19.681c-.12.07-.33.06-.47-.02l-1.12-.651c-.14-.08-.16-.199-.03-.269l1.19-.681c.12-.07.33-.059.47.021l1.12.649c.14.08.16.2.03.27Zm2.76 1.601-1.19.68c-.12.07-.33.06-.47-.02l-1.12-.65c-.14-.08-.16-.2-.03-.27l1.19-.68c.12-.07.33-.06.47.02l1.12.65c.14.08.16.2.03.27Zm19.79 8.149-1.19.691c-.12.07-.33.059-.47-.021l-1.12-.649c-.14-.08-.16-.201-.03-.271l1.19-.69c.12-.07.33-.059.47.021l1.12.649c.14.08.16.2.03.27Zm-2.9 1.681-1.19.69c-.12.07-.33.06-.47-.02l-1.12-.65c-.14-.08-.16-.2-.03-.27l1.19-.69c.12-.07.33-.06.47.02l1.12.65c.14.08.16.2.03.27Zm5.81-3.36-1.19.679c-.12.07-.33.06-.47-.02l-1.12-.649c-.14-.08-.16-.201-.03-.271l1.19-.679c.12-.07.33-.06.47.02l1.12.65c.14.08.16.2.03.27Zm2.91-1.68-1.19.69c-.12.07-.33.06-.47-.02l-1.12-.65c-.14-.08-.16-.2-.03-.27l1.19-.68c.12-.07.33-.06.47.02l1.12.65c.14.08.16.2.03.27v-.01Zm2.91-1.67-1.19.68c-.12.07-.33.06-.47-.02l-1.12-.65c-.14-.08-.16-.2-.03-.27l1.19-.68c.12-.07.33-.06.47.02l1.12.65c.14.08.16.2.03.27Zm2.91-1.68-1.19.68c-.12.07-.33.06-.47-.02l-1.12-.65c-.14-.08-.16-.2-.03-.27l1.19-.68c.12-.07.33-.06.47.02l1.12.65c.14.08.16.2.03.27Zm2.91-1.681-1.19.68c-.12.07-.33.06-.47-.02l-1.12-.65c-.14-.08-.16-.2-.03-.27l1.19-.68c.12-.07.33-.06.47.02l1.12.65c.14.08.16.2.03.27Zm2.91-1.679-1.19.68c-.12.07-.33.06-.47-.02l-1.12-.65c-.14-.08-.16-.2-.03-.27l1.19-.68c.12-.07.33-.06.47.02l1.12.65c.14.08.16.2.03.27Zm2.91-1.681-1.19.681c-.12.07-.33.06-.47-.02l-1.12-.651c-.14-.08-.16-.199-.03-.269l1.19-.681c.12-.07.33-.059.47.021l1.12.649c.14.08.16.2.03.27Zm2.9-1.679-1.19.689c-.12.07-.33.061-.47-.019l-1.12-.651c-.14-.08-.16-.199-.03-.269l1.19-.69c.12-.07.33-.06.47.02l1.12.65c.14.08.16.2.03.27Zm2.91-1.68-1.19.68c-.12.07-.33.06-.47-.02l-1.12-.65c-.14-.08-.16-.2-.03-.27l1.19-.68c.12-.07.33-.06.47.02l1.12.65c.14.08.16.2.03.27Zm-23.41 16.71-1.19.69c-.12.07-.33.06-.47-.02l-1.12-.65c-.14-.08-.16-.2-.03-.27l1.19-.69c.12-.07.33-.06.47.02l1.12.65c.14.08.16.2.03.27Zm2.9-1.68-1.19.69c-.12.07-.33.06-.47-.02l-1.12-.65c-.14-.08-.16-.2-.03-.27l1.19-.69c.12-.07.33-.06.47.02l1.12.65c.14.08.16.2.03.27Zm2.91-1.681-1.19.68c-.12.07-.33.06-.47-.02l-1.12-.65c-.14-.08-.16-.2-.03-.27l1.19-.68c.12-.07.33-.06.47.02l1.12.65c.14.08.16.2.03.27Zm2.91-1.68-1.19.69c-.12.07-.33.06-.47-.02l-1.12-.649c-.14-.08-.16-.201-.03-.271l1.19-.69c.12-.07.33-.06.47.02l1.12.651c.14.08.16.199.03.269Zm2.91-1.679-1.19.679c-.12.07-.33.061-.47-.019l-1.12-.651c-.14-.08-.16-.2-.03-.27l1.19-.679c.12-.07.33-.06.47.02l1.12.649c.14.08.16.201.03.271Zm2.91-1.68-1.19.68c-.12.07-.33.06-.47-.02l-1.12-.65c-.14-.08-.16-.2-.03-.27l1.19-.68c.12-.07.33-.06.47.02l1.12.65c.14.08.16.2.03.27Zm2.91-1.68-1.19.69c-.12.07-.33.06-.47-.02l-1.12-.65c-.14-.08-.16-.2-.03-.27l1.19-.68c.12-.07.33-.06.47.02l1.12.65c.14.08.16.2.03.27v-.01Zm2.91-1.68-1.19.68c-.12.07-.33.06-.47-.02l-1.12-.65c-.14-.08-.16-.2-.03-.27l1.19-.68c.12-.07.33-.06.47.02l1.12.65c.14.08.16.2.03.27Zm2.91-1.68-1.19.69c-.12.07-.33.06-.47-.02l-1.12-.65c-.14-.08-.16-.2-.03-.27l1.19-.69c.12-.07.33-.06.47.02l1.12.65c.14.08.16.2.03.27Zm-2.71-7.98h-1.39s-.04 0-.06-.02l-20.86-12.04c-1.25-.72-3.14-.8-4.22-.17l-20.99 12.12s-.03.01-.05.01l-1.56.08c-.06 0-.11.05-.11.11v1.35h.01c-.04.51.3 1.04 1.02 1.45l21.38 12.34c1.25.72 3.14.8 4.22.17l21.98-12.69c.46-.26.68-.61.71-.98v-1.05l-.09-.7.01.02Z"/><path fill="#000" d="M126.677 204.557c-.93 0-1.91-.23-2.69-.68l-21.38-12.34c-.75-.43-1.21-1.02-1.31-1.65h-.02l-.01-1.68c0-.39.31-.71.7-.73l1.44-.07 20.89-12.06c1.27-.74 3.39-.66 4.84.17l20.74 11.97h1.79l.19 1.32v1.05c-.06.64-.43 1.15-1.03 1.51l-21.98 12.69c-.58.34-1.35.5-2.15.5h-.02Zm-24.15-15.3v.35c-.03.27.24.6.7.87l21.38 12.34c1.06.61 2.71.69 3.6.18l21.99-12.69c.18-.1.39-.27.41-.49v-1.07h-1.02l-.2-.1-20.86-12.04c-1.06-.61-2.71-.69-3.6-.17l-21.12 12.19-.2.02-1.08.06v.55Z"/><path fill="#fff" d="m150.507 189.227-21.98 12.69c-1.08.62-2.97.55-4.22-.17l-21.38-12.34c-1.25-.72-1.38-1.81-.3-2.44l21.98-12.69c1.08-.62 2.97-.55 4.22.17l21.38 12.34c1.25.72 1.38 1.81.3 2.44Z"/><path fill="#000" d="M126.677 202.957c-.93 0-1.91-.23-2.69-.68l-21.38-12.34c-.85-.49-1.34-1.19-1.34-1.91 0-.64.37-1.21 1.04-1.59l21.99-12.69c1.27-.74 3.39-.66 4.84.17l21.38 12.34c.85.49 1.34 1.19 1.34 1.91 0 .64-.37 1.21-1.04 1.59l-21.99 12.69c-.58.34-1.35.5-2.15.5v.01Zm-.25-28.49c-.58 0-1.12.11-1.52.34l-21.99 12.69c-.16.09-.42.28-.42.52 0 .21.19.53.72.84l21.38 12.34c1.06.61 2.71.69 3.6.17l21.99-12.69c.16-.09.42-.28.42-.52 0-.21-.19-.53-.72-.84l-21.38-12.34c-.59-.34-1.36-.52-2.08-.52v.01Z"/><path fill="#F15B25" d="M127.037 202.507h-.95v1.42h.95v-1.42Zm-22.77-12.4h-.95v1.42h.95v-1.42Zm3.03 1.61h-.95v1.42h.95v-1.42Zm42.56-1.75h-.95v1.42h.95v-1.42Zm-8.05-5.55-.07-.271-9.26-34.849h-11.82l-9.33 35.12-.03.13c-.87 2.9.59 5.859 4.32 8.099 6.05 3.63 15.86 3.63 21.9 0 3.73-2.24 5.15-5.329 4.28-8.229h.01Z"/><path fill="#000" d="M126.577 195.977c-4.08 0-8.16-.93-11.27-2.8-3.89-2.34-5.57-5.55-4.59-8.8l.02-.09 9.46-35.6h12.77l9.45 35.58c.98 3.29-.73 6.62-4.56 8.92-3.11 1.86-7.19 2.8-11.27 2.8l-.01-.01Zm-5.43-46.06-9.24 34.77c-.81 2.71.66 5.4 4.04 7.43 5.86 3.52 15.41 3.52 21.27 0 3.32-2 4.82-4.81 4.01-7.52l-.07-.31-9.14-34.37h-10.87Z"/><path fill="#fff" d="M130.757 146.787c2.31 1.39 2.31 3.63 0 5.02-2.31 1.39-6.05 1.39-8.35 0-2.31-1.39-2.31-3.63 0-5.02 2.31-1.39 6.05-1.39 8.35 0Z"/><path fill="#000" d="M126.577 153.467c-1.62 0-3.23-.38-4.5-1.13-1.31-.79-2.03-1.86-2.03-3.04s.72-2.25 2.03-3.04c2.52-1.51 6.47-1.51 8.99 0 1.31.79 2.03 1.86 2.03 3.04s-.72 2.25-2.03 3.04c-1.26.76-2.88 1.13-4.5 1.13h.01Zm0-7.11c-1.4 0-2.8.32-3.86.96-.92.55-1.43 1.26-1.43 1.98s.51 1.42 1.43 1.98c2.13 1.28 5.59 1.28 7.72 0 .92-.55 1.43-1.26 1.43-1.98s-.51-1.42-1.43-1.98c-1.06-.64-2.46-.96-3.86-.96Z"/><path fill="#F15B25" d="M129.197 147.997c-1.46-.68-3.82-.68-5.28 0-1.46.68-1.46 1.78 0 2.46 1.46.68 3.82.68 5.28 0 1.46-.68 1.46-1.78 0-2.46Z"/><path fill="#000" d="M126.557 151.587c-1.05 0-2.09-.19-2.9-.57-1.26-.59-1.45-1.37-1.45-1.79 0-.42.19-1.2 1.45-1.79 1.63-.76 4.18-.76 5.8 0 1.26.59 1.45 1.38 1.45 1.79 0 .41-.19 1.2-1.45 1.79-.81.38-1.86.57-2.9.57Zm0-3.48c-.87 0-1.73.15-2.38.45-.51.24-.74.51-.74.67 0 .16.23.43.74.67 1.29.6 3.47.6 4.76 0 .51-.24.74-.51.74-.67 0-.16-.23-.43-.74-.67-.65-.3-1.51-.45-2.38-.45Z"/><path fill="#fff" d="m136.717 165.207-1.97-7.4c.32 1.47-.45 3.02-2.33 4.15-3.22 1.93-8.43 1.93-11.65 0-1.89-1.13-2.66-2.68-2.33-4.15l-1.38 5.24-.64 2.45c-.55 1.92.4 3.97 2.88 5.46 4.05 2.43 10.61 2.43 14.66 0 2.6-1.56 3.48-3.7 2.78-5.74l-.02-.01Z"/><path fill="#000" d="M126.597 173.377c-2.77 0-5.54-.63-7.65-1.9-2.63-1.58-3.8-3.88-3.15-6.16l2.14-8.13h1.24l-.16.75c-.28 1.27.47 2.54 2.05 3.49 3.04 1.82 7.98 1.82 11.01 0 1.58-.95 2.33-2.22 2.05-3.49l-.17-.75h1.24l.13.46 1.97 7.38c.81 2.41-.33 4.82-3.06 6.45-2.11 1.27-4.88 1.9-7.65 1.9h.01Zm-8.26-12.86-1.35 5.14c-.5 1.75.45 3.48 2.6 4.77 3.87 2.32 10.16 2.32 14.02 0 2.23-1.34 3.15-3.17 2.52-5.01v-.04l-1.31-4.86c-.46.75-1.17 1.43-2.1 1.99-3.39 2.03-8.9 2.03-12.29 0-.93-.56-1.64-1.23-2.09-1.98v-.01Z"/><path fill="#fff" d="M140.837 180.767h.01l-.11-.39s0-.04-.02-.06l-1.83-6.76c.43 2.19-.74 4.47-3.54 6.15-4.85 2.91-12.72 2.91-17.57 0-2.8-1.68-3.97-3.96-3.54-6.15l-1.89 7.21h.02c-.61 2.6.73 5.33 4.06 7.33 5.62 3.38 14.74 3.38 20.37 0 3.33-2 4.67-4.73 4.06-7.33h-.02Z"/><path fill="#000" d="M126.597 191.227c-3.8 0-7.61-.87-10.5-2.61-3.12-1.87-4.75-4.54-4.47-7.24h-.07l.19-.78 2.01-7.67h1.23l-.14.74c-.4 2.02.79 4.03 3.26 5.5 4.67 2.8 12.27 2.8 16.93 0 2.47-1.48 3.65-3.49 3.26-5.5l-.14-.74h1.22l.13.46 2.16 7.99h-.09c.28 2.7-1.35 5.36-4.47 7.24-2.9 1.74-6.7 2.61-10.5 2.61h-.01Zm-13.57-10.65-.07.32c-.57 2.44.8 4.87 3.78 6.66 5.44 3.27 14.29 3.27 19.73 0 2.97-1.78 4.35-4.21 3.78-6.66l-.09-.37-1.04-3.86c-.61 1.34-1.78 2.56-3.44 3.56-5.02 3.01-13.19 3.01-18.21 0-1.64-.99-2.81-2.2-3.42-3.53l-1.01 3.87-.01.01Z"/><path fill="#fff" d="m121.839 155.119-6.2 28.176 1.211.266 6.2-28.176-1.211-.266Z"/><path fill="#F15B25" d="m120.069 163.164-.572 2.598 1.211.267.572-2.598-1.211-.267Zm-3.798 17.266-.632 2.871 1.211.267.632-2.872-1.211-.266Z"/><path fill="#000" d="M123.997 148.007c-1.38.64-1.38 1.68 0 2.33.31.14.66.25 1.03.33l.37-3.05c-.51.08-1 .2-1.41.39h.01Z"/><path fill="#000" d="m125.567 151.407-.66-.14c-.46-.1-.84-.22-1.17-.37-1.21-.56-1.39-1.32-1.39-1.72 0-.4.18-1.16 1.39-1.72.44-.2.97-.35 1.57-.44l.8-.12-.55 4.53.01-.02Zm-1.31-2.84c-.53.25-.68.5-.68.6 0 .1.14.35.68.6.08.04.16.07.25.1l.18-1.47c-.15.05-.3.1-.43.16v.01Zm8.833 10.378-1.209.276 1.668 7.322 1.209-.275-1.668-7.323Z"/><path fill="#F15B25" d="m248.147 145.156-21.44-12.38c-1.22-.71-2.33-.8-3.16-.38l-.84.51-6.17 3.801s-.05.059-.03.089c.31.65 3.22 6.74 3.49 7.86.11.47 1.02 5.131 2.08 10.551v2.729c0 1.52.55 3.21 1.44 4.7v.02c1.1 5.65 2.03 10.48 2.05 10.6v.01l3.18 7.5s.07.06.11.04l7.26-4.23s.05-.06.03-.09l-.54-1.529v-.011c-.14-.73-.25-1.55-.3-2.37l9.25 10.29s.07.03.1.01l6.76-4.18s.07-.04.1-.06c.8-.5 1.29-1.52 1.29-2.95v-22.45c0-2.97-2.1-6.61-4.67-8.1l.01.02Z"/><path fill="#000" d="M244.627 183.617c-.22 0-.43-.09-.59-.26l-7.74-8.61s0 .05.01.07l.51 1.44c.13.36-.02.76-.35.95l-7.53 4.39-.37-.09a.81.81 0 0 1-.48-.44l-3.22-7.65-2.04-10.51c-.95-1.61-1.48-3.38-1.48-4.96v-2.65c-1.22-6.25-1.97-10.06-2.06-10.46-.18-.74-1.9-4.52-3.44-7.72a.783.783 0 0 1 .31-1.01l7-4.31c1.14-.57 2.5-.43 3.89.37l21.44 12.38c2.77 1.6 5.03 5.51 5.03 8.71v22.45c0 1.64-.58 2.9-1.62 3.56-.04.03-.09.05-.13.08l-6.73 4.16c-.13.08-.27.12-.42.12l.01-.01Zm-10.13-13.01 10.25 11.4 6.41-3.96c.62-.39.96-1.22.96-2.35v-22.45c0-2.7-1.98-6.13-4.32-7.48l-21.44-12.38c-.96-.55-1.84-.68-2.48-.36l-6.47 3.99c.85 1.79 3.04 6.44 3.29 7.49.14.58 1.36 6.87 2.08 10.57v.15l.01 2.72c0 1.33.49 2.91 1.34 4.34l.08.13.03.18 2.03 10.48 2.87 6.77 6.18-3.6-.39-1.13c-.16-.84-.27-1.69-.31-2.48l-.11-2.02-.01-.01Z"/><path fill="#fff" d="m248.127 145.157-20.09-11.56-10.11 6.34 21.51 11.32 4.52.72 6.96-4.13c-.78-1.12-1.74-2.09-2.79-2.69Z"/><path fill="#000" d="m244.097 152.717-4.99-.83-22.61-11.9 11.52-7.23 20.47 11.77c1.1.63 2.14 1.64 3.02 2.9l.44.63-7.83 4.66h-.02Zm-4.44-2.15 4.15.66 6.05-3.6c-.65-.8-1.36-1.44-2.1-1.86l-19.72-11.34-8.69 5.46 20.31 10.69v-.01Zm6.04 5.1s-8.68 2.049-9.24 2.259c-.47.17-8.97 7.031-11.87 10.241.57 2.97.97 5.02.99 5.1v.01l3.18 7.5s.07.06.11.04l7.26-4.23s.05-.06.03-.09l-.54-1.53v-.01c-.14-.73-.25-1.55-.3-2.37l9.25 10.29s.07.03.1.01l6.76-4.18s.07-.041.1-.061c.8-.5 1.29-1.519 1.29-2.949v-22.45c0-.55-.07-1.12-.21-1.7l-6.92 4.11.01.01Z"/><path fill="#F15B25" d="m251.888 154.766-5.143 3.11.492.813 5.142-3.111-.491-.812Zm-.167 20.132-5.142 3.11.491.813 5.143-3.111-.492-.812Zm-10.424-25.461-21.48-12.4c-2.56-1.48-4.64-.28-4.64 2.68v22.49c0 2.96 2.08 6.55 4.64 8.03l2.45 1.41c.44.25.82.83.91 1.38.26 1.65 1.23 5.22 4.71 7.81.68.5 1.22.07 1.02-.8-.24-1.06-.49-2.45-.5-3.78 0-.59.42-.82.93-.53l11.96 6.91c2.56 1.48 4.64.28 4.64-2.68v-22.49c0-2.96-2.08-6.55-4.64-8.03Z"/><path fill="#000" d="M243.367 183.987c-.76 0-1.59-.25-2.43-.73l-11.81-6.82c.03 1.29.27 2.57.47 3.44.17.74-.02 1.37-.52 1.69-.47.3-1.07.24-1.62-.16-3.62-2.69-4.68-6.33-4.99-8.27-.05-.34-.31-.73-.56-.87l-2.45-1.41c-2.8-1.62-4.99-5.41-4.99-8.65v-22.49c0-1.69.61-2.98 1.71-3.62 1.11-.64 2.52-.52 3.99.32l21.48 12.4c2.8 1.62 4.99 5.41 4.99 8.65v22.49c0 1.7-.61 2.98-1.71 3.62-.47.27-1 .41-1.56.41Zm-14.46-9.1c.25 0 .52.08.78.22l11.96 6.91c1.01.58 1.92.7 2.57.32.65-.37 1-1.22 1-2.38v-22.49c0-2.73-1.92-6.05-4.28-7.41l-21.48-12.4c-1.01-.58-1.92-.7-2.56-.32-.65.37-1 1.22-1 2.38v22.49c0 2.73 1.92 6.05 4.28 7.41l2.45 1.41c.63.36 1.13 1.12 1.25 1.88.27 1.7 1.2 4.89 4.33 7.27-.23-1-.5-2.49-.51-3.92 0-.54.22-.98.62-1.21.18-.11.39-.16.6-.16h-.01Z"/><path fill="#F15B25" d="M237.492 171.84c3.831-2.212 3.832-9.383.002-16.017s-10.041-10.218-13.872-8.006c-3.831 2.211-3.832 9.382-.002 16.016 3.83 6.634 10.041 10.219 13.872 8.007Z"/><path fill="#fff" d="M234.937 172.976c-1.43 0-3-.469-4.62-1.409-5.54-3.2-10.05-11.011-10.05-17.401 0-3.2 1.1-5.6 3.11-6.76 2.01-1.16 4.64-.909 7.41.691 5.54 3.2 10.05 10.999 10.05 17.399 0 3.2-1.1 5.6-3.11 6.76-.83.48-1.78.72-2.79.72Zm-8.76-25.34c-.85 0-1.63.2-2.32.59-1.7.98-2.64 3.09-2.64 5.94 0 6.09 4.29 13.53 9.57 16.58 2.47 1.42 4.76 1.67 6.46.69 1.7-.98 2.64-3.09 2.64-5.94 0-6.09-4.29-13.53-9.57-16.58-1.47-.85-2.88-1.28-4.14-1.28Z"/><path fill="#F15B25" d="m227.627 159.396-.18-.1c-.67-.39-1.21-1.42-1.21-2.32v-3.36c0-.89.54-1.3 1.21-.92l.18.1c.67.39 1.21 1.42 1.21 2.32v3.36c0 .89-.54 1.3-1.21.92Z"/><path fill="#fff" d="M228.107 160.017c-.23 0-.48-.07-.72-.21l-.18-.1c-.81-.47-1.45-1.67-1.45-2.73v-3.36c0-.64.24-1.15.66-1.39.37-.21.83-.19 1.27.06l.18.1c.81.47 1.45 1.67 1.45 2.73v3.36c0 .64-.24 1.15-.66 1.39-.17.1-.35.14-.55.14v.01Zm-1.15-6.99s-.06 0-.08.02c-.09.05-.18.25-.18.57v3.36c0 .72.46 1.61.98 1.91l.18.1c.13.08.25.1.32.06.09-.05.18-.25.18-.57v-3.36c0-.71-.46-1.61-.97-1.91l-.18-.1a.556.556 0 0 0-.24-.08h-.01Z"/><path fill="#F15B25" d="m233.657 162.886-.18-.1c-.67-.39-1.21-1.42-1.21-2.32v-3.36c0-.89.54-1.3 1.21-.92l.18.1c.67.39 1.21 1.42 1.21 2.32v3.36c0 .89-.54 1.3-1.21.92Z"/><path fill="#fff" d="M234.147 163.506c-.23 0-.48-.069-.72-.209l-.18-.101c-.81-.47-1.45-1.67-1.45-2.73v-3.36c0-.64.24-1.15.66-1.39.37-.21.83-.19 1.27.06l.18.11c.81.47 1.45 1.67 1.45 2.73v3.36c0 .64-.24 1.15-.66 1.39-.17.1-.35.14-.55.14Zm-1.14-6.989s-.05-.001-.08.019c-.09.05-.18.25-.18.57v3.36c0 .72.46 1.611.98 1.911l.18.099c.06.04.23.11.32.06s.18-.25.18-.57v-3.36c0-.72-.46-1.61-.98-1.91l-.18-.099s-.15-.08-.24-.08Zm1.46 11.959c-.8-1.33-1.84-2.399-2.92-3.029l-2.46-1.42c-1.01-.58-1.95-.71-2.64-.36l-.43-.85c.99-.5 2.25-.36 3.54.39l2.46 1.42c1.22.7 2.38 1.9 3.26 3.36l-.81.489Z"/><path fill="#ECECEC" d="m227.517 184.347-1.18.68c-.12.07-.33.06-.47-.02l-1.11-.64c-.14-.08-.15-.2-.03-.27l1.18-.68c.12-.07.33-.06.47.02l1.11.64c.14.08.15.2.03.27Zm2.75 1.58-1.18.68c-.12.07-.33.06-.47-.02l-1.11-.64c-.14-.08-.15-.2-.03-.27l1.18-.68c.12-.07.33-.06.47.02l1.11.64c.14.08.15.2.03.27Zm-2.9 1.68-1.18.68c-.12.07-.33.06-.47-.02l-1.11-.64c-.14-.08-.15-.2-.03-.27l1.18-.68c.12-.07.33-.06.47.02l1.11.64c.14.08.15.2.03.27Zm5.8-3.35-1.18.68c-.12.07-.33.06-.47-.02l-1.11-.64c-.14-.08-.15-.2-.03-.27l1.18-.68c.12-.07.33-.06.47.02l1.11.64c.14.08.15.2.03.27Zm.01 3.35-1.18.68c-.12.07-.33.06-.47-.02l-1.11-.64c-.14-.08-.15-.2-.03-.27l1.18-.68c.12-.07.33-.06.47.02l1.11.64c.14.08.15.2.03.27Zm-2.9 1.679-1.18.681c-.12.07-.33.059-.47-.021l-1.11-.64c-.14-.08-.15-.2-.03-.27l1.18-.679c.12-.07.33-.06.47.02l1.11.64c.14.08.15.199.03.269Zm5.79-3.349-1.18.68c-.12.07-.33.06-.47-.02l-1.11-.64c-.14-.08-.15-.2-.03-.27l1.18-.68c.12-.07.33-.06.47.02l1.11.64c.14.08.15.2.03.27Zm-.14 3.26-1.18.68c-.12.07-.33.06-.47-.02l-1.11-.64c-.14-.08-.15-.2-.03-.27l1.18-.68c.12-.07.33-.06.47.02l1.11.64c.14.08.15.2.03.27Zm-2.9 1.67-1.18.68c-.12.07-.33.06-.47-.02l-1.11-.64c-.14-.08-.16-.2-.03-.27l1.18-.68c.12-.07.33-.06.47.02l1.11.64c.14.08.15.2.03.27Zm5.79-3.34-1.18.68c-.12.07-.33.06-.47-.02l-1.11-.64c-.14-.08-.15-.2-.03-.27l1.18-.68c.12-.07.33-.06.47.02l1.11.64c.14.08.15.2.03.27Zm-.14 3.259-1.18.681c-.12.07-.33.059-.47-.021l-1.11-.64c-.14-.08-.15-.2-.03-.27l1.18-.679c.12-.07.33-.06.47.02l1.11.64c.14.08.15.199.03.269Zm-2.9 1.671-1.18.68c-.12.07-.33.06-.47-.02l-1.11-.64c-.14-.08-.15-.2-.03-.27l1.18-.68c.12-.07.33-.06.47.02l1.11.64c.14.08.15.2.03.27Zm5.79-3.34-1.18.68c-.12.07-.33.06-.47-.02l-1.11-.64c-.14-.08-.15-.2-.03-.27l1.18-.68c.12-.07.33-.06.47.02l1.11.64c.14.08.15.2.03.27Zm.01 3.35-1.18.68c-.12.07-.33.06-.47-.02l-1.11-.64c-.14-.08-.16-.2-.03-.27l1.18-.68c.12-.07.33-.06.47.02l1.11.64c.14.08.16.2.03.27Zm-2.89 1.67-1.18.68c-.12.07-.33.06-.47-.02l-1.11-.64c-.14-.08-.15-.2-.03-.27l1.18-.68c.12-.07.33-.06.47.02l1.11.64c.14.08.15.2.03.27Zm5.79-3.351-1.18.681c-.12.07-.33.059-.47-.021l-1.11-.64c-.14-.08-.15-.2-.03-.27l1.18-.679c.12-.07.33-.06.47.02l1.11.64c.14.08.15.199.03.269Zm-.15 3.261-1.18.68c-.12.07-.33.06-.47-.02l-1.11-.64c-.14-.08-.15-.2-.03-.27l1.18-.68c.12-.07.33-.06.47.02l1.11.64c.14.08.15.2.03.27Zm-2.89 1.68-1.18.68c-.12.07-.33.06-.47-.02l-1.11-.64c-.14-.08-.15-.2-.03-.27l1.18-.68c.12-.07.33-.06.47.02l1.11.64c.14.08.15.2.03.27Zm5.79-3.35-1.18.68c-.12.07-.33.06-.47-.02l-1.11-.64c-.14-.08-.15-.2-.03-.27l1.18-.68c.12-.07.33-.06.47.02l1.11.64c.14.08.15.2.03.27Zm-.15 3.26-1.18.68c-.12.07-.33.06-.47-.02l-1.11-.64c-.14-.08-.15-.2-.03-.27l1.18-.68c.12-.07.33-.06.47.02l1.11.64c.14.08.15.2.03.27Z"/><path fill="#fff" d="M261.357 167.657h-.95v3.78h.95v-3.78Z"/><path fill="#fff" d="M262.867 169.077h-3.97v.95h3.97v-.95Z"/><path fill="#F15B25" d="m120.147 13.716-21.44-12.38c-1.22-.71-2.33-.8-3.16-.38l-.84.51-6.17 3.8s-.05.06-.03.09c.31.65 3.22 6.74 3.49 7.86.11.47 1.02 5.13 2.08 10.55v2.73c0 1.52.55 3.21 1.44 4.7v.02c1.1 5.65 2.03 10.48 2.05 10.6v.01l3.18 7.5s.07.06.11.04l7.26-4.23s.05-.06.03-.09l-.54-1.53v-.01c-.14-.73-.25-1.55-.3-2.37l9.25 10.29s.07.03.1.01l6.76-4.18s.07-.04.1-.06c.8-.5 1.29-1.52 1.29-2.95v-22.45c0-2.97-2.1-6.61-4.67-8.1l.01.02Z"/><path fill="#000" d="M116.627 52.176c-.22 0-.43-.09-.59-.26l-7.74-8.61v.03l.52 1.48c.13.36-.02.76-.35.95l-7.53 4.39-.37-.09a.809.809 0 0 1-.48-.44l-3.23-7.67c-.02-.12-.94-4.89-2.03-10.49-.95-1.6-1.48-3.38-1.48-4.96v-2.65c-1.28-6.55-1.97-10.07-2.06-10.46-.17-.74-1.9-4.52-3.43-7.72a.8.8 0 0 1 .3-1.01l7.02-4.32c1.14-.57 2.5-.43 3.89.37l21.44 12.38c2.77 1.6 5.03 5.51 5.03 8.71v22.45c0 1.64-.58 2.9-1.62 3.56l-6.87 4.24c-.13.08-.27.12-.41.12h-.01Zm-10.13-13.01 10.25 11.4 6.31-3.9.48.54-.38-.6c.62-.39.96-1.22.96-2.35v-22.45c0-2.7-1.98-6.13-4.32-7.48l-21.44-12.38c-.96-.55-1.84-.68-2.48-.36l-6.47 3.99c.95 1.99 3.04 6.45 3.29 7.49.1.41.78 3.87 2.08 10.57v.15l.01 2.72c0 1.33.49 2.91 1.34 4.34l.09.23c1.04 5.36 1.93 9.96 2.05 10.56l2.87 6.76 6.18-3.6-.41-1.21c-.15-.81-.26-1.64-.3-2.4l-.11-2.02Z"/><path fill="#fff" d="m120.127 13.717-20.09-11.56-10.11 6.34 21.51 11.32 4.52.72 6.96-4.13c-.78-1.12-1.74-2.09-2.79-2.69Z"/><path fill="#000" d="m116.097 21.276-5-.83-22.61-11.9 11.52-7.23 20.47 11.77c1.1.63 2.14 1.64 3.02 2.9l.44.63-7.83 4.65-.01.01Zm-4.44-2.15 4.15.66 6.05-3.6c-.65-.8-1.36-1.44-2.1-1.86l-19.72-11.34-8.69 5.46 20.31 10.69v-.01Zm6.04 5.101s-8.68 2.05-9.24 2.26c-.47.17-8.97 7.03-11.87 10.24.57 2.97.97 5.02.99 5.1v.01l3.18 7.5s.07.06.11.04l7.26-4.23s.05-.06.03-.09l-.54-1.53v-.01c-.14-.73-.25-1.55-.3-2.37l9.25 10.29s.07.03.1.01l6.76-4.18s.07-.04.1-.06c.8-.5 1.29-1.52 1.29-2.95v-22.45c0-.55-.07-1.12-.21-1.7l-6.92 4.11.01.01Z"/><path fill="#F15B25" d="m123.896 23.311-5.143 3.11.492.814 5.142-3.111-.491-.813Zm-.168 20.117-5.143 3.11.492.813 5.142-3.11-.491-.813Zm-10.431-25.442-21.48-12.4c-2.56-1.48-4.64-.28-4.64 2.68v22.49c0 2.96 2.08 6.55 4.64 8.03l2.45 1.41c.44.26.82.83.91 1.38.26 1.65 1.23 5.22 4.71 7.81.68.5 1.22.07 1.02-.8-.24-1.06-.49-2.45-.5-3.78 0-.59.42-.82.93-.53l11.96 6.91c2.56 1.48 4.64.28 4.64-2.68v-22.49c0-2.96-2.08-6.55-4.64-8.03Z"/><path fill="#000" d="M115.367 52.536c-.76 0-1.59-.24-2.43-.73l-11.82-6.82c.02 1.04.18 2.2.47 3.44.17.74-.02 1.37-.52 1.69-.47.31-1.07.25-1.62-.16-3.62-2.69-4.68-6.34-4.99-8.27-.05-.34-.3-.73-.56-.87l-2.45-1.41c-2.8-1.62-4.99-5.41-4.99-8.65V8.267c0-1.7.61-2.98 1.71-3.62 1.11-.64 2.52-.52 3.99.32l21.48 12.4c2.8 1.62 4.99 5.41 4.99 8.65v22.49c0 1.7-.61 2.98-1.71 3.62-.47.27-1 .41-1.56.41l.01-.001Zm-14.45-9.1c.25 0 .52.08.78.22l11.96 6.91c1.01.58 1.92.7 2.56.32.65-.37 1-1.22 1-2.38v-22.49c0-2.72-1.92-6.05-4.28-7.41l-21.48-12.4c-1.01-.58-1.92-.7-2.56-.32-.65.37-1 1.22-1 2.38v22.49c0 2.72 1.92 6.05 4.28 7.41l2.45 1.41c.63.36 1.13 1.12 1.25 1.88.27 1.7 1.2 4.89 4.33 7.27-.33-1.46-.51-2.78-.51-3.92 0-.54.22-.98.62-1.21.18-.11.39-.16.6-.16Z"/><path fill="#F15B25" d="M102.187 17.067c-5.41-3.12-9.81-.58-9.81 5.66s4.4 13.87 9.81 16.99c5.41 3.12 9.81.58 9.81-5.66s-4.4-13.87-9.81-16.99Zm-7.44 7.03c0-4.73 3.34-6.66 7.44-4.29 1.54.89 2.97 2.26 4.16 3.87l-10 6.64c-1-2.04-1.6-4.22-1.6-6.22Zm7.44 12.88c-1.51-.87-2.92-2.21-4.09-3.79l9.98-6.63c.97 2.01 1.55 4.16 1.55 6.12 0 4.73-3.34 6.66-7.44 4.29v.01Z"/><path fill="#fff" d="M106.567 41.536c-1.43 0-3-.47-4.61-1.4-5.54-3.2-10.05-11.01-10.05-17.4 0-3.2 1.11-5.6 3.11-6.76 2.01-1.16 4.64-.92 7.41.68 5.54 3.2 10.05 11.01 10.05 17.4 0 3.2-1.11 5.6-3.11 6.76-.84.48-1.78.72-2.8.72Zm-8.74-25.33c-.85 0-1.64.2-2.33.59-1.7.98-2.64 3.09-2.64 5.93 0 6.09 4.29 13.53 9.57 16.58 2.46 1.42 4.76 1.67 6.46.68 1.7-.98 2.64-3.09 2.64-5.93 0-6.09-4.29-13.53-9.57-16.58-1.47-.85-2.87-1.28-4.13-1.28v.01Zm7.69 22.27c-1.1 0-2.31-.36-3.55-1.08-1.51-.87-2.98-2.23-4.24-3.92l-.3-.4 10.85-7.21.24.49c1.05 2.17 1.6 4.36 1.6 6.33 0 2.47-.86 4.32-2.42 5.22-.65.38-1.39.56-2.18.56v.01Zm-6.72-5.17c1.11 1.4 2.36 2.52 3.65 3.26 1.83 1.06 3.53 1.24 4.78.52 1.25-.72 1.94-2.28 1.94-4.4 0-1.68-.44-3.55-1.27-5.42l-9.09 6.04h-.01Zm-2.62-2.28-.24-.49c-1.08-2.2-1.64-4.42-1.64-6.43 0-2.47.86-4.32 2.42-5.22 1.56-.9 3.59-.72 5.73.52 1.55.89 3.03 2.28 4.3 4l.3.4-10.87 7.22Zm2.72-11.75c-.63 0-1.2.14-1.71.43-1.25.72-1.94 2.28-1.94 4.4 0 1.72.45 3.62 1.32 5.52l9.12-6.06c-1.12-1.44-2.4-2.59-3.71-3.35-1.09-.63-2.14-.95-3.07-.95l-.01.01Zm-19.48 7.62h-.95v3.78h.95v-3.78Z"/><path fill="#fff" d="M80.927 28.317h-3.97v.95h3.97v-.95Z"/></g><defs><clipPath id="a"><path fill="#fff" d="M0 0h263v218H0z"/></clipPath></defs></svg>
