<?xml version="1.0" encoding="UTF-8"?>

<svg width="1048" height="458" viewBox="0 0 1048 458" fill="none" xmlns="http://www.w3.org/2000/svg">
  <path d="M523.026 445.245L474.38 419.988L497.209 445.245H523.026Z" fill="#E2DDDB" />
  <path d="M611.96 221.413V230.819L571.393 221.413H611.96Z" fill="#E2DDDB" />
  <path d="M720.178 350.879H750.142V356.102" fill="#E2DDDB" />
  <path d="M720.178 274.426H750.142V279.639" fill="#E2DDDB" />
  <path d="M720.178 221.413H750.142V226.636" fill="#E2DDDB" />
  <path d="M720.178 168.409H750.142V173.623" fill="#E2DDDB" />
  <path d="M828.307 128.628H831.547V158.488L828.307 128.628Z" fill="#E2DDDB" />
  <path d="M832.335 128.628H837.068V161.99H832.431L832.335 128.628Z" fill="#E2DDDB" />
  <path d="M557.979 162.872L721.942 164.977V162.872H557.979Z" fill="#E2DDDB" />
  <path d="M748.378 162.872L842.788 164.977V162.872H748.378Z" fill="#E2DDDB" />
  <path
    d="M192.531 343.569V371.403L157.597 341.543C150.793 335.726 141.265 334.303 133.056 337.884L86.0166 358.399V354.119C86.0166 352.87 86.4795 351.683 87.283 350.783C87.7546 350.25 88.331 349.822 89.0035 349.525L134.261 329.622C136.462 328.652 138.732 327.91 141.029 327.403C143.649 326.809 146.322 326.521 148.986 326.521C154.156 326.521 159.309 327.613 164.112 329.814C164.392 329.927 164.671 330.058 164.942 330.189L192.522 343.569H192.531Z"
    fill="#E2DDDB" />
  <path
    d="M839.111 276.653V364.783H804.614V353.386H821.862V279.797L830.648 272.635C834.037 269.875 839.111 272.286 839.111 276.653Z"
    fill="white" />
  <path
    d="M821.862 288.364V298.818L810.273 308.277L806.814 311.098C804.727 312.801 801.591 311.307 801.591 308.617V304.888L821.853 288.356L821.862 288.364Z"
    fill="white" />
  <path
    d="M944.001 434.966C947.281 434.966 949.94 432.307 949.94 429.027C949.94 425.747 947.281 423.088 944.001 423.088C940.721 423.088 938.062 425.747 938.062 429.027C938.062 432.307 940.721 434.966 944.001 434.966Z"
    fill="white" />
  <path
    d="M972.516 392.014V393.682H960.787V380.73H961.224C967.46 380.73 972.508 385.778 972.508 392.014H972.516Z"
    fill="white" />
  <path d="M960.787 380.73V393.682H949.809L948.595 380.73H960.787Z" fill="white" />
  <path d="M842.448 400.617V405.202H821.863V364.783H832.841V396.459L842.448 400.617Z" fill="white" />
  <path
    d="M821.862 364.783V405.202C809.05 405.202 798.675 394.826 798.675 382.014C798.675 375.185 801.627 369.036 806.334 364.783H821.862Z"
    fill="white" />
  <path d="M874.953 315.534L898.901 348.783H912.717L874.953 315.534Z" fill="#E2DDDB" />
  <path d="M719.112 427.333H751.06L753.819 434.573" fill="#E2DDDB" />
  <path d="M702.79 435.455L771.235 445.184L767.532 435.455" fill="#E2DDDB" />
  <path d="M228.854 58.2441H225.623V88.0954L228.854 58.2441Z" fill="#E2DDDB" />
  <path d="M224.828 58.2441H220.104V91.5975H224.741L224.828 58.2441Z" fill="#E2DDDB" />
  <path d="M305.99 427.341L340.811 434.642L338.034 427.341" fill="#E2DDDB" />
  <path d="M291.658 435.525L356.059 445.245L352.356 435.525" fill="#E2DDDB" />
  <path d="M307.02 98.0166H336.993V103.239" fill="#E2DDDB" />
  <path d="M307.02 151.02H336.993V156.243" fill="#E2DDDB" />
  <path d="M307.02 227.483H336.993V232.705" fill="#E2DDDB" />
  <path d="M307.02 327.395H336.993V332.617" fill="#E2DDDB" />
  <path d="M529.497 321.342H488.048V404.241H529.497V321.342Z" fill="#F15B25" />
  <path
    d="M724.5 151.431H740.518V137.038H730.911L724.492 146.208V151.431H724.5ZM725.854 146.636L731.627 138.383H739.173V150.077H725.854V146.628V146.636Z"
    fill="#F15B25" />
  <path
    d="M951.058 445.018C953.031 444.153 954.813 442.931 956.359 441.385C959.651 438.084 961.459 433.691 961.459 429.027C961.459 421.927 957.189 415.603 950.708 412.914H965.319C969.66 412.914 973.188 409.376 973.188 405.027V394.355H973.197V392.014C973.197 385.42 967.826 380.058 961.223 380.058H949.206L947.494 361.796C946.796 354.242 940.542 348.547 932.944 348.547H914.132L872.036 311.465L863.338 303.797L862.333 302.914L839.783 283.063V276.644C839.783 274.356 838.5 272.321 836.438 271.351C835.635 270.967 834.779 270.775 833.906 270.775C832.561 270.775 831.286 271.229 830.211 272.094L821.181 279.465V288.05L801.164 304.382L800.928 304.583V308.626C800.928 310.146 801.775 311.482 803.137 312.128C803.661 312.373 804.238 312.504 804.806 312.504C805.688 312.504 806.552 312.198 807.251 311.631L809.609 309.7V352.696H803.941V365.455H804.675C800.43 369.883 798.002 375.883 798.002 382.005C798.002 394.844 808.378 405.49 821.181 405.848V405.874H843.12V400.171L833.513 396.014V365.455H839.775V306.827L847.364 316.329L848.246 317.447L855.644 326.696L874.386 350.154L875.39 351.412L882.438 360.241C882.307 360.888 882.211 361.595 882.167 362.364L879.381 412.25C876.526 413.053 873.914 414.59 871.818 416.704L871.705 416.8C871.399 417.123 871.102 417.437 870.814 417.778C869.521 419.298 868.526 421.001 867.853 422.817C867.722 423.123 867.608 423.446 867.512 423.761C867.242 424.59 867.032 425.464 866.884 426.433C866.831 426.73 866.796 427.044 866.779 427.324C866.726 427.857 866.692 428.416 866.692 429.036C866.692 430.974 867.006 432.87 867.617 434.669C867.722 434.966 867.844 435.263 867.958 435.56C869.67 439.813 872.997 443.219 877.128 445.027H772.343L768.282 434.354H754.911L751.819 426.241H747.557V402.791L747.548 357.228H751.251V349.779H747.566V326.329L747.557 280.766H751.26V273.308H747.575V249.858L747.566 227.762H751.269V220.313H747.566V174.75H751.269V167.3H748.623V166.095H843.914V161.763H838.185V127.527H813.565V136.217L751.583 81.3618C752.221 80.174 752.561 78.7592 752.561 77.2395C752.561 73.4754 750.387 70.4099 747.714 70.4099C746.666 70.4099 745.627 70.9077 744.78 71.8247H743.898C743.024 70.899 742.003 70.4099 740.955 70.4099C738.291 70.4099 736.116 73.4754 736.116 77.2483C736.116 78.6893 736.431 80.0605 737.016 81.2133L611.969 145.178H581.34L550.004 145.169L549.777 145.396L549.681 145.518L534.598 161.99L533.576 163.117H549.62L556.869 163.125V166.103H565.821V169.09H576.668V220.321H570.283V241.36H613.095V220.321H606.528V169.09H617.375V166.103H721.732V167.309H719.086V174.758H722.771V220.321H719.086V227.771H722.771V251.221L722.78 273.325H719.077V280.784H722.763V327.692L722.771 349.796H719.068V357.246H722.754V404.154L722.763 426.258H718.492L715.4 434.372H702.029L697.951 445.044L570.947 445.062V404.259H529.498V445.062H525.052L473.848 418.59C471.114 417.184 468.057 416.433 464.992 416.433C458.948 416.433 453.367 419.184 449.682 423.97L440.739 435.568L427.761 428.59L422.023 405.569C421.341 402.844 418.905 400.94 416.101 400.94H405.018L397.237 413.734L405.42 418.127L404.844 419.088C404.294 420.023 404.145 421.088 404.442 422.101C404.73 423.123 405.411 423.961 406.355 424.459L407.883 425.263V432.739L399.123 445.018H357.167L353.124 434.407H341.919L338.801 426.223H334.408V333.744H338.111V326.285H334.408V233.832H338.111V226.382H334.408V157.379H338.111V149.929H334.408V104.366H338.111V96.9162H335.464V95.711H428.285V98.6979H434.704V241.395L425.368 243.029L426.189 247.727L427.053 252.653L427.306 254.111L427.831 257.124L428.8 262.688L429.088 264.321L435.455 300.687L493.009 290.609L488.817 266.688L487.996 261.989L487.175 257.29L486.345 252.592L485.524 247.893L484.703 243.212L483.883 238.513L482.913 232.95L473.463 234.601L472.948 234.688V98.6891H479.821V95.7023H558.362V92.7154H584.353L568.249 75.1173L568.126 74.995L567.917 74.7679H536.581L476.179 74.7941L320.19 10.751C320.757 9.61564 321.072 8.23575 321.072 6.83838C321.072 3.06549 318.906 0 316.233 0C315.176 0 314.155 0.489101 313.29 1.41486H312.39C311.543 0.497835 310.504 0 309.456 0C306.783 0 304.609 3.06548 304.609 6.82964C304.609 7.17898 304.635 7.5196 304.67 7.85148L243.622 60.0344V57.1174H218.994V91.3529H213.221V95.6848H308.574V96.89H305.919V104.34H309.622V149.903H305.919V157.352H309.622V226.356H305.919V233.806H309.622V326.259H305.919V333.718H309.622V426.197H305.229L302.111 434.381H290.906L286.862 444.992H243.911C248.225 443.245 251.675 439.848 253.456 435.533C253.587 435.236 253.692 434.939 253.806 434.643C254.391 433.018 254.714 431.298 254.784 429.516H275.264V419.35H270.845L270.827 393.595L256.312 361.525C252.81 353.787 245.055 348.783 236.548 348.783H203.378V336.871H192.313V342.198L165.457 329.176C160.348 326.705 154.654 325.395 149.003 325.395C146.025 325.395 143.047 325.753 140.156 326.451C138.025 326.967 135.894 327.683 133.842 328.6L88.5757 348.504C87.9119 348.792 87.3181 349.202 86.8028 349.718C86.4185 350.067 86.0779 350.495 85.7548 351.036C85.2133 351.962 84.925 353.028 84.925 354.119V374.792C84.925 377.228 86.3574 379.429 88.5757 380.39L104.104 387.228V423.656C104.104 426.887 106.733 429.525 109.964 429.525H114.488C114.741 436.389 119.021 442.442 125.335 445.009H0V457.961H1048V445.009C1010.14 445.009 988.911 445.009 951.049 445.009L951.058 445.018ZM806.395 310.591C805.941 310.967 805.391 311.159 804.814 311.159C804.439 311.159 804.063 311.072 803.723 310.914C802.841 310.486 802.29 309.613 802.29 308.635V305.229L821.19 289.797V298.513L806.404 310.591H806.395ZM821.181 300.259V352.704H810.954V308.609L821.181 300.251V300.259ZM821.181 404.512C809.12 404.154 799.347 394.11 799.347 382.005C799.347 375.744 801.985 369.717 806.596 365.455H821.181V404.512ZM841.757 401.062V404.529H822.535V365.455H832.159V396.905L841.748 401.062H841.757ZM838.43 364.11H805.286V354.058H822.535V280.111L831.067 273.151C831.888 272.478 832.875 272.129 833.906 272.129C834.578 272.129 835.233 272.277 835.853 272.574C837.443 273.325 838.421 274.888 838.421 276.653V364.11H838.43ZM549.602 161.754H536.616L549.602 147.58V161.754ZM568.318 77.1959L581.288 91.3617H568.318V77.1959ZM961.451 381.412C967.197 381.534 971.826 386.25 971.826 392.023V393.01H961.451V381.42V381.412ZM960.106 381.412V393.01H950.42L949.328 381.412H960.106ZM872.063 345.089L871.181 343.971L848.613 315.735L847.731 314.617L839.766 304.67V284.88L860.657 303.281L861.661 304.163L912.071 348.565H896.761C896.412 348.565 896.08 348.565 895.765 348.6C895.687 348.6 895.6 348.6 895.538 348.608C895.364 348.617 895.18 348.643 894.936 348.67C894.543 348.713 894.15 348.774 893.766 348.862C893.565 348.897 893.364 348.949 893.189 349.001C893.006 349.036 892.814 349.089 892.621 349.15C892.228 349.263 891.835 349.403 891.442 349.552C891.355 349.587 890.971 349.744 890.971 349.744C890.822 349.805 890.656 349.875 890.499 349.953C890.298 350.049 890.106 350.137 889.914 350.233C889.582 350.408 889.233 350.6 888.918 350.818L888.421 351.141C888.281 351.246 888.124 351.359 887.958 351.473C887.661 351.709 887.372 351.945 887.067 352.198L886.656 352.591C885.678 353.525 884.831 354.6 884.15 355.77C884.036 355.945 883.94 356.119 883.87 356.268C883.792 356.381 883.739 356.504 883.643 356.704C883.6 356.792 883.556 356.87 883.53 356.949C883.39 357.255 883.242 357.578 883.128 357.901L883.084 358.014C883.023 358.163 882.971 358.311 882.927 358.46C882.91 358.512 882.892 358.556 882.875 358.608L872.054 345.08L872.063 345.089ZM883.53 362.434C883.565 361.656 883.67 360.914 883.844 360.224C883.923 359.831 884.028 359.464 884.141 359.097C884.359 358.416 884.648 357.709 885.006 357.01C885.18 356.678 885.373 356.355 885.573 356.041C885.766 355.735 885.975 355.421 886.211 355.124C886.525 354.687 886.875 354.276 887.276 353.875C889.783 351.307 893.163 349.892 896.787 349.892H932.953C939.835 349.892 945.512 355.071 946.158 361.927L949.197 394.346H971.844V405.018C971.844 408.617 968.918 411.542 965.319 411.542H880.796L883.547 362.416L883.53 362.434ZM869.346 435.367C869.215 435.079 869.102 434.791 869.006 434.503C868.368 432.712 868.045 430.87 868.045 429.027C868.045 428.512 868.071 427.961 868.141 427.359C868.167 427.088 868.194 426.791 868.255 426.494C868.342 425.857 868.482 425.21 868.674 424.582C868.744 424.302 868.831 424.04 868.919 423.778L868.962 423.656C869.504 422.136 870.255 420.73 871.189 419.481C871.469 419.114 871.748 418.756 872.054 418.407C872.281 418.145 872.525 417.892 872.779 417.63C875.809 414.59 879.862 412.914 884.176 412.914H943.992C952.874 412.914 960.106 420.145 960.106 429.027C960.106 433.333 958.437 437.385 955.398 440.433C954.01 441.822 952.394 442.931 950.595 443.734V429.027C950.595 425.385 947.634 422.424 943.992 422.424H884.176C880.534 422.424 877.573 425.385 877.573 429.027C877.573 431.394 878.857 433.603 880.936 434.782C881.914 435.341 883.032 435.629 884.176 435.629H908.665V445.009H882.089L881.914 444.992C881.818 444.983 881.722 444.966 881.617 444.948C876.22 444.092 871.512 440.415 869.346 435.367ZM943.983 434.293C941.084 434.293 938.726 431.935 938.726 429.036C938.726 426.136 941.084 423.778 943.983 423.778C946.883 423.778 949.241 426.136 949.241 429.036C949.241 431.935 946.883 434.293 943.983 434.293ZM949.241 433.027V444.276C948.245 444.625 947.197 444.878 946.141 445.027H940.446V435.647H943.983C946.053 435.647 948.01 434.66 949.241 433.036V433.027ZM888.159 434.293C889.783 433.062 890.77 431.105 890.77 429.036C890.77 426.966 889.783 425.01 888.159 423.778H939.983C938.359 425.01 937.372 426.966 937.372 429.036C937.372 431.105 938.359 433.062 939.983 434.293H888.159ZM939.093 435.638V445.018H930.298V435.638H939.093ZM928.953 435.638V445.018H920.158V435.638H928.953ZM918.796 435.638V445.018H910.001V435.638H918.796ZM884.159 434.293C881.259 434.293 878.901 431.935 878.901 429.036C878.901 426.136 881.259 423.778 884.159 423.778C887.058 423.778 889.416 426.136 889.416 429.036C889.416 431.935 887.058 434.293 884.159 434.293ZM832.639 128.872H836.805V161.763H832.639V128.872ZM814.884 128.872H831.294V161.763H814.884V128.872ZM820.805 163.117H821.242L842.534 163.108V164.75H748.588V163.108H759.374L820.797 163.117H820.805ZM748.596 161.754V159.352L759.382 147.58V161.754H748.596ZM775.242 160.968L761.609 146.505H788.867L775.234 160.968H775.242ZM789.758 147.545V161.754H776.36L789.758 147.545ZM774.133 161.754H760.736V147.545L774.133 161.754ZM805.635 160.968L792.002 146.514H813.548V152.558L805.626 160.968H805.635ZM813.557 154.531V161.754H806.753L813.557 154.531ZM804.526 161.754H791.12V147.545L804.526 161.754ZM813.557 138.016V145.16H759.784L759.557 145.387L759.461 145.51L748.614 157.361V134.243H746.902V107.781L747.295 107.388L746.902 106.995V83.9556C747.155 84.0168 747.426 84.0692 747.714 84.0692C748.841 84.0692 749.941 83.5015 750.823 82.4709L813.565 138.016H813.557ZM731.662 134.243L735.129 120.305L745.557 130.741V134.235H731.662V134.243ZM741.959 135.588V167.291H723.059V145.745L730.177 135.588H741.968H741.959ZM745.557 109.134V128.829L735.714 118.986L745.557 109.143V109.134ZM736.011 116.768L739.749 101.755L745.391 107.388L736.011 116.768ZM743.321 135.588H747.269V167.291H743.321V135.588ZM747.714 71.7548C749.644 71.7548 751.216 74.209 751.216 77.2221C751.216 80.2351 749.644 82.7067 747.714 82.7067C747.444 82.7067 747.19 82.6631 746.946 82.5757L746.911 82.4272V82.4098V82.3748L747.138 82.567C747.225 82.5495 747.312 82.5408 747.409 82.5058C747.487 82.4796 747.566 82.4447 747.644 82.401L747.81 82.3224C747.924 82.2701 748.029 82.2176 748.125 82.1565C748.23 82.0954 748.326 82.008 748.404 81.9382C748.535 81.8508 748.658 81.7548 748.78 81.6412C748.841 81.5801 748.885 81.519 748.989 81.3792C749.12 81.257 749.234 81.1085 749.33 80.96C749.382 80.8901 749.417 80.8115 749.487 80.6893C749.601 80.5146 749.697 80.3399 749.784 80.1478L749.906 79.8247C749.985 79.6413 750.064 79.4491 750.116 79.2395L750.151 79.0998C750.326 78.4535 750.404 77.8421 750.404 77.2133C750.404 74.6631 749.103 72.4361 747.321 71.9033C747.225 71.8771 747.129 71.8509 747.033 71.8334C747.251 71.7636 747.479 71.7286 747.714 71.7286V71.7548ZM744.981 73.4492L744.92 73.3094L744.858 73.1784H746.535C746.71 73.1784 746.876 73.2046 747.016 73.2483C748.195 73.6238 749.05 75.3007 749.05 77.2308C749.05 79.4753 747.915 81.3094 746.518 81.3094H744.841C744.885 81.2308 744.928 81.1347 744.972 81.0386C745.505 79.9382 745.775 78.6282 745.775 77.2483C745.775 75.8684 745.496 74.5496 744.972 73.4579L744.981 73.4492ZM745.557 82.6631V105.65L740.125 100.217L744.5 82.6631H745.557ZM740.946 71.7548C741.714 71.7548 742.43 72.1479 743.077 72.9077C743.356 73.2745 743.575 73.6238 743.758 74.0168C744.203 74.9513 744.439 76.0692 744.439 77.2395C744.439 78.4098 744.212 79.4841 743.723 80.5321C743.566 80.8814 743.348 81.2308 743.077 81.5539C742.649 82.0779 741.933 82.7067 740.955 82.7067C739.033 82.7067 737.461 80.2526 737.461 77.2395C737.461 74.2264 739.024 71.7548 740.955 71.7548H740.946ZM737.784 82.401C738.666 83.4753 739.784 84.0692 740.946 84.0692C741.61 84.0692 742.282 83.8683 742.902 83.4753L734.16 118.628L733.784 118.986L734.02 119.204L730.265 134.243H729.461L721.715 145.335V161.763H717.645L702.457 145.169H671.121L643.637 145.178L737.793 82.4098L737.784 82.401ZM715.819 161.754H702.833V147.58L715.819 161.754ZM673.348 146.505H700.606L686.972 160.968L673.339 146.505H673.348ZM685.863 161.754H672.484V147.553L685.863 161.754ZM701.488 147.545V161.754H688.09L701.488 147.545ZM642.99 146.523H670.239L656.615 160.977L642.999 146.523H642.99ZM655.488 161.763H642.091V147.553L655.488 161.763ZM671.112 147.562V161.763H657.715L671.112 147.562ZM727.828 87.4228L641.191 145.187H614.851L727.828 87.4228ZM639.846 146.531L626.213 160.986L612.597 146.531H639.846ZM640.737 147.553V161.763H627.331L640.737 147.553ZM611.698 147.553L625.104 161.763H611.698V147.553ZM609.453 146.531L595.838 160.986L582.205 146.531H609.453ZM610.344 147.553V161.763H596.938L610.344 147.553ZM581.323 147.553L594.72 161.763H581.323V147.553ZM579.078 146.514L565.445 160.977L551.812 146.514H579.069H579.078ZM579.96 147.553V161.763H566.563L579.96 147.553ZM556.843 161.78H550.939V147.553L564.336 161.763H556.843V161.78ZM611.707 221.675V240.015H571.62V221.675H611.707ZM577.987 220.33V169.099H605.139V220.33H577.987ZM615.995 167.754H567.139V166.112H615.995V167.754ZM558.205 164.767V163.143H721.697V164.767H558.205ZM720.396 173.422V168.671H749.898V173.422H720.396ZM725.051 198.217H746.203V219.369L725.051 198.217ZM745.251 220.33H724.099V199.177L745.251 220.33ZM724.099 196.872V175.719L745.251 196.872H724.099ZM725.051 174.776H746.203V195.928L725.051 174.776ZM720.396 226.435V221.684H749.898V226.435H720.396ZM725.051 251.238H746.203V272.373L725.051 251.238ZM745.234 273.325H724.099V252.19L745.234 273.325ZM724.099 249.876V228.732L745.251 249.876H724.099ZM725.051 227.78H746.203V248.932L725.051 227.78ZM720.396 279.439V274.67H749.898V279.439H720.396ZM725.051 327.692H746.203V348.844L725.051 327.692ZM745.234 349.796H724.099V328.643L745.234 349.796ZM724.099 326.347V305.194L745.251 326.347H724.099ZM725.051 304.233H746.203V325.386L725.051 304.233ZM724.099 302.888V281.736L745.251 302.888H724.099ZM725.051 280.784H746.203V301.936L725.051 280.784ZM720.396 355.883V351.141H749.898V355.883H720.396ZM725.051 404.154H746.203V425.306L725.051 404.154ZM745.234 426.241H724.099V405.106L745.234 426.241ZM724.099 402.791V381.639L745.251 402.791H724.099ZM725.051 380.687H746.203V401.839L725.051 380.687ZM724.099 379.342V358.189L745.251 379.342H724.099ZM725.051 357.246H746.203V378.399L725.051 357.246ZM719.409 427.603H750.885L753.47 434.372H716.824L719.409 427.603ZM702.937 435.717H767.347L770.884 444.966H699.409L702.946 435.717H702.937ZM441.097 437.306L444.843 439.315V439.996H445.953L446.031 439.961L446.433 440.171L447.079 438.992L446.188 438.512V438.127H445.953L445.516 438.153L441.944 436.232L450.747 424.8C454.18 420.354 459.367 417.804 464.974 417.804C467.821 417.804 470.669 418.494 473.21 419.804L522.048 445.044H435.141L441.097 437.306ZM416.451 402.337C418.503 402.494 420.197 403.918 420.695 405.909L426.145 427.743L407.289 417.63L416.451 402.337ZM399.115 413.237L405.77 402.302H414.887L406.101 416.983L399.115 413.237ZM406.966 423.289C406.346 422.966 405.918 422.433 405.726 421.761C405.543 421.088 405.63 420.407 405.979 419.813L406.591 418.8L439.892 436.669L433.437 445.053H423.027V431.699L406.957 423.298L406.966 423.289ZM409.228 433.202V425.996L421.691 432.52V445.053H400.774L409.228 433.202ZM471.594 234.95L464.005 236.277L454.564 237.937L445.114 239.587L436.049 241.177V98.7153H471.594V234.941V234.95ZM458.861 242.924L459.385 242.828L459.734 244.81L460.049 246.653L459.594 246.732L451.481 248.164L451.149 246.286L450.809 244.33L454.66 243.649L458.852 242.924H458.861ZM467.979 260.679L472.118 259.954L472.45 261.806L472.8 263.788L468.651 264.513L467.979 260.688V260.679ZM469.07 259.587L468.11 259.753L467.795 257.902L467.446 255.937L468.407 255.762L476.031 254.426L476.372 256.408L476.703 258.26L472.852 258.941L469.079 259.596L469.07 259.587ZM467.289 255.063L462.573 255.884L462.232 253.972L461.9 252.059L463.201 251.823L465.752 251.378L470.468 250.548L470.808 252.469L471.14 254.382L467.289 255.063ZM437.455 251.5L441.306 250.819L445.079 250.164L446.031 249.998L446.363 251.849L446.712 253.814L445.813 253.98L438.127 255.317L437.787 253.352L437.455 251.5ZM452.293 252.845L447.979 253.596L447.568 253.666L447.219 251.683L446.905 249.841L447.359 249.762L455.472 248.33L455.804 250.181L456.145 252.164L452.293 252.845ZM456.302 253.028L460.136 252.365L461.027 252.216L461.367 254.129L461.708 256.041L457.839 256.723L453.202 257.535H453.123L452.791 255.64L452.45 253.727L456.302 253.046V253.028ZM447.14 254.627L451.577 253.858L451.909 255.771L452.249 257.683L451.219 257.867L447.813 258.461L447.14 254.627ZM461.848 256.889L466.11 256.155L466.564 256.076L466.904 258.041L467.236 259.893L466.782 259.972L458.669 261.404L458.328 259.482L457.996 257.57L461.848 256.889ZM462.738 250.993L461.743 251.168L457.009 251.998L456.669 250.015L456.337 248.164L460.188 247.5L462.066 247.168L464.922 246.662L465.236 248.513L465.586 250.496L462.73 250.985L462.738 250.993ZM460.092 241.788L455.376 242.609L455.036 240.697L454.704 238.784L463.28 237.273L463.621 239.194L463.952 241.107L460.101 241.788H460.092ZM450.651 243.439L447.009 244.068L445.918 244.269L445.586 242.347L445.245 240.435L453.83 238.932L454.162 240.845L454.503 242.758L450.651 243.439ZM449.926 244.461L450.276 246.417L450.608 248.295L446.756 248.959L442.023 249.788L441.691 247.911L441.35 245.954L444.197 245.465L445.202 245.29L449.918 244.461H449.926ZM443.612 244.67L441.202 245.09L436.485 245.919L436.084 243.684L435.813 242.094L444.389 240.592L444.73 242.504L445.062 244.426L443.621 244.67H443.612ZM440.075 246.19L440.485 246.111L440.826 248.068L441.158 249.945L437.306 250.627L433.883 251.221L432.582 251.439L432.477 250.88L431.9 247.622L435.769 246.941L440.075 246.19ZM477.507 262.923L473.655 263.587L473.306 261.622L472.992 259.771L476.843 259.09L480.616 258.435L481.568 258.269L481.9 260.12L482.241 262.085L477.524 262.915L477.507 262.923ZM472.014 254.207L471.673 252.295L471.332 250.373L475.184 249.71L478.887 249.055L479.917 248.88L480.249 250.793L480.59 252.714L480.118 252.793L472.014 254.207ZM471.184 249.509L466.931 250.26L466.459 250.338L466.11 248.356L465.795 246.504L466.206 246.435L474.372 245.002L474.704 246.88L475.044 248.828L471.193 249.509H471.184ZM465.647 245.64L463.996 245.919L460.913 246.47L460.599 244.618L460.249 242.635L461.21 242.47L468.835 241.133L469.175 243.116L469.507 244.959L465.656 245.64H465.647ZM434.94 242.234L435.28 244.155L435.621 246.068L431.752 246.732L427.245 247.526L427.036 247.561L426.372 243.727L434.948 242.225L434.94 242.234ZM431.708 251.579L427.857 252.26L427.193 248.426L431.044 247.762L431.708 251.579ZM487.786 265.945L479.201 267.456L478.538 263.622L482.389 262.941L486.887 262.155L487.123 262.12L487.786 265.937V265.945ZM486.965 261.264L483.114 261.928L482.765 259.945L482.433 258.103L483.428 257.928L486.302 257.421L486.965 261.255V261.264ZM486.136 256.566L483.69 257.002L482.284 257.238L477.568 258.068L477.236 256.216L476.896 254.234L480.747 253.57L483.009 253.168L485.472 252.731L486.136 256.566ZM485.315 251.867L483.079 252.269L481.463 252.548L481.131 250.627L480.791 248.714L481.673 248.566L484.651 248.042L485.315 251.876V251.867ZM484.494 247.168L481.07 247.762L480.634 247.841L475.918 248.662L475.568 246.714L475.236 244.836L479.105 244.155L480.616 243.884L483.821 243.325L484.485 247.159L484.494 247.168ZM483.009 238.653L483.673 242.47L481.385 242.88L479.813 243.151L479.481 241.299L479.14 239.317L481.813 238.845L482.992 238.644L483.009 238.653ZM482.188 233.954L482.852 237.788L479 238.452L475.228 239.116L474.267 239.282L473.935 237.36L473.594 235.448L482.179 233.946L482.188 233.954ZM473.559 240.304L478.276 239.474L478.625 241.456L478.957 243.308L478.538 243.378L470.372 244.81L470.057 242.967L469.708 240.985L473.559 240.304ZM473.411 239.439L472.957 239.518L464.843 240.932L464.503 239.02L464.162 237.098L472.747 235.596L473.079 237.509L473.42 239.43L473.411 239.439ZM478.468 97.3354H429.63V95.6935H478.468V97.3354ZM566.956 91.3617H553.559L566.956 77.1609V91.3617ZM566.074 76.1216L552.45 90.5757L538.816 76.1216H566.074ZM537.934 77.1435L551.332 91.3529H537.934V77.1435ZM535.69 76.1216L522.066 90.5757L508.441 76.1216H535.699H535.69ZM536.572 77.1435V91.3529H523.175L536.572 77.1435ZM507.55 77.1435L520.948 91.3529H507.55V77.1435ZM505.306 76.1216L491.673 90.5757L478.057 76.1216H505.306ZM506.197 77.1435V91.3529H492.791L506.197 77.1435ZM477.158 77.1435L490.564 91.3529H477.158V77.1435ZM557 92.7154V94.3398H335.438V92.7154H557ZM341.325 91.3529L354.311 77.1784V91.3529H341.325ZM370.172 90.5669L356.556 76.1129H383.805L370.18 90.5669H370.172ZM384.687 77.1522V91.3529H371.289L384.687 77.1522ZM369.071 91.3529H355.665V77.1435L369.071 91.3529ZM400.547 90.5669L386.931 76.1129H414.18L400.556 90.5669H400.547ZM415.062 77.1435V91.3529H401.665L415.062 77.1435ZM399.438 91.3529H386.058V77.1522L399.438 91.3529ZM430.94 90.5669L417.307 76.1129H444.564L430.94 90.5669ZM445.455 77.1435V91.3529H432.058L445.455 77.1435ZM429.831 91.3529H416.433V77.1435L429.831 91.3529ZM446.809 91.3529V77.1435L460.214 91.3529H446.809ZM475.839 91.3529H462.433L475.839 77.1435V91.3529ZM461.324 90.5669L447.699 76.1129H474.948L461.332 90.5669H461.324ZM472.59 74.7679L446.87 74.7941L334.958 18.2706L472.59 74.7767V74.7679ZM443.83 74.7679H386.067L354.731 74.7592L339.526 91.3529H335.473V74.9251L327.718 63.8335H326.914L323.176 48.7856L323.386 48.576L323.037 48.2267L314.286 13.0741C314.906 13.4671 315.578 13.668 316.259 13.668C317.438 13.668 318.574 13.0567 319.465 11.9388L443.857 74.7679H443.83ZM311.613 63.8423V60.3488L322.05 49.9123L325.508 63.851H311.613V63.8423ZM313.858 65.1872V96.89H309.91V65.1872H313.858ZM321.465 48.576L311.604 58.4187V38.7246L321.465 48.576ZM311.788 36.9779L317.421 31.3447L321.159 46.3577L311.788 36.9779ZM315.203 65.1785H327.002L334.102 75.3356V96.8813H315.203V65.1785ZM313.447 3.5371C313.639 3.14409 313.858 2.80347 314.102 2.51527C314.46 2.07859 315.211 1.34497 316.242 1.34497C318.163 1.34497 319.718 3.80783 319.718 6.82964C319.718 9.85145 318.155 12.2969 316.242 12.2969C315.272 12.2969 314.548 11.668 314.102 11.144C313.849 10.8383 313.639 10.4977 313.421 10.0436C312.976 9.10909 312.74 7.9912 312.74 6.82964C312.74 5.66808 312.967 4.58513 313.456 3.5371H313.447ZM312.67 12.2532L317.045 29.8076L311.613 35.2399V12.2532H312.67ZM310.652 2.76855H312.329C312.286 2.84715 312.242 2.93447 312.198 3.03054C311.666 4.1397 311.386 5.44974 311.386 6.82964C311.386 8.20954 311.666 9.51957 312.198 10.62C312.198 10.62 312.312 10.8471 312.338 10.8907H310.652C309.255 10.8907 308.12 9.06544 308.12 6.81218C308.12 4.88207 308.976 3.20523 310.155 2.82969C310.312 2.77729 310.469 2.7598 310.644 2.7598L310.652 2.76855ZM309.456 1.35372C309.692 1.35372 309.919 1.38865 310.137 1.45851C310.041 1.47598 309.936 1.50217 309.84 1.52837C308.059 2.06112 306.766 4.28819 306.766 6.83838C306.766 7.4672 306.853 8.10473 307.019 8.73355L307.246 8.67243L307.045 8.87329C307.115 9.10036 307.203 9.3187 307.316 9.5807C307.334 9.64184 307.36 9.70298 307.386 9.78159C307.447 9.91259 307.526 10.0436 307.596 10.1659L307.692 10.3231C307.727 10.3755 307.762 10.4366 307.849 10.5851C307.963 10.7336 308.067 10.8645 308.172 10.9781L308.399 11.2488C308.513 11.3624 308.644 11.4584 308.766 11.537L308.862 11.6156C308.923 11.668 308.984 11.7204 309.054 11.7641C309.142 11.8165 309.229 11.8602 309.316 11.8951L309.535 11.9999C309.613 12.0348 309.692 12.0785 309.779 12.1047C309.866 12.1309 309.954 12.1484 310.05 12.1571L310.181 12.1833C309.954 12.2619 309.709 12.2969 309.456 12.2969C307.535 12.2969 305.963 9.83399 305.963 6.81218C305.963 3.79038 307.526 1.34497 309.456 1.34497V1.35372ZM243.622 76.1129H265.168L251.535 90.5669L243.614 82.1653V76.1216L243.622 76.1129ZM266.05 77.1347V91.3442H252.653L266.05 77.1347ZM243.622 84.1303L250.426 91.3529H243.622V84.1303ZM225.867 58.4624H242.26V91.3529H225.867V58.4624ZM220.339 58.4624H224.505V91.3529H220.339V58.4624ZM308.556 94.3398H214.575V92.6979H235.666L267.177 92.7066H267.413L308.556 92.6979V94.3398ZM281.928 90.5669L268.295 76.1129H295.543L281.928 90.5669ZM296.426 77.1435V91.3529H283.046L296.426 77.1435ZM280.81 91.3529H267.413V77.1435L280.81 91.3529ZM308.556 91.3529H297.779V77.1871L308.556 88.96V91.3529ZM297.727 75.1173L297.604 74.9688L297.404 74.7505H243.622V61.7986L304.967 9.37111C305.701 11.9475 307.473 13.6593 309.456 13.6593C309.7 13.6593 309.963 13.6243 310.259 13.5457V36.5849L309.866 36.9779L310.259 37.3709V63.8335H308.565V86.9512L297.727 75.1173ZM307.264 102.986V98.235H336.766V102.986H307.264ZM333.063 128.741V149.894H311.91L333.063 128.741ZM310.958 148.924V127.772H332.111L310.958 148.924ZM311.91 126.427L333.063 105.274V126.427H311.91ZM310.958 125.475V104.322H332.111L310.958 125.475ZM307.255 155.99V151.239H336.757V155.99H307.255ZM333.054 205.195V226.347H311.901L333.054 205.195ZM310.949 225.395V204.243H332.102L310.949 225.395ZM311.901 202.889L333.054 181.736V202.889H311.901ZM310.949 201.937V180.784H332.102L310.949 201.937ZM311.901 179.44L333.054 158.287V179.44H311.901ZM310.949 178.488V157.335H332.102L310.949 178.488ZM307.246 232.452V227.701H336.748V232.452H307.246ZM333.045 305.107V326.25H311.893L333.045 305.107ZM310.941 325.307V304.155H332.093L310.941 325.307ZM311.893 302.81L333.045 281.657V302.81H311.893ZM310.941 301.858V280.705H332.093L310.941 301.858ZM311.893 279.36L333.045 258.207V279.36H311.893ZM310.941 278.399V257.247H332.093L310.941 278.399ZM311.893 255.902L333.045 234.749V255.902H311.893ZM310.941 254.95V233.797H332.093L310.941 254.95ZM307.238 332.364V327.622H336.74V332.364H307.238ZM333.037 405.027V426.18H311.884L333.037 405.027ZM310.932 425.219V404.066H332.085L310.932 425.219ZM311.884 402.721L333.037 381.569V402.721H311.884ZM310.932 401.761V380.608H332.085L310.932 401.761ZM311.884 379.263L333.037 358.111V379.263H311.884ZM310.932 378.311V357.159H332.085L310.932 378.311ZM311.884 355.814L333.037 334.661V355.814H311.884ZM310.932 354.862V333.709H332.085L310.932 354.862ZM306.12 427.551H337.84L340.434 434.381H303.517L306.111 427.551H306.12ZM291.797 435.726H352.163L355.683 444.974H288.268L291.788 435.726H291.797ZM252.391 434.477C252.286 434.765 252.173 435.053 252.05 435.341C249.465 441.158 243.692 444.922 237.334 444.922C230.976 444.922 225.195 441.158 222.627 435.333C222.487 435.044 222.374 434.765 222.269 434.477C221.596 432.712 221.256 430.817 221.256 428.844C221.256 428.337 221.282 427.839 221.326 427.341C221.352 427.053 221.387 426.765 221.43 426.477C222.461 419.516 227.823 414.093 234.767 412.957C235.055 412.914 235.343 412.879 235.64 412.852C236.216 412.783 236.767 412.748 237.343 412.748C246.216 412.748 253.439 419.97 253.439 428.844C253.439 430.791 253.09 432.686 252.408 434.477H252.391ZM152.706 428.844C152.706 419.97 159.92 412.748 168.785 412.748C177.649 412.748 184.881 419.97 184.881 428.844C184.881 437.717 177.658 444.922 168.785 444.922C159.911 444.922 152.706 437.708 152.706 428.844ZM162.208 444.992H138.436C144.75 442.424 149.029 436.372 149.283 429.507H151.379C151.632 436.372 155.903 442.424 162.208 444.992ZM186.208 429.507H219.92C219.972 431.28 220.304 433.001 220.889 434.634C220.994 434.931 221.107 435.228 221.23 435.525C223.029 439.865 226.487 443.271 230.784 444.992H175.361C181.675 442.424 185.955 436.372 186.199 429.507H186.208ZM104.724 386.04L89.0735 379.15C87.3442 378.39 86.2264 376.669 86.2264 374.774V354.102C86.2264 352.923 86.663 351.796 87.4403 350.923C87.9032 350.399 88.4534 349.997 89.0648 349.726L134.331 329.814C136.567 328.844 138.829 328.102 141.056 327.613C143.623 327.028 146.278 326.731 148.959 326.731C154.182 326.731 159.239 327.831 163.999 330.006C164.278 330.119 164.54 330.25 164.82 330.39L192.26 343.7V385.185L164.82 398.494C162.339 399.691 159.728 400.608 157.047 401.228C155.614 401.542 154.304 401.761 153.021 401.9C152.689 401.944 152.339 401.979 151.999 402.005C151.326 402.066 150.663 402.101 149.99 402.11C149.623 402.119 149.256 402.128 148.881 402.128C145.466 402.128 142.069 401.639 138.794 400.678C138.191 400.503 137.58 400.311 136.986 400.093C136.802 400.031 136.086 399.77 136.086 399.77C135.492 399.551 134.898 399.307 134.313 399.045L104.977 386.128L104.698 386.032L104.724 386.04ZM115.492 422.844C115.396 423.097 115.3 423.359 115.23 423.621L115.458 423.682L115.196 423.743L114.951 424.59C114.89 424.835 114.829 425.079 114.794 425.324C114.733 425.612 114.672 425.892 114.637 426.171C114.584 426.451 114.558 426.713 114.532 426.975L114.768 426.992L114.514 427.123C114.488 427.394 114.479 427.656 114.471 427.909C114.453 427.988 114.453 428.066 114.444 428.145H109.929C107.44 428.145 105.423 426.119 105.423 423.621V387.787L134.043 400.372C134.357 400.503 134.663 400.643 134.968 400.748C135.492 400.975 136.016 401.158 136.549 401.35C136.942 401.49 137.326 401.621 137.711 401.743C138.322 401.935 138.925 402.11 139.536 402.259C140.147 402.407 140.759 402.556 141.387 402.695L142.313 402.87C143.353 403.053 144.27 403.184 145.117 403.272C145.632 403.315 146.147 403.368 146.654 403.385C147.021 403.411 147.37 403.42 147.711 403.429C147.833 403.438 147.981 403.438 148.104 403.438H148.348C148.418 403.446 148.479 403.446 148.54 403.446H148.986C149.195 403.455 149.405 403.455 149.58 403.438C149.973 403.438 150.374 403.429 150.767 403.403C151.134 403.394 151.501 403.368 151.842 403.333H152.051L152.296 403.298C152.575 403.272 152.872 403.254 153.169 403.219C153.352 403.193 153.536 403.176 153.728 403.158C154.016 403.114 154.296 403.08 154.593 403.045C155.064 402.966 155.518 402.887 155.981 402.8L156.121 402.774C156.628 402.678 157.125 402.573 157.606 402.459C158.13 402.346 158.636 402.215 159.134 402.066C160.165 401.787 161.248 401.429 162.453 400.966C163.125 400.704 163.78 400.424 164.435 400.145C164.767 400.005 165.09 399.848 165.413 399.682L193.623 386.005V338.181H201.963V400.818H203.335V350.093H236.513C244.487 350.093 251.762 354.783 255.037 362.041L269.456 393.839V420.669H273.875V428.127H254.74C254.74 427.97 254.74 427.804 254.714 427.673V427.368C254.679 427.132 254.653 426.878 254.609 426.756V426.616V426.564C254.601 426.363 254.557 426.136 254.513 425.97C254.504 425.813 254.487 425.656 254.443 425.542C254.417 425.385 254.391 425.237 254.356 425.088C254.304 424.852 254.251 424.616 254.19 424.372L253.998 423.717C253.963 423.612 253.937 423.516 253.902 423.402C253.832 423.175 253.745 422.931 253.649 422.713C253.596 422.547 253.535 422.372 253.465 422.241C253.282 421.752 253.063 421.28 252.828 420.879C252.766 420.721 252.679 420.564 252.601 420.416L252.513 420.258C252.242 419.761 251.902 419.237 251.465 418.625C251.378 418.494 251.29 418.372 251.186 418.25C250.994 417.988 250.793 417.734 250.583 417.499C250.417 417.298 250.251 417.106 250.068 416.913C249.876 416.713 249.684 416.503 249.491 416.337C249.308 416.145 249.116 415.962 248.915 415.787C248.679 415.568 248.426 415.359 248.164 415.158L247.605 414.73C245.046 412.852 242.042 411.717 238.906 411.438C238.417 411.385 237.876 411.35 237.308 411.35C236.74 411.35 236.199 411.376 235.736 411.429C235.675 411.429 235.605 411.429 235.553 411.438C235.256 411.464 234.959 411.499 234.653 411.542C231.876 411.97 229.238 413.071 227.029 414.704C226.837 414.835 226.636 414.983 226.47 415.132C226.208 415.333 225.954 415.542 225.71 415.761C225.509 415.935 225.326 416.119 225.151 416.302C224.941 416.486 224.749 416.695 224.575 416.887C224.382 417.079 224.208 417.272 224.051 417.472C223.832 417.717 223.631 417.961 223.439 418.223C223.361 418.32 223.299 418.407 223.16 418.599C222.767 419.141 222.409 419.691 222.103 420.241L222.016 420.398C221.928 420.547 221.85 420.695 221.797 420.835C221.57 421.254 221.352 421.726 221.16 422.197C221.081 422.346 221.02 422.52 220.985 422.66C220.88 422.887 220.81 423.106 220.714 423.411L220.583 423.822L220.426 424.354C220.365 424.59 220.304 424.826 220.26 425.062C220.225 425.219 220.199 425.368 220.182 425.499C220.138 425.638 220.112 425.795 220.112 425.918C220.077 426.075 220.051 426.215 220.024 426.433C220.016 426.503 219.998 426.573 220.007 426.608C219.981 426.747 219.972 426.896 219.955 427.036L219.937 427.237C219.928 427.376 219.911 427.507 219.911 427.63C219.902 427.795 219.885 427.97 219.893 428.084C219.893 428.084 219.893 428.092 219.893 428.101H186.199C186.199 428.031 186.191 427.97 186.182 427.892C186.173 427.603 186.156 427.341 186.121 427.088C186.121 427.036 186.121 426.957 186.112 426.913C186.086 426.651 186.051 426.389 186.007 426.119C185.972 425.839 185.911 425.551 185.85 425.254C185.798 425.009 185.736 424.765 185.649 424.416C185.588 424.162 185.518 423.918 185.448 423.673L185.221 423.743L185.396 423.551C185.326 423.28 185.239 423.018 185.099 422.678C185.012 422.442 184.924 422.197 184.819 421.97C184.715 421.726 184.592 421.464 184.479 421.219C184.357 420.957 184.226 420.704 184.086 420.459C183.964 420.223 183.833 419.996 183.675 419.734C183.562 419.534 183.44 419.35 183.317 419.167L183.116 418.87C182.985 418.678 182.854 418.486 182.715 418.32C182.557 418.101 182.391 417.892 182.217 417.673C182.095 417.534 181.964 417.376 181.841 417.237C181.212 416.52 180.54 415.874 179.859 415.315C179.702 415.184 179.544 415.053 179.37 414.922C179.099 414.704 178.811 414.503 178.523 414.328C178.365 414.206 178.208 414.11 178.051 414.014C177.728 413.813 177.413 413.621 177.081 413.446C176.828 413.298 176.575 413.167 176.322 413.053C174.444 412.154 172.444 411.603 170.365 411.42C169.876 411.359 169.352 411.333 168.767 411.333C168.182 411.333 167.667 411.359 167.178 411.42C164.034 411.7 161.029 412.835 158.488 414.704C158.296 414.835 158.103 414.983 157.929 415.132C157.667 415.333 157.422 415.542 157.16 415.769C156.968 415.944 156.785 416.127 156.601 416.302C156.435 416.451 156.287 416.608 156.13 416.774L156.025 416.887C155.841 417.079 155.667 417.272 155.51 417.464C155.291 417.708 155.09 417.953 154.907 418.215C154.828 418.32 154.759 418.416 154.628 418.59C154.208 419.158 153.868 419.699 153.588 420.224C153.466 420.433 153.361 420.625 153.265 420.826C153.021 421.28 152.811 421.743 152.636 422.189C152.558 422.337 152.488 422.52 152.444 422.66C152.348 422.905 152.261 423.141 152.191 423.376C152.138 423.525 152.095 423.664 152.069 423.804C152.007 423.979 151.964 424.154 151.911 424.337C151.842 424.582 151.78 424.817 151.737 425.053C151.702 425.21 151.676 425.359 151.658 425.49C151.614 425.63 151.597 425.787 151.58 425.918C151.545 426.11 151.51 426.328 151.483 426.608C151.449 426.852 151.414 427.105 151.405 427.333C151.396 427.437 151.379 427.542 151.379 427.621C151.361 427.795 151.352 427.961 151.361 428.084C151.361 428.084 151.361 428.092 151.361 428.101H149.274C149.274 427.953 149.265 427.787 149.248 427.647C149.248 427.542 149.239 427.437 149.213 427.245C149.195 427.036 149.169 426.826 149.134 426.721V426.538C149.125 426.337 149.082 426.119 149.047 425.926L149.029 425.804C149.012 425.699 149.003 425.595 148.977 425.516C148.959 425.376 148.925 425.245 148.881 425.071C148.855 424.887 148.802 424.695 148.75 424.503L148.706 424.337C148.663 424.154 148.61 423.979 148.558 423.822C148.523 423.665 148.479 423.525 148.427 423.368C148.357 423.14 148.27 422.896 148.139 422.564C148.086 422.433 148.034 422.302 147.99 422.206C147.815 421.734 147.597 421.271 147.361 420.835C147.3 420.686 147.221 420.555 147.143 420.416L147.038 420.224C146.732 419.665 146.374 419.114 145.99 418.599C145.938 418.512 145.877 418.424 145.815 418.346L145.676 418.154C145.492 417.909 145.309 417.682 145.108 417.464L145.021 417.368C144.872 417.202 144.732 417.044 144.54 416.835C144.366 416.651 144.191 416.459 144.025 416.302C143.833 416.11 143.649 415.935 143.449 415.752C143.195 415.534 142.951 415.324 142.671 415.106C142.497 414.966 142.322 414.826 142.139 414.695C139.597 412.817 136.584 411.682 133.44 411.411C132.951 411.35 132.427 411.324 131.842 411.324C131.257 411.324 130.741 411.35 130.252 411.411C128.182 411.595 126.182 412.145 124.296 413.053C124.043 413.176 123.781 413.307 123.545 413.446C123.213 413.621 122.872 413.813 122.575 414.014C122.401 414.11 122.252 414.215 122.113 414.32C121.859 414.477 121.615 414.651 121.379 414.835L121.257 414.931C121.099 415.044 120.942 415.175 120.768 415.324C120.078 415.883 119.414 416.529 118.785 417.245L118.392 417.691L117.903 418.32C117.772 418.486 117.658 418.651 117.545 418.826L117.3 419.193C117.178 419.376 117.065 419.551 116.96 419.743C116.82 419.979 116.68 420.215 116.532 420.468C116.401 420.721 116.27 420.966 116.156 421.219C116.043 421.429 115.947 421.656 115.859 421.874L115.816 421.979C115.737 422.145 115.676 422.311 115.615 422.477L115.492 422.774V422.844ZM115.781 428.844C115.781 419.97 122.995 412.748 131.859 412.748C140.724 412.748 147.955 419.97 147.955 428.844C147.955 437.717 140.732 444.922 131.859 444.922C122.986 444.922 115.781 437.708 115.781 428.844ZM1046.63 456.599H1.31877V446.337H881.984C882.709 446.433 883.425 446.477 884.185 446.477H944.001C944.761 446.477 945.503 446.424 946.193 446.337H1046.65V456.599H1046.63Z"
    fill="#F15B25" />
  <path
    d="M570.721 335.019V336.373H580.642V341.805L570.956 345.281V404.241H612.406V330.408L602.712 333.884V326.015H612.633V324.661H602.712V315.648H612.633V314.294H602.712V305.281H612.633V303.928H602.712V294.915H612.633V293.561H602.712V284.548H612.633V283.194H602.712V274.181H612.633V272.827H602.712V262.906H601.358V272.827H592.345V262.906H590.991V272.827H581.978V262.906H580.624V272.827H570.703V274.181H580.624V283.194H570.703V284.548H580.624V293.561H570.703V294.915H580.624V303.928H570.703V305.281H580.624V314.294H570.703V315.648H580.624V324.661H570.703V326.015H580.624V335.028H570.703L570.721 335.019ZM590.048 314.294H582.948L586.502 310.748L590.057 314.294H590.048ZM582.948 305.281H590.048L586.493 308.827L582.939 305.281H582.948ZM587.454 309.788L591 306.233V313.334L587.454 309.779V309.788ZM600.406 314.294H593.306L596.86 310.748L600.415 314.294H600.406ZM593.306 305.281H600.406L596.851 308.827L593.297 305.281H593.306ZM597.812 309.788L601.358 306.233V313.334L597.812 309.779V309.788ZM601.358 282.26L597.812 278.705L601.358 275.15V282.251V282.26ZM600.406 283.212H593.306L596.86 279.657L600.415 283.212H600.406ZM600.406 274.199L596.851 277.744L593.297 274.199H600.397H600.406ZM592.354 275.15L595.908 278.705L592.354 282.26V275.159V275.15ZM592.354 284.557H601.367V293.57H592.354V284.557ZM592.354 294.915H601.367V303.928H592.354V294.915ZM592.354 306.224L595.908 309.779L592.354 313.334V306.233V306.224ZM592.354 315.631H601.367V324.644H592.354V315.631ZM592.354 325.988H601.367V334.338L599.541 334.993H592.362V325.98L592.354 325.988ZM595.768 336.346L592.354 337.569V336.346H595.768ZM591 282.242L587.454 278.688L591 275.133V282.233V282.242ZM590.048 283.194H582.948L586.502 279.64L590.057 283.194H590.048ZM590.048 274.181L586.493 277.727L582.939 274.181H590.039H590.048ZM581.996 275.133L585.55 278.688L581.996 282.242V275.142V275.133ZM581.996 284.539H591.009V293.552H581.996V284.539ZM581.996 294.897H591.009V303.91H581.996V294.897ZM581.996 306.207L585.55 309.762L581.996 313.316V306.216V306.207ZM581.996 315.613H591.009V324.626H581.996V315.613ZM581.996 325.971H591.009V334.984H581.996V325.971ZM591.009 336.329V338.041L581.996 341.272V336.329H591.009Z"
    fill="#F15B25" />
  <path d="M453.56 436.267H452.206V438.145H453.56V436.267Z" fill="#F15B25" />
  <path d="M460.127 439.97H458.773V441.848H460.127V439.97Z" fill="#F15B25" />
  <path d="M460.389 435.568H459.036V437.446H460.389V435.568Z" fill="#F15B25" />
  <path d="M463.21 426.232H461.857V428.11H463.21V426.232Z" fill="#F15B25" />
  <path d="M467.271 431.202H465.917V433.079H467.271V431.202Z" fill="#F15B25" />
  <path d="M468.677 438.564H467.323V440.442H468.677V438.564Z" fill="#F15B25" />
  <path d="M471.499 433.612H470.145V435.49H471.499V433.612Z" fill="#F15B25" />
  <path d="M477.175 437.857H475.821V439.734H477.175V437.857Z" fill="#F15B25" />
  <path d="M480.415 431.603H479.061V433.481H480.415V431.603Z" fill="#F15B25" />
  <path d="M486.091 434.861H484.738V436.739H486.091V434.861Z" fill="#F15B25" />
  <path d="M492.144 438.8H490.791V440.677H492.144V438.8Z" fill="#F15B25" />
  <path d="M495.166 434.162H493.813V436.04H495.166V434.162Z" fill="#F15B25" />
  <path d="M501.568 440.677H500.215V442.555H501.568V440.677Z" fill="#F15B25" />
  <path
    d="M430.415 395.874C429.979 394.617 429.079 393.595 427.883 393.018C427.193 392.687 426.459 392.512 425.708 392.512C423.804 392.512 422.049 393.612 421.21 395.315C420.625 396.512 420.546 397.866 420.983 399.132C421.42 400.398 422.319 401.411 423.507 401.997C424.197 402.337 424.931 402.503 425.69 402.503C426.241 402.503 426.791 402.407 427.315 402.232C428.564 401.796 429.577 400.914 430.162 399.726L431.524 400.39L432.118 399.176L430.59 398.433C430.756 397.577 430.695 396.704 430.415 395.892V395.874ZM426.878 400.94C426.494 401.071 426.092 401.141 425.69 401.141C425.14 401.141 424.599 401.018 424.101 400.765C423.228 400.337 422.573 399.595 422.258 398.678C421.952 397.796 421.996 396.844 422.424 395.927L428.957 399.114C428.529 399.979 427.795 400.625 426.878 400.931V400.94ZM423.245 394.835C423.918 394.215 424.808 393.866 425.725 393.866C426.276 393.866 426.8 393.988 427.297 394.232C428.171 394.66 428.826 395.403 429.14 396.32C429.297 396.791 429.359 397.28 429.315 397.796L423.254 394.835H423.245Z"
    fill="#F15B25" />
  <path
    d="M148.985 336.504C149.789 336.504 150.618 336.539 151.431 336.609C154.592 336.888 157.797 337.805 160.959 339.333L183.16 350.093L183.745 348.879L161.544 338.119C158.234 336.513 154.872 335.552 151.544 335.264C150.688 335.185 149.824 335.15 148.977 335.15C145.09 335.15 141.3 335.945 137.728 337.517L94.811 356.39L95.3525 357.63L138.269 338.757C141.667 337.264 145.273 336.504 148.977 336.504H148.985Z"
    fill="#F15B25" />
  <path
    d="M139.588 428.861C139.588 424.616 136.129 421.158 131.885 421.158C127.64 421.158 124.182 424.616 124.182 428.861C124.182 433.105 127.64 436.564 131.885 436.564C136.129 436.564 139.588 433.105 139.588 428.861ZM125.535 428.861C125.535 425.359 128.382 422.512 131.885 422.512C135.387 422.512 138.234 425.359 138.234 428.861C138.234 432.363 135.387 435.21 131.885 435.21C128.382 435.21 125.535 432.363 125.535 428.861Z"
    fill="#F15B25" />
  <path
    d="M176.513 428.861C176.513 424.616 173.055 421.158 168.81 421.158C164.566 421.158 161.107 424.616 161.107 428.861C161.107 433.105 164.566 436.564 168.81 436.564C173.055 436.564 176.513 433.105 176.513 428.861ZM162.461 428.861C162.461 425.359 165.308 422.512 168.81 422.512C172.313 422.512 175.16 425.359 175.16 428.861C175.16 432.363 172.313 435.21 168.81 435.21C165.308 435.21 162.461 432.363 162.461 428.861Z"
    fill="#F15B25" />
  <path
    d="M237.351 421.158C236.748 421.158 236.146 421.228 235.569 421.368C235.264 421.437 234.949 421.533 234.661 421.638C232.486 422.459 230.81 424.188 230.058 426.389C229.962 426.686 229.875 426.983 229.805 427.298C229.7 427.83 229.648 428.337 229.648 428.861C229.648 431.132 230.644 433.28 232.39 434.756C232.844 435.132 233.281 435.429 233.744 435.664C234.844 436.25 236.093 436.564 237.351 436.564C238.609 436.564 239.857 436.25 240.958 435.664C241.421 435.42 241.866 435.123 242.39 434.686C242.635 434.477 242.871 434.241 243.098 433.996C244.355 432.573 245.054 430.756 245.054 428.87C245.054 424.625 241.595 421.167 237.351 421.167V421.158ZM242.373 432.739C242.172 433.001 241.962 433.236 241.735 433.446C241.368 433.804 240.958 434.118 240.504 434.372C239.552 434.922 238.46 435.21 237.351 435.21C236.242 435.21 235.15 434.922 234.198 434.372C232.224 433.236 231.002 431.132 231.002 428.861C231.002 428.354 231.063 427.865 231.185 427.394C231.237 427.123 231.325 426.843 231.447 426.547C232.05 424.983 233.29 423.699 234.836 423.027C235.106 422.905 235.386 422.817 235.692 422.739C236.216 422.582 236.775 422.512 237.351 422.512C240.853 422.512 243.7 425.359 243.7 428.861C243.7 430.284 243.237 431.621 242.373 432.739Z"
    fill="#F15B25" />
  <path
    d="M256.705 386.04L247.439 365.56C245.5 361.298 241.229 358.538 236.539 358.538H220.775V395.359H256.722L256.705 386.04ZM230.478 394.005L229.875 387.944C229.666 385.909 231.089 384.084 233.107 383.778C233.299 383.752 233.5 383.735 233.692 383.735C235.413 383.735 236.932 384.896 237.378 386.564L238.661 391.464L237.779 391.115L234.006 385.927L232.915 386.722L236.923 392.224L241.439 393.997H230.487L230.478 394.005ZM255.377 394.005H249.072L250.417 391.141L249.194 390.564L247.578 394.005L245.168 394.023L240.207 392.075L238.67 386.215C238.059 383.962 236.015 382.381 233.683 382.381C233.421 382.381 233.159 382.399 232.897 382.442C230.164 382.861 228.251 385.333 228.531 388.084L229.124 394.005H222.129V359.883H236.539C240.696 359.883 244.495 362.329 246.207 366.119L255.377 386.329V394.005Z"
    fill="#F15B25" />
  <path
    d="M237.893 372.573C237.465 371.814 236.863 371.176 236.129 370.739C235.352 370.268 234.461 370.014 233.561 370.014C233.16 370.014 232.749 370.067 232.356 370.163C229.684 370.827 228.051 373.534 228.706 376.206C229.256 378.442 231.247 379.997 233.553 379.997C233.954 379.997 234.356 379.944 234.749 379.848C236.042 379.525 237.133 378.722 237.823 377.586C238.505 376.451 238.714 375.124 238.4 373.84L239.867 373.473L239.544 372.163L237.893 372.573ZM232.671 371.473C232.959 371.403 233.256 371.368 233.553 371.368C234.208 371.368 234.854 371.552 235.43 371.892C235.858 372.145 236.216 372.495 236.513 372.914L229.963 374.53C230.155 373.062 231.238 371.822 232.679 371.473H232.671ZM236.662 376.888C236.155 377.717 235.361 378.311 234.417 378.538C234.129 378.608 233.832 378.643 233.535 378.643C232.88 378.643 232.225 378.46 231.658 378.119C230.837 377.621 230.251 376.835 230.016 375.901L237.081 374.154C237.308 375.089 237.151 376.058 236.653 376.879L236.662 376.888Z"
    fill="#F15B25" />
  <path
    d="M932.953 359.403H896.787C894.805 359.403 893.145 360.966 893.023 362.958L890.848 402.058H940.368L936.691 362.818C936.507 360.87 934.9 359.403 932.944 359.403H932.953ZM914.167 392.433L907.451 394.267L907.809 395.569L914.167 393.831V400.695H900.813L905.547 396.765L906.656 398.983L907.861 398.381L903.564 389.761L902.359 390.363L904.936 395.516L898.709 400.686H892.281L894.385 363.019C894.464 361.735 895.53 360.731 896.796 360.731H914.176V392.416L914.167 392.433ZM915.521 400.695V393.455L919.136 392.442L926.778 385.508L925.87 384.512L919.538 390.311L921.005 384.748C921.451 383.08 922.962 381.918 924.673 381.918C924.874 381.918 925.066 381.936 925.267 381.962C927.285 382.267 928.7 384.101 928.499 386.128L927.014 400.686H915.521V400.695ZM928.368 400.695L929.844 386.276C930.123 383.525 928.202 381.053 925.477 380.634C925.206 380.591 924.935 380.573 924.673 380.573C922.35 380.573 920.307 382.154 919.695 384.407L917.835 391.429L915.521 392.066V360.748H932.962C934.21 360.748 935.241 361.691 935.363 362.94L938.892 400.695H928.368Z"
    fill="#F15B25" />
  <path
    d="M925.748 368.862C925.617 368.853 925.486 368.844 925.355 368.844C924.167 368.844 923.015 369.263 922.115 370.032C921.46 370.591 920.971 371.307 920.674 372.128L918.98 371.997L918.875 373.342L920.377 373.464C920.281 374.783 920.7 376.058 921.556 377.062C922.421 378.075 923.626 378.696 924.954 378.8C925.085 378.809 925.224 378.818 925.355 378.818C927.94 378.818 930.124 376.8 930.325 374.224C930.429 372.896 930.01 371.604 929.146 370.591C928.281 369.578 927.076 368.958 925.74 368.853L925.748 368.862ZM922.988 371.062C923.652 370.495 924.473 370.189 925.347 370.189C925.443 370.189 925.547 370.189 925.644 370.198C926.613 370.276 927.495 370.722 928.124 371.464C928.447 371.84 928.683 372.285 928.823 372.774L922.089 372.241C922.307 371.779 922.613 371.377 922.988 371.054V371.062ZM925.355 377.473C925.259 377.473 925.154 377.473 925.058 377.464C924.089 377.385 923.207 376.94 922.578 376.198C921.967 375.49 921.661 374.591 921.722 373.578L928.971 374.154C928.805 376.023 927.224 377.482 925.355 377.482V377.473Z"
    fill="#F15B25" />
  <path
    d="M316.644 66.6369V81.0385H332.662V75.8159L326.242 66.6369H316.635H316.644ZM331.317 79.6849H317.998V67.9906H325.544L331.317 76.2438V79.6936V79.6849Z"
    fill="#F15B25" />
</svg>