<?xml version="1.0" encoding="UTF-8"?>
<svg id="Layer_1" data-name="Layer 1" xmlns="http://www.w3.org/2000/svg" viewBox="0 0 1160 150">
  <defs>
    <style>
      .cls-1 {
        fill: #f15b25;
      }

      .cls-2 {
        fill: #476473;
      }

      .cls-3 {
        fill: none;
        stroke: #fff;
        stroke-miterlimit: 10;
      }
    </style>
  </defs>
  <g>
    <g>
      <path class="cls-2" d="M837.17,93.99c0,8.17-4.12,14.42-12.59,19.11l-22.09,12.24,6.2,11.18,22.09-12.24c12.54-6.95,19.18-17.43,19.18-30.29V33h-12.78v60.99Z"/>
      <path class="cls-2" d="M815.1,75.64V34.73h-63.03v12.78h50.25v28.13c0,14.94-15.26,16.55-21.82,16.55h-32.91v12.78h32.91c21.02,0,34.6-11.51,34.6-29.34Z"/>
      <path class="cls-2" d="M907.74,32.24h-36.69l-4.77,43.42c-1.11,8.09,1.48,15.91,7.12,21.48,5,4.93,11.97,7.65,19.28,7.65,1.5,0,3.02-.12,4.54-.35l22.56-3.49c-.82,4.16-3.56,7.31-8.76,10.19l-25.65,14.21,6.2,11.18,25.65-14.21c10.07-5.58,15.3-13.45,15.58-23.39h.03V55.06c0-14.08-9.61-22.82-25.08-22.82Zm12.3,55.73l-24.78,3.84c-4.9,.76-9.72-.65-12.88-3.76-2.79-2.76-4.01-6.56-3.43-10.7l3.56-32.32h25.24c12.3,0,12.3,7.04,12.3,10.04v32.9Z"/>
      <path class="cls-2" d="M715.39,92.84h-16.65c-4.53,0-8.21-3.68-8.21-8.21v-27.19h-12.78v22.47c0,2.9-.78,6.59-6.83,9.45-4.03,1.9-9.89,3.04-15.68,3.04-4.38,0-18.66-.93-18.66-12.86V36.19h-44.02v41.47c0,4.17-1.14,7.32-3.49,9.65-3.51,3.47-10.03,5.37-18.39,5.27l-86.22-.8c-6.82-.06-12.77-1.31-16.75-3.51-3.95-2.19-5.8-5.17-5.82-9.36l-.12-44.47-12.78,.04,.12,44.49c.08,15.6,13.58,25.4,35.24,25.6l86.22,.8c.2,0,.4,0,.6,0,11.68,0,20.98-3.1,26.91-8.98,4.83-4.78,7.27-11.09,7.27-18.73v-28.69h18.46v30.56c0,15.34,12.64,25.64,31.44,25.64,4.53,0,13.29-.55,21.15-4.27,2.13-1.01,4.03-2.19,5.7-3.53,3.84,5,9.88,8.24,16.66,8.24h29.44V33h-12.78v59.84Z"/>
      <rect class="cls-2" x="499.11" y="36.19" width="55.99" height="12.78"/>
      <polygon class="cls-2" points="916.18 8.66 914.9 4.86 879.85 13.61 881.12 17.41 916.18 8.66"/>
    </g>
    <g>
      <path class="cls-2" d="M8.4,55.56c0,4.85,2.91,7.45,9.26,7.45h7.21l.27-2.94h-7.28c-4.68,0-6.63-1.5-6.63-4.82,0-2.87,1.26-4.79,5.64-6.84l3.08-1.47c1.37,3.28,2.87,4.2,5.57,4.2h3.41c3.35,0,5.61-2.02,5.61-5.43V29.04h-2.87v16.65c0,1.57-1.13,2.53-2.73,2.53h-3.3c-1.78,0-2.7-.55-3.49-2.43l3.21-1.4c-1.13-5.67-2.87-7.31-6.8-7.31H10.39l-.38,2.97h8.07c2.43,0,3.15,.68,3.97,3.11l-6.29,2.87c-5.4,2.5-7.35,5.61-7.35,9.54Z"/>
      <path class="cls-2" d="M46.87,51.15h7.19c2.15,0,3.66-.65,4.48-2.02,.72,1.33,2.19,2.02,4.65,2.02h9.13c1.91,0,3.59-.55,4.79-1.54,1.13,1.2,2.39,1.54,4.68,1.54h1.56c2.12,0,3.32-.65,4.07-2.12,.79,1.37,2.39,2.12,4.79,2.12,4,0,6.43-2.43,6.43-6.67,0-4.48-2.26-6.9-6.32-6.9s-6.53,2.67-6.53,7.04v1.4c0,1.47-.79,2.19-2.43,2.19h-1.56c-1.5,0-2.46-.17-3.11-.75,.55-.96,.82-2.05,.82-3.32,0-4.14-2.73-7.04-6.46-7.04s-7.18,3.04-11.48,10.73c-.96-.34-1.47-1.03-1.47-2.43v-5.26h-2.84v5.37c0,1.64-1.13,2.7-3.18,2.7h-7.95c-1.74,0-2.6-1.06-2.6-3.18v-16h-2.84v16.13c0,3.76,1.78,5.98,5.3,5.98h.89Zm45.32-10.7c2.43,0,3.59,1.37,3.59,4.03s-1.23,3.73-3.59,3.73-3.59-1.37-3.59-3.59c0-2.8,1.16-4.17,3.59-4.17Zm-19.36-.51c2.19,0,3.83,1.71,3.83,4.21s-1.57,4.07-4.34,4.07h-7.96c3.32-5.64,5.88-8.27,8.48-8.27Z"/>
      <rect class="cls-2" x="135.12" y="33.34" width="9.02" height="2.7"/>
      <path class="cls-2" d="M121.17,59.49h1.5c5.43,0,9.19-3.66,9.3-8.92v-.41c.48,.58,1.47,.99,3.04,.99,2.15,0,3.66-.75,4.51-2.12,.62,1.37,2.05,2.12,4.41,2.12,3.55,0,5.81-2.12,5.81-5.71v-5.3h-2.84v5.37c0,1.71-1.06,2.7-2.97,2.7s-2.87-.99-2.87-2.7v-5.37h-2.84v5.37c0,1.64-1.13,2.7-3.21,2.7s-3.04-1.06-3.04-2.63v-5.43h-2.84v10.08c0,3.9-2.56,6.32-6.46,6.32h-1.44c-4.07,0-6.19-2.29-6.19-6.6v-6.39h-2.84v6.46c0,5.95,3.18,9.47,8.96,9.47Z"/>
      <rect class="cls-2" x="138.09" y="28.66" width="3.11" height="2.7"/>
      <path class="cls-2" d="M159.36,56.55h-4.51l.27,2.94h4.2c5.4,0,8.89-3.59,8.89-9.43v-4.72c0-4.58-2.43-7.42-6.39-7.42s-6.49,2.94-6.49,7.25c0,4.07,1.88,5.98,6.63,5.98h3.42c-.03,3.32-2.36,5.4-6.02,5.4Zm2.77-8.34c-2.97,0-3.96-.89-3.96-3.21,0-2.49,1.37-4.2,3.49-4.2,2.43,0,3.73,1.61,3.73,4.75v2.67h-3.25Z"/>
      <path class="cls-2" d="M183.14,51.15h7.69c5.47,0,8.37-2.15,8.37-6.43v-1.16c0-4.65-2.43-7.35-6.6-7.35-3.79,0-6.56,2.84-6.56,6.49,0,2.63,1.2,4,4.89,5.37-.44,.1-1.16,.14-1.74,.14h-6.49c-1.88,0-2.87-.96-2.87-2.63v-5.43h-2.84v10.02c0,4.03-2.32,6.39-6.19,6.39h-1.16l.27,2.94h.96c5.3,0,8.85-3.56,8.96-9.09v-.41c.48,.68,1.64,1.16,2.87,1.16h.44Zm5.74-8.51c0-1.95,1.64-3.56,3.66-3.56,2.49,0,3.83,1.54,3.83,4.65v.82c0,1.37-.44,2.36-1.23,3.01-4.92-1.61-6.25-2.73-6.25-4.92Z"/>
      <rect class="cls-2" x="190.62" y="29.79" width="3.62" height="2.84"/>
      <path class="cls-2" d="M219.42,37.92c-3.83,0-6.49,2.94-6.49,7.25,0,4.07,1.88,5.98,6.63,5.98h3.42c-.03,3.32-2.36,5.4-6.02,5.4h-4.51l.27,2.94h4.2c5.4,0,8.89-3.59,8.89-9.43v-4.72c0-4.58-2.43-7.42-6.39-7.42Zm3.55,10.29h-3.25c-2.97,0-3.96-.89-3.96-3.21,0-2.49,1.37-4.2,3.49-4.2,2.43,0,3.73,1.61,3.73,4.75v2.67Z"/>
      <rect class="cls-2" x="256.38" y="55.46" width="9.02" height="2.73"/>
      <path class="cls-2" d="M269.88,45.72v-5.57h-2.87v5.54c0,1.64-1.13,2.53-2.73,2.53h-8.95c-1.64,0-2.39-.82-3.11-2.87l-4-11.35-2.63,1.2c3.14,8.48,3.79,10.19,3.79,11.18,0,1.06-1.06,1.85-2.67,1.85h-8.27l.27,2.94h8c2.08,0,3.45-.65,4.31-2.15,.79,1.5,2.15,2.15,4.2,2.15h9.05c3.35,0,5.61-2.02,5.61-5.43Z"/>
      <path class="cls-2" d="M271.31,59.49c5.3,0,8.85-3.56,8.96-9.09v-.41c.48,.68,1.64,1.16,2.87,1.16h2.73c4.03,0,6.32-.62,9.23-2.43l7.18-4.44c-1.3-5.4-3.08-7.21-7.14-7.21h-8.1l-.38,2.97h8c2.46,0,3.59,.79,4.31,3.28l-5.2,3.04c-2.39,1.37-4.34,1.85-7.79,1.85h-2.83c-1.88,0-2.87-.96-2.87-2.63v-5.43h-2.84v10.02c0,4.03-2.32,6.39-6.19,6.39h-1.16l.27,2.94h.96Z"/>
      <rect class="cls-2" x="290.96" y="30.23" width="3.62" height="2.84"/>
      <path class="cls-2" d="M312.99,59.49c5.3,0,8.96-3.56,8.96-9.33v-10.02h-2.84v10.02c0,4.03-2.32,6.39-6.19,6.39h-1.16l.27,2.94h.96Z"/>
      <rect class="cls-2" x="331.95" y="55.46" width="9.02" height="2.73"/>
      <rect class="cls-2" x="349" y="33.34" width="9.02" height="2.7"/>
      <path class="cls-2" d="M384.13,45.51c0,1.71-1.03,2.7-2.94,2.7s-2.91-.99-2.91-2.7v-5.37h-2.84v5.37c0,1.64-1.13,2.7-3.18,2.7s-3.04-.99-3.04-2.7v-5.37h-2.87v5.37c0,1.64-1.13,2.7-3.18,2.7h-3.13c-1.78,0-2.73-.89-2.73-2.6v-5.47h-2.84v5.54c0,1.57-1.16,2.53-2.9,2.53h-5.05c-1.78,0-2.73-.89-2.73-2.6v-5.47h-2.84v5.54c0,1.57-1.16,2.53-2.9,2.53h-4.85c-1.74,0-2.6-1.06-2.6-3.18v-16h-2.84v16.13c0,3.76,1.78,5.98,5.3,5.98h4.98c1.95,0,3.45-.65,4.27-2.02,.65,1.37,2.08,2.02,4.1,2.02h5.16c1.95,0,3.45-.65,4.27-2.02,.65,1.37,2.08,2.02,4.1,2.02h3.24c2.15,0,3.66-.75,4.48-2.12,.65,1.37,2.08,2.12,4.61,2.12,2.15,0,3.66-.75,4.48-2.12,.65,1.37,2.09,2.12,4.44,2.12,3.52,0,5.78-2.12,5.78-5.71v-5.3h-2.84v5.37Z"/>
      <path class="cls-2" d="M407.49,46.09c0-1.44-.51-2.87-2.05-4.61l-6.56-7.55-2.02,2.02,6.39,7.35c.99,1.16,1.4,1.95,1.4,2.77,0,1.3-1.13,2.15-3.15,2.15h-10.01l.27,2.94h9.74c3.9,0,5.98-2.12,5.98-5.06Z"/>
      <path class="cls-2" d="M37.49,86.68c0,1.64-1.16,2.53-2.77,2.53H17.34l-.31,2.84h6.36c1.33,0,1.91,.55,1.91,1.78,0,2.29-2.19,3.73-6.43,3.73h-2.56c-4.07,0-6.19-2.29-6.19-6.6v-6.39h-2.84v6.46c0,5.95,3.18,9.47,8.96,9.47h2.63c5.64,0,9.26-2.77,9.26-6.73,0-.65-.17-1.27-.51-1.61h7.1c3.35,0,5.6-2.02,5.6-5.43v-5.57h-2.84v5.54Z"/>
      <rect class="cls-2" x="35.13" y="74.2" width="3.62" height="2.84"/>
      <rect class="cls-2" x="145.57" y="74.34" width="9.02" height="2.7"/>
      <rect class="cls-2" x="164.95" y="71.23" width="3.62" height="2.84"/>
      <path class="cls-2" d="M169.12,78.07h-8.1l-.38,2.97h8c2.46,0,3.59,.79,4.31,3.28l-5.2,3.04c-2.39,1.37-4.34,1.84-7.79,1.84h-3.34c-1.78,0-2.73-.89-2.73-2.6v-5.47h-2.84v5.54c0,1.57-1.16,2.53-2.91,2.53H70.74c-1.54,0-2.36-.79-2.36-2.77v-.96c0-4.48-2.26-6.9-6.32-6.9s-6.53,2.67-6.53,7.04v1.4c0,1.47-.79,2.19-2.43,2.19h-1.53c-1.74,0-2.6-1.06-2.6-3.18v-16h-2.84v16.13c0,3.76,1.78,5.98,5.3,5.98h1.67c2.12,0,3.32-.65,4.07-2.12,.79,1.37,2.39,2.12,4.79,2.12,2.09,0,3.97-.72,4.92-2.19,.62,1.54,1.91,2.19,3.86,2.19h77.4c1.95,0,3.45-.65,4.27-2.02,.65,1.37,2.08,2.02,4.1,2.02h3.34c4.03,0,6.32-.62,9.23-2.43l7.18-4.44c-1.3-5.4-3.08-7.21-7.14-7.21Zm-107.16,11.14c-2.29,0-3.59-1.37-3.59-3.59,0-2.8,1.16-4.17,3.59-4.17s3.59,1.37,3.59,4.03-1.23,3.73-3.59,3.73Z"/>
      <path class="cls-2" d="M210.84,86.51c0,1.71-1.03,2.7-2.94,2.7s-2.91-.99-2.91-2.7v-5.37h-2.84v5.37c0,1.64-1.13,2.7-3.18,2.7s-3.04-.99-3.04-2.7v-5.37h-2.87v5.37c0,1.64-1.13,2.7-3.18,2.7h-3.41c-1.74,0-2.6-1.06-2.6-3.18v-16h-2.84v16.13c0,3.76,1.78,5.98,5.3,5.98h3.55c2.15,0,3.66-.75,4.48-2.12,.65,1.37,2.08,2.12,4.61,2.12,2.15,0,3.66-.75,4.48-2.12,.65,1.37,2.09,2.12,4.44,2.12,3.52,0,5.78-2.12,5.78-5.71v-5.3h-2.84v5.37Z"/>
      <rect class="cls-2" x="234.67" y="75.57" width="9.02" height="2.7"/>
      <path class="cls-2" d="M248.31,86.71c0,1.54-1.13,2.49-2.73,2.49h-12.07c-2.39,0-3.38-1.3-3.38-3.35v-4.72h-2.84v5.09c0,3.55,1.95,5.91,6.05,5.91h12.24c3.31,0,5.57-2.02,5.57-5.37v-5.64h-2.84v5.57Z"/>
      <rect class="cls-2" x="256.94" y="70.03" width="2.84" height="22.12"/>
      <rect class="cls-2" x="267.06" y="74.2" width="3.62" height="2.84"/>
      <rect class="cls-2" x="273.44" y="96.45" width="9.02" height="2.73"/>
      <rect class="cls-2" x="357.48" y="96.45" width="3.62" height="2.87"/>
      <path class="cls-2" d="M379.14,86.68c0,1.64-1.16,2.53-2.77,2.53h-5.8c-1.78,0-2.7-.55-3.42-2.29l2.7-1.64c-1.3-5.4-3.08-7.21-7.14-7.21h-8.1l-.38,2.97h8c2.46,0,3.59,.79,4.31,3.28l-5.2,3.04c-2.39,1.37-4.34,1.84-7.79,1.84h-2.39s0,0,0,0c-4.13,0-5.77,.89-7.75,4.48l-2.08,3.83c-3.35,0-5.02-1.61-5.02-5.06v-.41c5.64-.1,9.64-3.38,9.64-7.83,0-3.73-2.36-6.05-6.12-6.05s-6.36,2.84-6.36,7.38v3.66h-44.68c-1.78,0-2.73-.89-2.73-2.6v-5.47h-2.84v5.54c0,1.57-1.16,2.53-2.91,2.53h-6.9c-1.88,0-2.87-.96-2.87-2.63v-5.43h-2.84v10.02c0,4.03-2.32,6.39-6.19,6.39h-2.6l.27,2.94h2.39c5.3,0,8.85-3.56,8.96-9.09v-.41c.48,.68,1.64,1.16,2.87,1.16h6.9c1.95,0,3.45-.65,4.27-2.02,.65,1.37,2.09,2.02,4.1,2.02h44.78v.41c0,5.02,2.97,7.79,7.86,7.79h1.57l2.8-5.16c1.3-2.46,2.49-3.04,5.47-3.04h2.28c4.03,0,6.32-.62,9.23-2.43l2.36-1.47c1.33,2.97,2.73,3.9,5.43,3.9h5.9c3.35,0,5.61-2.02,5.61-5.43v-5.57h-2.84v5.54Zm-42.84-1.13c0-2.91,1.23-4.51,3.49-4.51,2.08,0,3.31,1.2,3.31,3.35,0,2.97-2.6,4.82-6.8,4.82v-3.66Z"/>
      <rect class="cls-2" x="374.02" y="74.34" width="9.02" height="2.7"/>
      <path class="cls-2" d="M402.21,78.92c-3.83,0-6.49,2.94-6.49,7.25,0,4.07,1.88,5.98,6.63,5.98h3.42c-.03,3.32-2.36,5.4-6.02,5.4h-4.51l.27,2.94h4.2c5.4,0,8.89-3.59,8.89-9.43v-4.72c0-4.58-2.43-7.42-6.39-7.42Zm3.55,10.29h-3.25c-2.97,0-3.96-.89-3.96-3.21,0-2.49,1.37-4.2,3.49-4.2,2.43,0,3.73,1.61,3.73,4.75v2.67Z"/>
    </g>
  </g>
  <g>
    <g>
      <rect class="cls-1" x="1085.55" y="5.53" width="31.65" height="107.62"/>
      <rect class="cls-1" x="1022.24" y="49.85" width="31.65" height="63.31"/>
      <rect class="cls-1" x="1053.9" y="113.16" width="31.65" height="31.65"/>
      <rect class="cls-1" x="977.93" y="5.53" width="44.31" height="44.31"/>
    </g>
    <path class="cls-1" d="M1131.71,19.24V8.6h-3.99v-.96h9.07v.96h-3.99v10.64h-1.09Z"/>
    <path class="cls-1" d="M1138.73,19.24V7.64h2.13l3.62,10.98h.2l3.62-10.98h2.13v11.6h-1.06V8.27h-.21l-3.62,10.97h-1.94l-3.62-10.97h-.21v10.97h-1.06Z"/>
  </g>
  <rect class="cls-3" x="-3170.36" y="-903.47" width="7338.96" height="4836.08"/>
</svg>