<?xml version="1.0" encoding="UTF-8"?>
<svg width="176" height="50" viewBox="0 0 176 50" fill="none" xmlns="http://www.w3.org/2000/svg">
  <path
    d="M85.6736 19.6678C85.6736 21.4705 84.7647 22.8504 82.8885 23.8859L78.0146 26.5875L79.3818 29.0535L84.2557 26.3545C87.0256 24.8202 88.4891 22.5086 88.4891 19.6678V6.20825H85.6736V19.6678Z"
    fill="#466473" />
  <path
    d="M80.7998 15.619V6.59033H66.892V9.42351H77.9792V15.6317C77.9792 18.9232 74.6118 19.2827 73.1686 19.2827H65.9072V22.083H73.1686C77.807 22.083 80.8023 19.5511 80.8023 15.6114"
    fill="#466473" />
  <path
    d="M101.245 6.03857H93.1427L92.0894 15.6218C91.9607 16.4798 92.036 17.356 92.3092 18.1795C92.5824 19.003 93.0457 19.7505 93.6617 20.3615C94.8031 21.4607 96.3308 22.0672 97.9153 22.0503C98.2502 22.0492 98.5844 22.023 98.9154 21.9718L103.896 21.2122C103.713 22.1313 103.108 22.825 101.961 23.4605L96.3076 26.5874L97.6748 29.0535L103.336 25.9165C105.557 24.686 106.711 22.9491 106.774 20.7565V11.077C106.774 7.97042 104.655 6.03857 101.24 6.03857M103.954 18.3385L98.485 19.1842C97.9791 19.2754 97.4589 19.2478 96.9655 19.1037C96.4721 18.9596 96.019 18.7028 95.6417 18.3537C95.3359 18.0496 95.1074 17.6766 94.9752 17.2661C94.8431 16.8556 94.8112 16.4194 94.8821 15.994L95.6671 8.86164H101.237C103.951 8.86164 103.951 10.4137 103.951 11.077V18.3385H103.954Z"
    fill="#466473" />
  <path
    d="M58.7978 19.4137H55.1215C54.6413 19.4124 54.1812 19.2209 53.8419 18.8811C53.5026 18.5414 53.3119 18.081 53.3112 17.6009V11.6003H50.4805V16.5577C50.4805 17.1958 50.3108 18.011 48.974 18.644C47.8792 19.1052 46.7006 19.3336 45.5129 19.3149C44.5457 19.3149 41.3935 19.1099 41.3935 16.4767V6.91121H31.6787V16.064C31.6787 16.9831 31.4255 17.6794 30.9191 18.1933C30.1444 18.9529 28.7063 19.3783 26.8681 19.3555L7.83836 19.1782C6.33188 19.1782 5.0204 18.8896 4.14437 18.4187C3.26833 17.9477 2.86321 17.2768 2.85815 16.3526L2.83021 6.53903H0.00976562L0.0375818 16.3552C0.0527732 19.7986 3.0328 21.9608 7.81302 22.0038L26.8428 22.1811H26.9744C29.5519 22.1811 31.6027 21.4975 32.9116 20.1986C33.9776 19.1428 34.5169 17.7528 34.5169 16.0665V9.73681H38.5806V16.4818C38.5806 19.8669 41.3657 22.1406 45.5205 22.1406C46.5181 22.1406 48.4524 22.019 50.1867 21.1987C50.6373 20.9893 51.0621 20.7284 51.4527 20.4214C51.8846 20.9865 52.4409 21.4445 53.0785 21.7598C53.7161 22.0751 54.4177 22.2391 55.129 22.2393H61.6208V6.2124H58.8003L58.7978 19.4137Z"
    fill="#466473" />
  <path d="M23.423 6.91333H11.0674V9.73386H23.423V6.91333Z" fill="#466473" />
  <path d="M103.107 0.838041L102.826 0L95.0908 1.9293L95.3718 2.76734L103.107 0.838041Z"
    fill="#466473" />
  <path
    d="M4.40041 37.1758H4.94227C4.97519 37.1758 5.02325 37.2163 5.02325 37.5379C5.02325 37.8594 4.97519 37.8822 4.94227 37.8822H4.37507C3.7269 37.8822 3.3623 37.6594 3.03569 36.8695L2.29639 37.2214C1.24566 37.7278 0.941807 38.1759 0.941807 38.8646C0.941807 39.6621 1.41022 40.0242 2.53438 40.0242H4.28396L4.21806 40.7306H2.48629C0.96715 40.7306 0.260742 40.1052 0.260742 38.938C0.260742 37.9936 0.729142 37.2467 2.03307 36.6593L3.5522 35.9706C3.35472 35.3858 3.18261 35.2111 2.60027 35.2111H0.660801L0.751915 34.4971H2.71413C3.65853 34.4971 4.07881 34.892 4.34973 36.2542L3.57755 36.591C3.76491 37.0442 3.98773 37.1758 4.41562 37.1758"
    fill="#466473" />
  <path
    d="M5.85921 36.5687V32.5684H6.54794V36.5763C6.54794 37.3967 6.00616 37.8828 5.20102 37.8828H4.94783C4.91492 37.8828 4.86426 37.8575 4.86426 37.5385C4.86426 37.2194 4.91492 37.1764 4.94783 37.1764H5.20102C5.2853 37.185 5.37037 37.1756 5.45075 37.1489C5.53112 37.1221 5.60497 37.0785 5.66722 37.0211C5.72947 36.9636 5.77875 36.8935 5.81186 36.8156C5.84498 36.7376 5.86109 36.6534 5.85921 36.5687Z"
    fill="#466473" />
  <path
    d="M9.59179 37.527C9.59179 37.846 9.55132 37.8713 9.51081 37.8713H9.29817C8.45252 37.8713 8.03223 37.3371 8.03223 36.4332V32.5569H8.70315V36.4003C8.70315 36.9067 8.90829 37.1599 9.32859 37.1599H9.50834C9.54885 37.1599 9.58932 37.1928 9.58932 37.5219"
    fill="#466473" />
  <path
    d="M10.8253 37.5271C10.8253 37.8639 10.7747 37.8714 10.7418 37.8714H9.51131C9.47839 37.8714 9.42773 37.8385 9.42773 37.5271C9.42773 37.2157 9.47839 37.165 9.51131 37.165H10.7418C10.7747 37.165 10.8253 37.2056 10.8253 37.5271Z"
    fill="#466473" />
  <path
    d="M12.0572 37.5271C12.0572 37.8639 12.0091 37.8714 11.9761 37.8714H10.7431C10.7102 37.8714 10.6621 37.8385 10.6621 37.5271C10.6621 37.2157 10.7102 37.165 10.7431 37.165H11.9761C12.0091 37.165 12.0572 37.2056 12.0572 37.5271Z"
    fill="#466473" />
  <path
    d="M13.2877 37.5271C13.2877 37.8639 13.2395 37.8714 13.2066 37.8714H11.9737C11.9408 37.8714 11.8926 37.8385 11.8926 37.5271C11.8926 37.2157 11.9408 37.165 11.9737 37.165H13.2066C13.2395 37.165 13.2877 37.2056 13.2877 37.5271Z"
    fill="#466473" />
  <path
    d="M14.5285 37.5271C14.5285 37.8639 14.4778 37.8714 14.4449 37.8714H13.2144C13.1815 37.8714 13.1309 37.8385 13.1309 37.5271C13.1309 37.2157 13.1815 37.165 13.2144 37.165H14.4449C14.4778 37.165 14.5285 37.2056 14.5285 37.5271Z"
    fill="#466473" />
  <path
    d="M15.7516 37.5271C15.7516 37.8639 15.7034 37.8714 15.6705 37.8714H14.4375C14.4046 37.8714 14.3564 37.8385 14.3564 37.5271C14.3564 37.2157 14.4046 37.165 14.4375 37.165H15.6705C15.7034 37.165 15.7516 37.2056 15.7516 37.5271Z"
    fill="#466473" />
  <path
    d="M16.9835 37.5271C16.9835 37.8639 16.9329 37.8714 16.9 37.8714H15.6669C15.634 37.8714 15.5859 37.8385 15.5859 37.5271C15.5859 37.2157 15.634 37.165 15.6669 37.165H16.9C16.9329 37.165 16.9835 37.2056 16.9835 37.5271Z"
    fill="#466473" />
  <path
    d="M17.992 36.5157V35.2498H18.6756V36.5157C18.6756 36.8525 18.7971 37.0221 19.0275 37.0981C20.0631 35.2498 20.8758 34.5181 21.7873 34.5181C22.6988 34.5181 23.3393 35.2169 23.3393 36.2119C23.3453 36.4894 23.278 36.7636 23.1443 37.0069C23.3619 37.1587 23.6283 37.2237 23.8913 37.1892H24.0787C24.1116 37.1892 24.1622 37.2221 24.1622 37.5513C24.1622 37.8804 24.1116 37.8956 24.0787 37.8956H23.8964C23.3444 37.8956 23.0405 37.8121 22.7696 37.526C22.4415 37.7799 22.0347 37.9107 21.6201 37.8956H19.4276C18.8351 37.8956 18.4832 37.7311 18.311 37.4095C18.1135 37.7386 17.7514 37.8956 17.2349 37.8956H16.9058C16.8729 37.8956 16.8223 37.8703 16.8223 37.5513C16.8223 37.2323 16.8729 37.1892 16.9058 37.1892H17.2349C17.7261 37.1892 17.9945 36.936 17.9945 36.5385M22.6608 36.2119C22.672 36.084 22.6566 35.9551 22.6156 35.8334C22.5746 35.7117 22.5089 35.5998 22.4226 35.5047C22.3363 35.4096 22.2312 35.3334 22.114 35.2808C21.9969 35.2282 21.8702 35.2004 21.7418 35.1992C21.1164 35.1992 20.5012 35.8321 19.7163 37.1867H21.6177C22.2835 37.1867 22.6608 36.8094 22.6608 36.2094"
    fill="#466473" />
  <path
    d="M24.8485 36.6494V36.3126C24.8485 35.2619 25.4385 34.6213 26.4158 34.6213C27.3931 34.6213 27.9349 35.2037 27.9349 36.2797C27.9349 37.2925 27.3501 37.8824 26.3905 37.8824C25.8157 37.8824 25.4283 37.7001 25.2384 37.376C25.0586 37.728 24.7725 37.8824 24.2611 37.8824H24.0738C24.0409 37.8824 23.9902 37.8571 23.9902 37.5381C23.9902 37.2191 24.0409 37.176 24.0738 37.176H24.2611C24.6561 37.176 24.846 37.0039 24.846 36.6494M26.3905 35.31C25.8056 35.31 25.527 35.6392 25.527 36.3228C25.5156 36.439 25.5301 36.5563 25.5695 36.6662C25.6088 36.7761 25.6721 36.876 25.7546 36.9585C25.8372 37.0411 25.9371 37.1044 26.047 37.1437C26.157 37.1831 26.2743 37.1976 26.3905 37.1861C26.9576 37.1861 27.2513 36.8975 27.2513 36.2898C27.2513 35.6822 26.9728 35.3201 26.3905 35.3201"
    fill="#466473" />
  <path
    d="M40.2213 35.2498V36.5157C40.2213 37.3791 39.6769 37.888 38.8237 37.888C38.2565 37.888 37.9122 37.7057 37.7653 37.3816C37.6452 37.5546 37.4815 37.6926 37.2907 37.7815C37.0999 37.8705 36.8889 37.9072 36.6792 37.888C36.5477 37.903 36.4145 37.8895 36.2887 37.8485C36.1629 37.8074 36.0473 37.7397 35.95 37.65V37.7487C35.9246 39.0147 35.0207 39.8907 33.7143 39.8907H33.3523C31.9648 39.8907 31.2002 39.0451 31.2002 37.612V36.06H31.8837V37.5943C31.8837 38.6298 32.3901 39.1793 33.37 39.1793H33.7143C34.6511 39.1793 35.2664 38.5969 35.2664 37.6601V35.2498H35.95V36.5562C35.95 36.9335 36.1779 37.1892 36.6792 37.1892C37.1806 37.1892 37.4514 36.936 37.4514 36.541V35.2498H38.1325V36.541C38.1325 36.9512 38.3629 37.1892 38.8237 37.1892C39.2845 37.1892 39.5376 36.9512 39.5376 36.541V35.2498H40.2213ZM36.7045 33.6167H38.8744V34.2648H36.7045V33.6167ZM38.1654 33.1382H37.4185V32.49H38.1654V33.1382Z"
    fill="#466473" />
  <path
    d="M42.5229 39.8845H41.5101L41.4443 39.1781H42.5279C43.4065 39.1781 43.966 38.6717 43.9736 37.8817H43.1534C42.0115 37.8817 41.5608 37.4209 41.5608 36.4436C41.5608 35.4081 42.2014 34.7017 43.1205 34.7017C44.0396 34.7017 44.6573 35.3853 44.6573 36.474V37.6083C44.6573 39.0135 43.8193 39.887 42.5204 39.887M43.1939 37.1779H43.9736V36.5373C43.9736 35.7777 43.6623 35.3954 43.0799 35.3954C42.5736 35.3954 42.2419 35.8056 42.2419 36.4082C42.2419 36.9652 42.4799 37.1677 43.1939 37.1677"
    fill="#466473" />
  <path
    d="M46.7667 37.6447V35.2495H47.4503V36.556C47.4503 36.9585 47.6883 37.189 48.139 37.189H48.2453C48.2782 37.189 48.3289 37.2294 48.3289 37.551C48.3289 37.8725 48.2782 37.8953 48.2453 37.8953H48.139C48.0105 37.9026 47.8821 37.8811 47.7629 37.8325C47.6438 37.7839 47.537 37.7094 47.4503 37.6143V37.713C47.425 39.0448 46.5717 39.8981 45.2982 39.8981H45.0678L45.002 39.1917H45.2805C46.2097 39.1917 46.7667 38.6245 46.7667 37.6573"
    fill="#466473" />
  <path
    d="M50.1158 37.1426C49.2296 36.8134 48.941 36.4843 48.941 35.8513C48.9375 35.644 48.9761 35.4382 49.0543 35.2462C49.1326 35.0542 49.2489 34.8801 49.3963 34.7343C49.5437 34.5886 49.7192 34.4742 49.9121 34.3981C50.1049 34.322 50.3111 34.2858 50.5183 34.2916C51.5311 34.2916 52.1034 34.9398 52.1034 36.064V36.3425C52.1034 37.3552 51.4071 37.8869 50.0931 37.8869H48.2447C48.2118 37.8869 48.1611 37.8616 48.1611 37.5426C48.1611 37.2236 48.2118 37.1805 48.2447 37.1805H49.6981C49.8381 37.1835 49.978 37.1725 50.1158 37.1476M51.4223 36.302V36.1045C51.4223 35.3576 51.1032 34.9879 50.5031 34.9879C50.2737 34.9852 50.0525 35.0734 49.8878 35.2333C49.7232 35.3932 49.6286 35.6117 49.6246 35.8412C49.6246 36.3678 49.9436 36.6387 51.126 37.0236C51.2274 36.9341 51.307 36.8225 51.3584 36.6973C51.4098 36.5722 51.4316 36.4369 51.4223 36.302ZM50.0424 32.7573H50.9133V33.4409H50.0424V32.7573Z"
    fill="#466473" />
  <path
    d="M56.3658 39.8845H55.353L55.2871 39.1781H56.3707C57.2493 39.1781 57.8089 38.6717 57.8165 37.8817H56.9961C55.8543 37.8817 55.4011 37.4209 55.4011 36.4436C55.4011 35.4081 56.0416 34.7017 56.9633 34.7017C57.8849 34.7017 58.4976 35.3853 58.4976 36.474V37.6083C58.4976 39.0135 57.6595 39.887 56.3632 39.887M57.0367 37.1779H57.8241V36.5373C57.8241 35.7777 57.5126 35.3954 56.9278 35.3954C56.4214 35.3954 56.0923 35.8056 56.0923 36.4082C56.0923 36.9652 56.3302 37.1677 57.0442 37.1677"
    fill="#466473" />
  <path
    d="M64.1531 36.7333C64.1531 36.4953 63.9987 36.0826 63.2416 34.0469L63.8746 33.7583L64.8368 36.4852C65.009 36.9789 65.1887 37.1764 65.5836 37.1764H65.7558C65.7964 37.1764 65.8368 37.2169 65.8368 37.5384C65.8368 37.86 65.7964 37.8828 65.7558 37.8828H65.5583C65.0671 37.8828 64.738 37.7258 64.5455 37.3637C64.3404 37.7258 64.0113 37.8828 63.51 37.8828H61.5884L61.5225 37.1764H63.51C63.8974 37.1764 64.1507 36.9865 64.1507 36.7333"
    fill="#466473" />
  <path
    d="M69.0905 35.2495V36.5889C69.0905 37.4092 68.5488 37.8953 67.7436 37.8953H65.7636C65.7307 37.8953 65.6826 37.87 65.6826 37.551C65.6826 37.232 65.7307 37.189 65.7636 37.189H67.7436C67.8282 37.1993 67.9141 37.1911 67.9952 37.165C68.0763 37.1388 68.1508 37.0954 68.2134 37.0375C68.276 36.9797 68.3254 36.9089 68.3579 36.8302C68.3905 36.7514 68.4054 36.6665 68.4018 36.5813V35.2495H69.0905ZM68.0145 39.5866H65.8447V38.9309H68.0145V39.5866Z"
    fill="#466473" />
  <path
    d="M70.9024 37.6447V35.2495H71.586V36.556C71.586 36.9585 71.824 37.189 72.2747 37.189H72.381C72.4139 37.189 72.4646 37.2294 72.4646 37.551C72.4646 37.8725 72.4139 37.8953 72.381 37.8953H72.2747C72.1462 37.9026 72.0178 37.8811 71.8986 37.8325C71.7795 37.7839 71.6727 37.7094 71.586 37.6143V37.713C71.5607 39.0448 70.7049 39.8981 69.4339 39.8981H69.2162L69.1504 39.1917H69.4288C70.358 39.1917 70.9151 38.6245 70.9151 37.6573"
    fill="#466473" />
  <path
    d="M74.8282 36.7319L76.0764 36.0002C75.9042 35.4001 75.6333 35.2102 75.0434 35.2102H73.1192L73.2103 34.4962H75.1573C76.1347 34.4962 76.5626 34.9317 76.874 36.2306L75.1498 37.2965C74.4922 37.724 73.7147 37.929 72.9318 37.8814H72.3799C72.347 37.8814 72.2988 37.856 72.2988 37.537C72.2988 37.218 72.347 37.175 72.3799 37.175H72.9571C73.6108 37.2143 74.2617 37.0602 74.8282 36.7319ZM74.1547 32.853H75.0257V33.5366H74.1547V32.853Z"
    fill="#466473" />
  <path
    d="M79.448 39.8854H79.2201L79.1543 39.179H79.4328C80.3595 39.179 80.9191 38.6144 80.9191 37.6447V35.2495H81.6001V37.6573C81.6001 39.0448 80.7216 39.8981 79.448 39.8981"
    fill="#466473" />
  <path
    d="M84.5651 37.527C84.5651 37.846 84.5246 37.8713 84.4815 37.8713H84.2689C83.4232 37.8713 83.0029 37.3371 83.0029 36.4332V32.5569H83.6865V36.4003C83.6865 36.9067 83.8915 37.1599 84.3093 37.1599H84.4891C84.5321 37.1599 84.5726 37.1928 84.5726 37.5219"
    fill="#466473" />
  <path
    d="M86.181 39.574H84.0137V38.9182H86.181V39.574ZM87.8242 37.5282C87.8242 37.8574 87.7761 37.8827 87.7431 37.8827H87.49C87.0064 37.8827 86.6595 37.7257 86.505 37.3966C86.3929 37.5622 86.2384 37.6947 86.0576 37.7803C85.8768 37.8658 85.6764 37.9012 85.4772 37.8827H84.4922C84.4593 37.8827 84.4111 37.8574 84.4111 37.5384C84.4111 37.2193 84.4593 37.1763 84.4922 37.1763H85.4772C85.8975 37.1763 86.1759 36.9459 86.1759 36.5686V35.2495H86.857V36.5635C86.857 36.9737 87.0874 37.189 87.5153 37.189H87.7457C87.7787 37.189 87.8267 37.2219 87.8267 37.5409"
    fill="#466473" />
  <path
    d="M91.0663 37.5285C91.0663 37.8576 91.0182 37.8829 90.9853 37.8829H90.7321C90.2486 37.8829 89.9042 37.7259 89.7472 37.3968C89.6351 37.5625 89.4806 37.695 89.2998 37.7805C89.119 37.866 88.9184 37.9014 88.7192 37.8829H87.7344C87.7015 37.8829 87.6533 37.8576 87.6533 37.5386C87.6533 37.2196 87.7015 37.1765 87.7344 37.1765H88.7117C89.132 37.1765 89.4104 36.9461 89.4104 36.5689V35.2498H90.0916V36.5638C90.0916 36.9765 90.3219 37.1892 90.7498 37.1892H90.9803C91.0132 37.1892 91.0612 37.2221 91.0612 37.5411M88.0964 33.6167H90.2663V34.2648H88.0964V33.6167Z"
    fill="#466473" />
  <path
    d="M92.2976 37.5271C92.2976 37.8639 92.2494 37.8714 92.2165 37.8714H90.9911C90.9582 37.8714 90.9102 37.8385 90.9102 37.5271C90.9102 37.2157 90.9582 37.165 90.9911 37.165H92.2242C92.2571 37.165 92.3052 37.2056 92.3052 37.5271"
    fill="#466473" />
  <path
    d="M93.522 37.5271C93.522 37.8639 93.4739 37.8714 93.441 37.8714H92.2079C92.175 37.8714 92.127 37.8385 92.127 37.5271C92.127 37.2157 92.175 37.165 92.2079 37.165H93.441C93.4739 37.165 93.522 37.2056 93.522 37.5271Z"
    fill="#466473" />
  <path
    d="M94.7609 37.5271C94.7609 37.8639 94.7102 37.8714 94.6773 37.8714H93.4469C93.4139 37.8714 93.3633 37.8385 93.3633 37.5271C93.3633 37.2157 93.4139 37.165 93.4469 37.165H94.6773C94.7102 37.165 94.7609 37.2056 94.7609 37.5271Z"
    fill="#466473" />
  <path
    d="M96.083 36.5155V35.2495H96.7717V36.5155C96.7717 36.9282 97.0022 37.1661 97.5035 37.1661C98.0048 37.1661 98.263 36.913 98.263 36.5155V35.2495H98.9441V36.5155C98.9441 36.9282 99.182 37.1661 99.6428 37.1661C100.104 37.1661 100.349 36.9282 100.349 36.5155V35.2495H101.03V36.5155C101.03 37.3788 100.489 37.8878 99.6428 37.8878C99.0757 37.8878 98.7314 37.7055 98.5745 37.3814C98.4571 37.5547 98.2953 37.6931 98.1059 37.7822C97.9166 37.8713 97.7067 37.9078 97.4984 37.8878C96.8908 37.8878 96.5463 37.7055 96.3893 37.3814C96.272 37.5547 96.1103 37.6931 95.9209 37.7822C95.7316 37.8713 95.5216 37.9078 95.3133 37.8878H94.6728C94.6399 37.8878 94.5918 37.8624 94.5918 37.5434C94.5918 37.2244 94.6399 37.1813 94.6728 37.1813H95.3133C95.807 37.1813 96.0729 36.9282 96.0729 36.5307"
    fill="#466473" />
  <path
    d="M103.904 33.7427L105.481 35.558C105.782 35.85 105.959 36.2476 105.972 36.667C105.972 37.3734 105.466 37.8823 104.537 37.8823H102.195L102.129 37.1759H104.537C105.02 37.1759 105.296 36.9708 105.296 36.6695C105.268 36.4149 105.148 36.1791 104.959 36.0062L103.425 34.2338L103.904 33.7427Z"
    fill="#466473" />
  <path
    d="M2.41544 47.0266H5.74225C5.77517 47.0266 5.82335 47.0595 5.82335 47.3886C5.82335 47.7178 5.77517 47.733 5.74225 47.733H4.8891C4.97586 47.8418 5.01916 47.9789 5.01063 48.1178C5.01063 49.0723 4.13965 49.7382 2.78508 49.7382H2.15211C0.764632 49.7382 0 48.89 0 47.4595V45.9075H0.681064V47.4418C0.681064 48.4774 1.18741 49.0268 2.16979 49.0268H2.78508C3.79784 49.0268 4.32956 48.6824 4.32956 48.133C4.32956 47.8368 4.19023 47.7051 3.86868 47.7051H2.34954L2.41544 47.0266Z"
    fill="#466473" />
  <path
    d="M6.5931 47.7332H5.73723C5.70684 47.7332 5.65625 47.7078 5.65625 47.3888C5.65625 47.0698 5.70684 47.0268 5.73723 47.0268H6.5931C6.67805 47.037 6.76418 47.0288 6.84567 47.0027C6.92716 46.9766 7.00203 46.9332 7.06523 46.8755C7.12844 46.8179 7.17843 46.7472 7.21186 46.6685C7.24528 46.5897 7.26139 46.5046 7.25896 46.4191V45.0873H7.94509V46.4267C7.94509 47.247 7.40331 47.7332 6.59817 47.7332M6.69682 43.429H7.56778V44.11H6.69682V43.429Z"
    fill="#466473" />
  <path
    d="M10.9015 47.402C10.9015 47.721 10.8609 47.7463 10.8204 47.7463H10.6077C9.76209 47.7463 9.3418 47.2121 9.3418 46.3082V42.4319H10.0229V46.2753C10.0229 46.7817 10.228 47.0349 10.6483 47.0349H10.828C10.8686 47.0349 10.909 47.0678 10.909 47.3969"
    fill="#466473" />
  <path
    d="M11.5932 46.5014V46.1647C11.5932 45.1139 12.1831 44.4734 13.1604 44.4734C14.1377 44.4734 14.6795 45.0557 14.6795 46.1318V46.3622C14.6795 46.8382 14.877 47.0281 15.2466 47.0281H15.4517C15.4846 47.0281 15.5353 47.061 15.5353 47.3901C15.5353 47.7192 15.4846 47.7345 15.4517 47.7345H15.2466C14.7782 47.7345 14.4669 47.5775 14.32 47.2078C14.1814 47.3866 14.0005 47.5283 13.7938 47.6202C13.587 47.7121 13.3607 47.7514 13.1351 47.7345C12.5603 47.7345 12.1755 47.5522 11.9856 47.2281C11.8058 47.58 11.5172 47.7345 11.0083 47.7345H10.8209C10.788 47.7345 10.7373 47.7091 10.7373 47.3901C10.7373 47.0711 10.788 47.0281 10.8209 47.0281H11.0083C11.4033 47.0281 11.5932 46.8559 11.5932 46.5014ZM13.1351 45.1621C12.5527 45.1621 12.2742 45.4912 12.2742 46.1748C12.2629 46.2908 12.2773 46.4078 12.3165 46.5176C12.3557 46.6273 12.4187 46.727 12.501 46.8095C12.5833 46.892 12.6827 46.9553 12.7924 46.9949C12.902 47.0344 13.0191 47.0492 13.1351 47.0382C13.7022 47.0382 13.9985 46.7496 13.9985 46.1419C13.9985 45.5342 13.7199 45.1722 13.1351 45.1722"
    fill="#466473" />
  <path
    d="M16.7643 47.4024C16.7643 47.7391 16.7161 47.7467 16.6832 47.7467H15.4502C15.4173 47.7467 15.3691 47.7138 15.3691 47.4024C15.3691 47.0909 15.4173 47.0403 15.4502 47.0403H16.6832C16.7161 47.0403 16.7643 47.0808 16.7643 47.4024Z"
    fill="#466473" />
  <path
    d="M17.9972 47.4024C17.9972 47.7391 17.9465 47.7467 17.9161 47.7467H16.6831C16.6501 47.7467 16.5996 47.7138 16.5996 47.4024C16.5996 47.0909 16.6501 47.0403 16.6831 47.0403H17.9161C17.9465 47.0403 17.9972 47.0808 17.9972 47.4024Z"
    fill="#466473" />
  <path
    d="M19.2272 47.4024C19.2272 47.7391 19.1791 47.7467 19.1462 47.7467H17.9131C17.8802 47.7467 17.832 47.7138 17.832 47.4024C17.832 47.0909 17.8802 47.0403 17.9131 47.0403H19.1462C19.1791 47.0403 19.2272 47.0808 19.2272 47.4024Z"
    fill="#466473" />
  <path
    d="M20.4601 47.4024C20.4601 47.7391 20.4095 47.7467 20.3765 47.7467H19.1435C19.1106 47.7467 19.0625 47.7138 19.0625 47.4024C19.0625 47.0909 19.1106 47.0403 19.1435 47.0403H20.3765C20.4095 47.0403 20.4601 47.0808 20.4601 47.4024Z"
    fill="#466473" />
  <path
    d="M21.6901 47.4024C21.6901 47.7391 21.642 47.7467 21.6091 47.7467H20.376C20.3431 47.7467 20.2949 47.7138 20.2949 47.4024C20.2949 47.0909 20.3431 47.0403 20.376 47.0403H21.6166C21.6495 47.0403 21.6976 47.0808 21.6976 47.4024"
    fill="#466473" />
  <path
    d="M22.921 47.4024C22.921 47.7391 22.8729 47.7467 22.84 47.7467H21.6171C21.5842 47.7467 21.5361 47.7138 21.5361 47.4024C21.5361 47.0909 21.5842 47.0403 21.6171 47.0403H22.8502C22.8831 47.0403 22.9311 47.0808 22.9311 47.4024"
    fill="#466473" />
  <path
    d="M24.1496 47.4024C24.1496 47.7391 24.0989 47.7467 24.066 47.7467H22.8355C22.8026 47.7467 22.752 47.7138 22.752 47.4024C22.752 47.0909 22.8026 47.0403 22.8355 47.0403H24.066C24.0989 47.0403 24.1496 47.0808 24.1496 47.4024Z"
    fill="#466473" />
  <path
    d="M25.3852 47.4024C25.3852 47.7391 25.3372 47.7467 25.3043 47.7467H24.0712C24.0383 47.7467 23.9902 47.7138 23.9902 47.4024C23.9902 47.0909 24.0383 47.0403 24.0712 47.0403H25.3043C25.3372 47.0403 25.3852 47.0808 25.3852 47.4024Z"
    fill="#466473" />
  <path
    d="M26.6173 47.4024C26.6173 47.7391 26.5667 47.7467 26.5338 47.7467H25.3007C25.2678 47.7467 25.2197 47.7138 25.2197 47.4024C25.2197 47.0909 25.2678 47.0403 25.3007 47.0403H26.5338C26.5667 47.0403 26.6173 47.0808 26.6173 47.4024Z"
    fill="#466473" />
  <path
    d="M27.8488 47.4024C27.8488 47.7391 27.7981 47.7467 27.7652 47.7467H26.5347C26.5018 47.7467 26.4512 47.7138 26.4512 47.4024C26.4512 47.0909 26.5018 47.0403 26.5347 47.0403H27.7652C27.7981 47.0403 27.8488 47.0808 27.8488 47.4024Z"
    fill="#466473" />
  <path
    d="M29.0787 47.4024C29.0787 47.7391 29.0305 47.7467 28.9976 47.7467H27.7646C27.7317 47.7467 27.6836 47.7138 27.6836 47.4024C27.6836 47.0909 27.7317 47.0403 27.7646 47.0403H28.9976C29.0305 47.0403 29.0787 47.0808 29.0787 47.4024Z"
    fill="#466473" />
  <path
    d="M30.3117 47.4024C30.3117 47.7391 30.261 47.7467 30.2281 47.7467H28.9976C28.9647 47.7467 28.9141 47.7138 28.9141 47.4024C28.9141 47.0909 28.9647 47.0403 28.9976 47.0403H30.2256C30.2585 47.0403 30.3092 47.0808 30.3092 47.4024"
    fill="#466473" />
  <path
    d="M31.5428 47.4024C31.5428 47.7391 31.4921 47.7467 31.4617 47.7467H30.2262C30.1932 47.7467 30.1426 47.7138 30.1426 47.4024C30.1426 47.0909 30.1932 47.0403 30.2262 47.0403H31.4592C31.4896 47.0403 31.5402 47.0808 31.5402 47.4024"
    fill="#466473" />
  <path
    d="M32.7721 47.4024C32.7721 47.7391 32.724 47.7467 32.6911 47.7467H31.4581C31.4251 47.7467 31.377 47.7138 31.377 47.4024C31.377 47.0909 31.4251 47.0403 31.4581 47.0403H32.6911C32.724 47.0403 32.7721 47.0808 32.7721 47.4024Z"
    fill="#466473" />
  <path
    d="M34.006 47.4024C34.006 47.7391 33.9554 47.7467 33.9224 47.7467H32.692C32.6591 47.7467 32.6084 47.7138 32.6084 47.4024C32.6084 47.0909 32.6591 47.0403 32.692 47.0403H33.9224C33.9554 47.0403 34.006 47.0808 34.006 47.4024Z"
    fill="#466473" />
  <path
    d="M35.2369 47.4024C35.2369 47.7391 35.1889 47.7467 35.156 47.7467H33.9229C33.89 47.7467 33.8418 47.7138 33.8418 47.4024C33.8418 47.0909 33.89 47.0403 33.9229 47.0403H35.156C35.1889 47.0403 35.2369 47.0808 35.2369 47.4024Z"
    fill="#466473" />
  <path
    d="M36.4699 47.4024C36.4699 47.7391 36.4192 47.7467 36.3863 47.7467H35.1532C35.1203 47.7467 35.0723 47.7138 35.0723 47.4024C35.0723 47.0909 35.1203 47.0403 35.1532 47.0403H36.3863C36.4192 47.0403 36.4699 47.0808 36.4699 47.4024Z"
    fill="#466473" />
  <path
    d="M37.6994 47.4024C37.6994 47.7391 37.6487 47.7467 37.6158 47.7467H36.3853C36.3524 47.7467 36.3018 47.7138 36.3018 47.4024C36.3018 47.0909 36.3524 47.0403 36.3853 47.0403H37.6158C37.6487 47.0403 37.6994 47.0808 37.6994 47.4024Z"
    fill="#466473" />
  <path
    d="M38.9302 47.4024C38.9302 47.7391 38.8821 47.7467 38.8492 47.7467H37.6161C37.5832 47.7467 37.5352 47.7138 37.5352 47.4024C37.5352 47.0909 37.5832 47.0403 37.6161 47.0403H38.8492C38.8821 47.0403 38.9302 47.0808 38.9302 47.4024Z"
    fill="#466473" />
  <path
    d="M42.1847 47.38C42.1847 47.7091 42.134 47.7345 42.1011 47.7345H41.8479C41.3618 47.7345 41.0174 47.5775 40.863 47.2483C40.7509 47.414 40.5964 47.5465 40.4155 47.632C40.2347 47.7176 40.0343 47.753 39.8351 47.7345H38.8502C38.8173 47.7345 38.7666 47.7091 38.7666 47.3901C38.7666 47.0711 38.8173 47.0281 38.8502 47.0281H39.8477C40.2655 47.0281 40.5465 46.7977 40.5465 46.4204V45.0886H41.2277V46.4027C41.219 46.4896 41.2303 46.5774 41.2607 46.6593C41.291 46.7412 41.3396 46.8151 41.4028 46.8754C41.4661 46.9357 41.5422 46.9808 41.6255 47.0072C41.7087 47.0337 41.797 47.0408 41.8834 47.0281H42.1138C42.1467 47.0281 42.1973 47.061 42.1973 47.38M39.2324 43.4556H41.3997V44.1113H39.2324V43.4556Z"
    fill="#466473" />
  <path
    d="M44.546 46.584L45.7943 45.8522C45.6221 45.2522 45.3512 45.0623 44.7613 45.0623H42.8395L42.9281 44.3483H44.8751C45.8524 44.3483 46.2804 44.7838 46.5918 46.0826L44.8676 47.1511C44.2092 47.5766 43.432 47.7806 42.6496 47.7334H42.1002C42.0673 47.7334 42.0166 47.7081 42.0166 47.3891C42.0166 47.0701 42.0673 47.027 42.1002 47.027H42.6749C43.3286 47.0664 43.9794 46.9123 44.546 46.584ZM43.8725 42.7051H44.7435V43.3887H43.8725V42.7051Z"
    fill="#466473" />
  <path
    d="M49.3092 47.402C49.3092 47.721 49.2687 47.7463 49.2257 47.7463H49.013C48.1674 47.7463 47.7471 47.2121 47.7471 46.3082V42.4319H48.4306V46.2753C48.4306 46.7817 48.6357 47.0349 49.0534 47.0349H49.2332C49.2762 47.0349 49.3168 47.0678 49.3168 47.3969"
    fill="#466473" />
  <path
    d="M50.631 46.3894V45.0981H51.3198V46.3894C51.3198 46.7996 51.5502 47.0376 52.0515 47.0376C52.5528 47.0376 52.8111 46.7844 52.8111 46.3894V45.0981H53.4921V46.3894C53.4921 46.7996 53.7301 47.0376 54.1909 47.0376C54.6517 47.0376 54.8973 46.7996 54.8973 46.3894V45.0981H55.5784V46.3641C55.5784 47.2275 55.0365 47.7364 54.1909 47.7364C53.6237 47.7364 53.2795 47.5541 53.1225 47.23C53.005 47.4031 52.843 47.5414 52.6537 47.6305C52.4644 47.7196 52.2547 47.7561 52.0464 47.7364C51.4388 47.7364 51.0944 47.5541 50.9374 47.23C50.8199 47.4031 50.658 47.5414 50.4687 47.6305C50.2794 47.7196 50.0696 47.7561 49.8613 47.7364H49.2157C49.1828 47.7364 49.1348 47.711 49.1348 47.392C49.1348 47.073 49.1828 47.03 49.2157 47.03H49.8563C50.3626 47.03 50.6158 46.7768 50.6158 46.3818"
    fill="#466473" />
  <path
    d="M64.5887 45.0872V46.4417C64.5887 47.2469 64.0469 47.733 63.2493 47.733H60.3097C59.3222 47.733 58.8564 47.1659 58.8564 46.3126V45.0872H59.5375V46.2215C59.5375 46.7278 59.7755 47.0266 60.3502 47.0266H63.2493C63.333 47.0356 63.4177 47.0267 63.4977 47.0005C63.5777 46.9743 63.6512 46.9314 63.7134 46.8747C63.7756 46.818 63.8251 46.7487 63.8585 46.6715C63.892 46.5942 63.9087 46.5107 63.9075 46.4266V45.0872H64.5887ZM60.6288 43.7478H62.7986V44.3985H60.6288V43.7478Z"
    fill="#466473" />
  <path d="M66.6635 42.4185H65.9824V47.7329H66.6635V42.4185Z" fill="#466473" />
  <path
    d="M69.9409 47.0277H70.0472C70.0801 47.0277 70.1283 47.0682 70.1283 47.3898C70.1283 47.7113 70.0801 47.7341 70.0472 47.7341H69.9409C69.8121 47.7411 69.6834 47.7194 69.5639 47.6709C69.4444 47.6223 69.3371 47.5479 69.2497 47.4531V47.5518C69.2243 48.8836 68.3711 49.7394 67.0975 49.7394H66.5228L66.457 49.0305H67.0823C68.009 49.0305 68.5686 48.4658 68.5686 47.4961V45.0883H69.2497V46.3897C69.2497 46.7922 69.4876 47.0227 69.9409 47.0227M68.4217 43.4172H69.2927V44.111H68.4217V43.4172Z"
    fill="#466473" />
  <path
    d="M72.1162 49.4275H69.9463V48.7717H72.1162V49.4275ZM73.9468 47.3817C73.9468 47.7109 73.8986 47.7361 73.8657 47.7361H73.6125C73.1289 47.7361 72.7821 47.5792 72.6276 47.25C72.5156 47.4157 72.3609 47.5482 72.1801 47.6338C71.9993 47.7193 71.7989 47.7546 71.5997 47.7361H70.0475C70.0146 47.7361 69.9666 47.7108 69.9666 47.3918C69.9666 47.0728 70.0146 47.0298 70.0475 47.0298H71.5997C72.02 47.0298 72.2984 46.7994 72.2984 46.4221V45.0903H72.9795V46.4044C72.9795 46.8146 73.2099 47.0298 73.6378 47.0298H73.8683C73.9012 47.0298 73.9492 47.0627 73.9492 47.3817"
    fill="#466473" />
  <path
    d="M75.1769 47.4024C75.1769 47.7391 75.1262 47.7467 75.0933 47.7467H73.8629C73.83 47.7467 73.7793 47.7138 73.7793 47.4024C73.7793 47.0909 73.83 47.0403 73.8629 47.0403H75.0933C75.1262 47.0403 75.1769 47.0808 75.1769 47.4024Z"
    fill="#466473" />
  <path
    d="M76.4077 47.4024C76.4077 47.7391 76.3596 47.7467 76.3267 47.7467H75.0937C75.0608 47.7467 75.0127 47.7138 75.0127 47.4024C75.0127 47.0909 75.0608 47.0403 75.0937 47.0403H76.3267C76.3596 47.0403 76.4077 47.0808 76.4077 47.4024Z"
    fill="#466473" />
  <path
    d="M77.6408 47.4024C77.6408 47.7391 77.5901 47.7467 77.5572 47.7467H76.3267C76.2938 47.7467 76.2432 47.7138 76.2432 47.4024C76.2432 47.0909 76.2938 47.0403 76.3267 47.0403H77.5572C77.5901 47.0403 77.6408 47.0808 77.6408 47.4024Z"
    fill="#466473" />
  <path
    d="M78.8712 47.4024C78.8712 47.7391 78.8206 47.7467 78.7903 47.7467H77.5572C77.5243 47.7467 77.4736 47.7138 77.4736 47.4024C77.4736 47.0909 77.5243 47.0403 77.5572 47.0403H78.7903C78.8206 47.0403 78.8712 47.0808 78.8712 47.4024Z"
    fill="#466473" />
  <path
    d="M80.103 47.4024C80.103 47.7391 80.055 47.7467 80.022 47.7467H78.789C78.7561 47.7467 78.708 47.7138 78.708 47.4024C78.708 47.0909 78.7561 47.0403 78.789 47.0403H80.022C80.055 47.0403 80.103 47.0808 80.103 47.4024Z"
    fill="#466473" />
  <path
    d="M81.3341 47.4024C81.3341 47.7391 81.2835 47.7467 81.2506 47.7467H80.0201C79.9872 47.7467 79.9365 47.7138 79.9365 47.4024C79.9365 47.0909 79.9872 47.0403 80.0201 47.0403H81.2506C81.2835 47.0403 81.3341 47.0808 81.3341 47.4024Z"
    fill="#466473" />
  <path
    d="M82.5641 47.4024C82.5641 47.7391 82.5159 47.7467 82.483 47.7467H81.2499C81.217 47.7467 81.1689 47.7138 81.1689 47.4024C81.1689 47.0909 81.217 47.0403 81.2499 47.0403H82.483C82.5159 47.0403 82.5641 47.0808 82.5641 47.4024Z"
    fill="#466473" />
  <path
    d="M83.798 47.4024C83.798 47.7391 83.7473 47.7467 83.7144 47.7467H82.4815C82.4486 47.7467 82.4004 47.7138 82.4004 47.4024C82.4004 47.0909 82.4486 47.0403 82.4815 47.0403H83.7144C83.7473 47.0403 83.798 47.0808 83.798 47.4024Z"
    fill="#466473" />
  <path
    d="M85.0285 47.4024C85.0285 47.7391 84.9778 47.7467 84.9449 47.7467H83.7143C83.6814 47.7467 83.6309 47.7138 83.6309 47.4024C83.6309 47.0909 83.6814 47.0403 83.7143 47.0403H84.9449C84.9778 47.0403 85.0285 47.0808 85.0285 47.4024Z"
    fill="#466473" />
  <path
    d="M86.2594 47.4024C86.2594 47.7391 86.2113 47.7467 86.1784 47.7467H84.9454C84.9124 47.7467 84.8643 47.7138 84.8643 47.4024C84.8643 47.0909 84.9124 47.0403 84.9454 47.0403H86.1809C86.2138 47.0403 86.2619 47.0808 86.2619 47.4024"
    fill="#466473" />
  <path
    d="M87.4918 47.4024C87.4918 47.7391 87.4412 47.7467 87.4082 47.7467H86.1803C86.1473 47.7467 86.0967 47.7138 86.0967 47.4024C86.0967 47.0909 86.1473 47.0403 86.1803 47.0403H87.4107C87.4436 47.0403 87.4943 47.0808 87.4943 47.4024"
    fill="#466473" />
  <path
    d="M92.5103 47.4024C92.5103 47.7214 92.4597 47.7467 92.4267 47.7467C91.7128 47.7467 91.414 47.886 91.1127 48.4784L90.4392 49.7165H90.062C88.8872 49.7165 88.1732 49.0532 88.1732 47.8454V47.7467H87.4137C87.3807 47.7467 87.3301 47.7214 87.3301 47.4024C87.3301 47.0833 87.3807 47.0403 87.4137 47.0403H88.1732V46.1617C88.1732 45.068 88.7556 44.3894 89.6924 44.3894C90.5962 44.3894 91.1634 44.949 91.1634 45.8427C91.1634 46.9112 90.2012 47.6986 88.8466 47.7239V47.8227C88.8466 48.6531 89.2492 49.038 90.0543 49.038L90.5607 48.1189C91.0367 47.2555 91.4318 47.0428 92.4243 47.0428C92.4572 47.0428 92.5078 47.0758 92.5078 47.4049M89.6898 45.0781C89.1479 45.0781 88.8517 45.4655 88.8517 46.1643V47.0428C89.8644 47.0428 90.4873 46.5998 90.4873 45.8832C90.4991 45.7753 90.4868 45.666 90.4511 45.5635C90.4153 45.4609 90.357 45.3676 90.2806 45.2905C90.2041 45.2133 90.1114 45.1542 90.0092 45.1174C89.907 45.0807 89.7978 45.0672 89.6898 45.0781Z"
    fill="#466473" />
  <path
    d="M93.2698 44.3494H95.2168C96.1941 44.3494 96.6221 44.7849 96.9335 46.0837L96.2853 46.4787C96.3342 46.653 96.4436 46.8041 96.594 46.9049C96.7444 47.0056 96.9258 47.0493 97.1056 47.0281H97.6475C97.6804 47.0281 97.731 47.0686 97.731 47.3902C97.731 47.7117 97.6804 47.7345 97.6475 47.7345H97.0677C96.4195 47.7345 96.0827 47.5117 95.7612 46.7977L95.1966 47.1522C94.538 47.5773 93.7611 47.7813 92.9787 47.7345H92.4267C92.3938 47.7345 92.3457 47.7092 92.3457 47.3902C92.3457 47.0712 92.3938 47.0281 92.4267 47.0281H93.0166C93.6711 47.0677 94.3228 46.9136 94.8902 46.585L96.1385 45.8533C95.9663 45.2533 95.6954 45.0634 95.103 45.0634H93.1812L93.2698 44.3494ZM93.9585 48.7701H94.8295V49.4587H93.9585V48.7701Z"
    fill="#466473" />
  <path
    d="M99.1568 45.0886H99.8404V46.428C99.8404 47.2483 99.296 47.7345 98.4909 47.7345H97.6376C97.6047 47.7345 97.5566 47.7091 97.5566 47.3901C97.5566 47.0711 97.6047 47.0281 97.6376 47.0281H98.4909C98.5758 47.0383 98.662 47.0301 98.7435 47.004C98.825 46.9779 98.8998 46.9345 98.963 46.8768C99.0262 46.8192 99.0763 46.7485 99.1098 46.6698C99.1432 46.591 99.1592 46.5059 99.1568 46.4204V45.0886ZM100.094 44.1037H97.9263V43.4556H100.106L100.094 44.1037Z"
    fill="#466473" />
  <path
    d="M104.098 49.739H103.085L103.02 49.0301H104.103C104.984 49.0301 105.541 48.5237 105.549 47.7338H104.729C103.587 47.7338 103.136 47.273 103.136 46.2957C103.136 45.2601 103.777 44.5537 104.696 44.5537C105.615 44.5537 106.233 45.2373 106.233 46.326V47.4603C106.233 48.8655 105.394 49.739 104.096 49.739M104.769 47.0274H105.549V46.3893C105.549 45.6298 105.238 45.2474 104.655 45.2474C104.149 45.2474 103.817 45.6576 103.817 46.2602C103.817 46.8198 104.055 47.0198 104.769 47.0198"
    fill="#466473" />
  <path
    d="M4.40041 37.1758H4.94227C4.97519 37.1758 5.02325 37.2163 5.02325 37.5379C5.02325 37.8594 4.97519 37.8822 4.94227 37.8822H4.37507C3.7269 37.8822 3.3623 37.6594 3.03569 36.8695L2.29639 37.2214C1.24566 37.7278 0.941807 38.1759 0.941807 38.8646C0.941807 39.6621 1.41022 40.0242 2.53438 40.0242H4.28396L4.21806 40.7306H2.48629C0.96715 40.7306 0.260742 40.1052 0.260742 38.938C0.260742 37.9936 0.729142 37.2467 2.03307 36.6593L3.5522 35.9706C3.35472 35.3858 3.18261 35.2111 2.60027 35.2111H0.660801L0.751915 34.4971H2.71413C3.65853 34.4971 4.07881 34.892 4.34973 36.2542L3.57755 36.591C3.76491 37.0442 3.98773 37.1758 4.41562 37.1758"
    fill="#466473" />
  <path
    d="M5.85921 36.5687V32.5684H6.54794V36.5763C6.54794 37.3967 6.00616 37.8828 5.20102 37.8828H4.94783C4.91492 37.8828 4.86426 37.8575 4.86426 37.5385C4.86426 37.2194 4.91492 37.1764 4.94783 37.1764H5.20102C5.2853 37.185 5.37037 37.1756 5.45075 37.1489C5.53112 37.1221 5.60497 37.0785 5.66722 37.0211C5.72947 36.9636 5.77875 36.8935 5.81186 36.8156C5.84498 36.7376 5.86109 36.6534 5.85921 36.5687Z"
    fill="#466473" />
  <path
    d="M9.59179 37.527C9.59179 37.846 9.55132 37.8713 9.51081 37.8713H9.29817C8.45252 37.8713 8.03223 37.3371 8.03223 36.4332V32.5569H8.70315V36.4003C8.70315 36.9067 8.90829 37.1599 9.32859 37.1599H9.50834C9.54885 37.1599 9.58932 37.1928 9.58932 37.5219"
    fill="#466473" />
  <path
    d="M10.8253 37.5271C10.8253 37.8639 10.7747 37.8714 10.7418 37.8714H9.51131C9.47839 37.8714 9.42773 37.8385 9.42773 37.5271C9.42773 37.2157 9.47839 37.165 9.51131 37.165H10.7418C10.7747 37.165 10.8253 37.2056 10.8253 37.5271Z"
    fill="#466473" />
  <path
    d="M12.0572 37.5271C12.0572 37.8639 12.0091 37.8714 11.9761 37.8714H10.7431C10.7102 37.8714 10.6621 37.8385 10.6621 37.5271C10.6621 37.2157 10.7102 37.165 10.7431 37.165H11.9761C12.0091 37.165 12.0572 37.2056 12.0572 37.5271Z"
    fill="#466473" />
  <path
    d="M13.2877 37.5271C13.2877 37.8639 13.2395 37.8714 13.2066 37.8714H11.9737C11.9408 37.8714 11.8926 37.8385 11.8926 37.5271C11.8926 37.2157 11.9408 37.165 11.9737 37.165H13.2066C13.2395 37.165 13.2877 37.2056 13.2877 37.5271Z"
    fill="#466473" />
  <path
    d="M14.5285 37.5271C14.5285 37.8639 14.4778 37.8714 14.4449 37.8714H13.2144C13.1815 37.8714 13.1309 37.8385 13.1309 37.5271C13.1309 37.2157 13.1815 37.165 13.2144 37.165H14.4449C14.4778 37.165 14.5285 37.2056 14.5285 37.5271Z"
    fill="#466473" />
  <path
    d="M15.7516 37.5271C15.7516 37.8639 15.7034 37.8714 15.6705 37.8714H14.4375C14.4046 37.8714 14.3564 37.8385 14.3564 37.5271C14.3564 37.2157 14.4046 37.165 14.4375 37.165H15.6705C15.7034 37.165 15.7516 37.2056 15.7516 37.5271Z"
    fill="#466473" />
  <path
    d="M16.9835 37.5271C16.9835 37.8639 16.9329 37.8714 16.9 37.8714H15.6669C15.634 37.8714 15.5859 37.8385 15.5859 37.5271C15.5859 37.2157 15.634 37.165 15.6669 37.165H16.9C16.9329 37.165 16.9835 37.2056 16.9835 37.5271Z"
    fill="#466473" />
  <path
    d="M17.992 36.5157V35.2498H18.6756V36.5157C18.6756 36.8525 18.7971 37.0221 19.0275 37.0981C20.0631 35.2498 20.8758 34.5181 21.7873 34.5181C22.6988 34.5181 23.3393 35.2169 23.3393 36.2119C23.3453 36.4894 23.278 36.7636 23.1443 37.0069C23.3619 37.1587 23.6283 37.2237 23.8913 37.1892H24.0787C24.1116 37.1892 24.1622 37.2221 24.1622 37.5513C24.1622 37.8804 24.1116 37.8956 24.0787 37.8956H23.8964C23.3444 37.8956 23.0405 37.8121 22.7696 37.526C22.4415 37.7799 22.0347 37.9107 21.6201 37.8956H19.4276C18.8351 37.8956 18.4832 37.7311 18.311 37.4095C18.1135 37.7386 17.7514 37.8956 17.2349 37.8956H16.9058C16.8729 37.8956 16.8223 37.8703 16.8223 37.5513C16.8223 37.2323 16.8729 37.1892 16.9058 37.1892H17.2349C17.7261 37.1892 17.9945 36.936 17.9945 36.5385M22.6608 36.2119C22.672 36.084 22.6566 35.9551 22.6156 35.8334C22.5746 35.7117 22.5089 35.5998 22.4226 35.5047C22.3363 35.4096 22.2312 35.3334 22.114 35.2808C21.9969 35.2282 21.8702 35.2004 21.7418 35.1992C21.1164 35.1992 20.5012 35.8321 19.7163 37.1867H21.6177C22.2835 37.1867 22.6608 36.8094 22.6608 36.2094"
    fill="#466473" />
  <path
    d="M24.8485 36.6494V36.3126C24.8485 35.2619 25.4385 34.6213 26.4158 34.6213C27.3931 34.6213 27.9349 35.2037 27.9349 36.2797C27.9349 37.2925 27.3501 37.8824 26.3905 37.8824C25.8157 37.8824 25.4283 37.7001 25.2384 37.376C25.0586 37.728 24.7725 37.8824 24.2611 37.8824H24.0738C24.0409 37.8824 23.9902 37.8571 23.9902 37.5381C23.9902 37.2191 24.0409 37.176 24.0738 37.176H24.2611C24.6561 37.176 24.846 37.0039 24.846 36.6494M26.3905 35.31C25.8056 35.31 25.527 35.6392 25.527 36.3228C25.5156 36.439 25.5301 36.5563 25.5695 36.6662C25.6088 36.7761 25.6721 36.876 25.7546 36.9585C25.8372 37.0411 25.9371 37.1044 26.047 37.1437C26.157 37.1831 26.2743 37.1976 26.3905 37.1861C26.9576 37.1861 27.2513 36.8975 27.2513 36.2898C27.2513 35.6822 26.9728 35.3201 26.3905 35.3201"
    fill="#466473" />
  <path
    d="M40.2213 35.2498V36.5157C40.2213 37.3791 39.6769 37.888 38.8237 37.888C38.2565 37.888 37.9122 37.7057 37.7653 37.3816C37.6452 37.5546 37.4815 37.6926 37.2907 37.7815C37.0999 37.8705 36.8889 37.9072 36.6792 37.888C36.5477 37.903 36.4145 37.8895 36.2887 37.8485C36.1629 37.8074 36.0473 37.7397 35.95 37.65V37.7487C35.9246 39.0147 35.0207 39.8907 33.7143 39.8907H33.3523C31.9648 39.8907 31.2002 39.0451 31.2002 37.612V36.06H31.8837V37.5943C31.8837 38.6298 32.3901 39.1793 33.37 39.1793H33.7143C34.6511 39.1793 35.2664 38.5969 35.2664 37.6601V35.2498H35.95V36.5562C35.95 36.9335 36.1779 37.1892 36.6792 37.1892C37.1806 37.1892 37.4514 36.936 37.4514 36.541V35.2498H38.1325V36.541C38.1325 36.9512 38.3629 37.1892 38.8237 37.1892C39.2845 37.1892 39.5376 36.9512 39.5376 36.541V35.2498H40.2213ZM36.7045 33.6167H38.8744V34.2648H36.7045V33.6167ZM38.1654 33.1382H37.4185V32.49H38.1654V33.1382Z"
    fill="#466473" />
  <path
    d="M42.5229 39.8845H41.5101L41.4443 39.1781H42.5279C43.4065 39.1781 43.966 38.6717 43.9736 37.8817H43.1534C42.0115 37.8817 41.5608 37.4209 41.5608 36.4436C41.5608 35.4081 42.2014 34.7017 43.1205 34.7017C44.0396 34.7017 44.6573 35.3853 44.6573 36.474V37.6083C44.6573 39.0135 43.8193 39.887 42.5204 39.887M43.1939 37.1779H43.9736V36.5373C43.9736 35.7777 43.6623 35.3954 43.0799 35.3954C42.5736 35.3954 42.2419 35.8056 42.2419 36.4082C42.2419 36.9652 42.4799 37.1677 43.1939 37.1677"
    fill="#466473" />
  <path
    d="M46.7667 37.6447V35.2495H47.4503V36.556C47.4503 36.9585 47.6883 37.189 48.139 37.189H48.2453C48.2782 37.189 48.3289 37.2294 48.3289 37.551C48.3289 37.8725 48.2782 37.8953 48.2453 37.8953H48.139C48.0105 37.9026 47.8821 37.8811 47.7629 37.8325C47.6438 37.7839 47.537 37.7094 47.4503 37.6143V37.713C47.425 39.0448 46.5717 39.8981 45.2982 39.8981H45.0678L45.002 39.1917H45.2805C46.2097 39.1917 46.7667 38.6245 46.7667 37.6573"
    fill="#466473" />
  <path
    d="M50.1158 37.1426C49.2296 36.8134 48.941 36.4843 48.941 35.8513C48.9375 35.644 48.9761 35.4382 49.0543 35.2462C49.1326 35.0542 49.2489 34.8801 49.3963 34.7343C49.5437 34.5886 49.7192 34.4742 49.9121 34.3981C50.1049 34.322 50.3111 34.2858 50.5183 34.2916C51.5311 34.2916 52.1034 34.9398 52.1034 36.064V36.3425C52.1034 37.3552 51.4071 37.8869 50.0931 37.8869H48.2447C48.2118 37.8869 48.1611 37.8616 48.1611 37.5426C48.1611 37.2236 48.2118 37.1805 48.2447 37.1805H49.6981C49.8381 37.1835 49.978 37.1725 50.1158 37.1476M51.4223 36.302V36.1045C51.4223 35.3576 51.1032 34.9879 50.5031 34.9879C50.2737 34.9852 50.0525 35.0734 49.8878 35.2333C49.7232 35.3932 49.6286 35.6117 49.6246 35.8412C49.6246 36.3678 49.9436 36.6387 51.126 37.0236C51.2274 36.9341 51.307 36.8225 51.3584 36.6973C51.4098 36.5722 51.4316 36.4369 51.4223 36.302ZM50.0424 32.7573H50.9133V33.4409H50.0424V32.7573Z"
    fill="#466473" />
  <path
    d="M56.3658 39.8845H55.353L55.2871 39.1781H56.3707C57.2493 39.1781 57.8089 38.6717 57.8165 37.8817H56.9961C55.8543 37.8817 55.4011 37.4209 55.4011 36.4436C55.4011 35.4081 56.0416 34.7017 56.9633 34.7017C57.8849 34.7017 58.4976 35.3853 58.4976 36.474V37.6083C58.4976 39.0135 57.6595 39.887 56.3632 39.887M57.0367 37.1779H57.8241V36.5373C57.8241 35.7777 57.5126 35.3954 56.9278 35.3954C56.4214 35.3954 56.0923 35.8056 56.0923 36.4082C56.0923 36.9652 56.3302 37.1677 57.0442 37.1677"
    fill="#466473" />
  <path
    d="M64.1531 36.7333C64.1531 36.4953 63.9987 36.0826 63.2416 34.0469L63.8746 33.7583L64.8368 36.4852C65.009 36.9789 65.1887 37.1764 65.5836 37.1764H65.7558C65.7964 37.1764 65.8368 37.2169 65.8368 37.5384C65.8368 37.86 65.7964 37.8828 65.7558 37.8828H65.5583C65.0671 37.8828 64.738 37.7258 64.5455 37.3637C64.3404 37.7258 64.0113 37.8828 63.51 37.8828H61.5884L61.5225 37.1764H63.51C63.8974 37.1764 64.1507 36.9865 64.1507 36.7333"
    fill="#466473" />
  <path
    d="M69.0905 35.2495V36.5889C69.0905 37.4092 68.5488 37.8953 67.7436 37.8953H65.7636C65.7307 37.8953 65.6826 37.87 65.6826 37.551C65.6826 37.232 65.7307 37.189 65.7636 37.189H67.7436C67.8282 37.1993 67.9141 37.1911 67.9952 37.165C68.0763 37.1388 68.1508 37.0954 68.2134 37.0375C68.276 36.9797 68.3254 36.9089 68.3579 36.8302C68.3905 36.7514 68.4054 36.6665 68.4018 36.5813V35.2495H69.0905ZM68.0145 39.5866H65.8447V38.9309H68.0145V39.5866Z"
    fill="#466473" />
  <path
    d="M70.9024 37.6447V35.2495H71.586V36.556C71.586 36.9585 71.824 37.189 72.2747 37.189H72.381C72.4139 37.189 72.4646 37.2294 72.4646 37.551C72.4646 37.8725 72.4139 37.8953 72.381 37.8953H72.2747C72.1462 37.9026 72.0178 37.8811 71.8986 37.8325C71.7795 37.7839 71.6727 37.7094 71.586 37.6143V37.713C71.5607 39.0448 70.7049 39.8981 69.4339 39.8981H69.2162L69.1504 39.1917H69.4288C70.358 39.1917 70.9151 38.6245 70.9151 37.6573"
    fill="#466473" />
  <path
    d="M74.8282 36.7319L76.0764 36.0002C75.9042 35.4001 75.6333 35.2102 75.0434 35.2102H73.1192L73.2103 34.4962H75.1573C76.1347 34.4962 76.5626 34.9317 76.874 36.2306L75.1498 37.2965C74.4922 37.724 73.7147 37.929 72.9318 37.8814H72.3799C72.347 37.8814 72.2988 37.856 72.2988 37.537C72.2988 37.218 72.347 37.175 72.3799 37.175H72.9571C73.6108 37.2143 74.2617 37.0602 74.8282 36.7319ZM74.1547 32.853H75.0257V33.5366H74.1547V32.853Z"
    fill="#466473" />
  <path
    d="M79.448 39.8854H79.2201L79.1543 39.179H79.4328C80.3595 39.179 80.9191 38.6144 80.9191 37.6447V35.2495H81.6001V37.6573C81.6001 39.0448 80.7216 39.8981 79.448 39.8981"
    fill="#466473" />
  <path
    d="M84.5651 37.527C84.5651 37.846 84.5246 37.8713 84.4815 37.8713H84.2689C83.4232 37.8713 83.0029 37.3371 83.0029 36.4332V32.5569H83.6865V36.4003C83.6865 36.9067 83.8915 37.1599 84.3093 37.1599H84.4891C84.5321 37.1599 84.5726 37.1928 84.5726 37.5219"
    fill="#466473" />
  <path
    d="M86.181 39.574H84.0137V38.9182H86.181V39.574ZM87.8242 37.5282C87.8242 37.8574 87.7761 37.8827 87.7431 37.8827H87.49C87.0064 37.8827 86.6595 37.7257 86.505 37.3966C86.3929 37.5622 86.2384 37.6947 86.0576 37.7803C85.8768 37.8658 85.6764 37.9012 85.4772 37.8827H84.4922C84.4593 37.8827 84.4111 37.8574 84.4111 37.5384C84.4111 37.2193 84.4593 37.1763 84.4922 37.1763H85.4772C85.8975 37.1763 86.1759 36.9459 86.1759 36.5686V35.2495H86.857V36.5635C86.857 36.9737 87.0874 37.189 87.5153 37.189H87.7457C87.7787 37.189 87.8267 37.2219 87.8267 37.5409"
    fill="#466473" />
  <path
    d="M91.0663 37.5285C91.0663 37.8576 91.0182 37.8829 90.9853 37.8829H90.7321C90.2486 37.8829 89.9042 37.7259 89.7472 37.3968C89.6351 37.5625 89.4806 37.695 89.2998 37.7805C89.119 37.866 88.9184 37.9014 88.7192 37.8829H87.7344C87.7015 37.8829 87.6533 37.8576 87.6533 37.5386C87.6533 37.2196 87.7015 37.1765 87.7344 37.1765H88.7117C89.132 37.1765 89.4104 36.9461 89.4104 36.5689V35.2498H90.0916V36.5638C90.0916 36.9765 90.3219 37.1892 90.7498 37.1892H90.9803C91.0132 37.1892 91.0612 37.2221 91.0612 37.5411M88.0964 33.6167H90.2663V34.2648H88.0964V33.6167Z"
    fill="#466473" />
  <path
    d="M92.2976 37.5271C92.2976 37.8639 92.2494 37.8714 92.2165 37.8714H90.9911C90.9582 37.8714 90.9102 37.8385 90.9102 37.5271C90.9102 37.2157 90.9582 37.165 90.9911 37.165H92.2242C92.2571 37.165 92.3052 37.2056 92.3052 37.5271"
    fill="#466473" />
  <path
    d="M93.522 37.5271C93.522 37.8639 93.4739 37.8714 93.441 37.8714H92.2079C92.175 37.8714 92.127 37.8385 92.127 37.5271C92.127 37.2157 92.175 37.165 92.2079 37.165H93.441C93.4739 37.165 93.522 37.2056 93.522 37.5271Z"
    fill="#466473" />
  <path
    d="M94.7609 37.5271C94.7609 37.8639 94.7102 37.8714 94.6773 37.8714H93.4469C93.4139 37.8714 93.3633 37.8385 93.3633 37.5271C93.3633 37.2157 93.4139 37.165 93.4469 37.165H94.6773C94.7102 37.165 94.7609 37.2056 94.7609 37.5271Z"
    fill="#466473" />
  <path
    d="M96.083 36.5155V35.2495H96.7717V36.5155C96.7717 36.9282 97.0022 37.1661 97.5035 37.1661C98.0048 37.1661 98.263 36.913 98.263 36.5155V35.2495H98.9441V36.5155C98.9441 36.9282 99.182 37.1661 99.6428 37.1661C100.104 37.1661 100.349 36.9282 100.349 36.5155V35.2495H101.03V36.5155C101.03 37.3788 100.489 37.8878 99.6428 37.8878C99.0757 37.8878 98.7314 37.7055 98.5745 37.3814C98.4571 37.5547 98.2953 37.6931 98.1059 37.7822C97.9166 37.8713 97.7067 37.9078 97.4984 37.8878C96.8908 37.8878 96.5463 37.7055 96.3893 37.3814C96.272 37.5547 96.1103 37.6931 95.9209 37.7822C95.7316 37.8713 95.5216 37.9078 95.3133 37.8878H94.6728C94.6399 37.8878 94.5918 37.8624 94.5918 37.5434C94.5918 37.2244 94.6399 37.1813 94.6728 37.1813H95.3133C95.807 37.1813 96.0729 36.9282 96.0729 36.5307"
    fill="#466473" />
  <path
    d="M103.904 33.7427L105.481 35.558C105.782 35.85 105.959 36.2476 105.972 36.667C105.972 37.3734 105.466 37.8823 104.537 37.8823H102.195L102.129 37.1759H104.537C105.02 37.1759 105.296 36.9708 105.296 36.6695C105.268 36.4149 105.148 36.1791 104.959 36.0062L103.425 34.2338L103.904 33.7427Z"
    fill="#466473" />
  <path
    d="M2.41544 47.0266H5.74225C5.77517 47.0266 5.82335 47.0595 5.82335 47.3886C5.82335 47.7178 5.77517 47.733 5.74225 47.733H4.8891C4.97586 47.8418 5.01916 47.9789 5.01063 48.1178C5.01063 49.0723 4.13965 49.7382 2.78508 49.7382H2.15211C0.764632 49.7382 0 48.89 0 47.4595V45.9075H0.681064V47.4418C0.681064 48.4774 1.18741 49.0268 2.16979 49.0268H2.78508C3.79784 49.0268 4.32956 48.6824 4.32956 48.133C4.32956 47.8368 4.19023 47.7051 3.86868 47.7051H2.34954L2.41544 47.0266Z"
    fill="#466473" />
  <path
    d="M6.5931 47.7332H5.73723C5.70684 47.7332 5.65625 47.7078 5.65625 47.3888C5.65625 47.0698 5.70684 47.0268 5.73723 47.0268H6.5931C6.67805 47.037 6.76418 47.0288 6.84567 47.0027C6.92716 46.9766 7.00203 46.9332 7.06523 46.8755C7.12844 46.8179 7.17843 46.7472 7.21186 46.6685C7.24528 46.5897 7.26139 46.5046 7.25896 46.4191V45.0873H7.94509V46.4267C7.94509 47.247 7.40331 47.7332 6.59817 47.7332M6.69682 43.429H7.56778V44.11H6.69682V43.429Z"
    fill="#466473" />
  <path
    d="M10.9015 47.402C10.9015 47.721 10.8609 47.7463 10.8204 47.7463H10.6077C9.76209 47.7463 9.3418 47.2121 9.3418 46.3082V42.4319H10.0229V46.2753C10.0229 46.7817 10.228 47.0349 10.6483 47.0349H10.828C10.8686 47.0349 10.909 47.0678 10.909 47.3969"
    fill="#466473" />
  <path
    d="M11.5932 46.5014V46.1647C11.5932 45.1139 12.1831 44.4734 13.1604 44.4734C14.1377 44.4734 14.6795 45.0557 14.6795 46.1318V46.3622C14.6795 46.8382 14.877 47.0281 15.2466 47.0281H15.4517C15.4846 47.0281 15.5353 47.061 15.5353 47.3901C15.5353 47.7192 15.4846 47.7345 15.4517 47.7345H15.2466C14.7782 47.7345 14.4669 47.5775 14.32 47.2078C14.1814 47.3866 14.0005 47.5283 13.7938 47.6202C13.587 47.7121 13.3607 47.7514 13.1351 47.7345C12.5603 47.7345 12.1755 47.5522 11.9856 47.2281C11.8058 47.58 11.5172 47.7345 11.0083 47.7345H10.8209C10.788 47.7345 10.7373 47.7091 10.7373 47.3901C10.7373 47.0711 10.788 47.0281 10.8209 47.0281H11.0083C11.4033 47.0281 11.5932 46.8559 11.5932 46.5014ZM13.1351 45.1621C12.5527 45.1621 12.2742 45.4912 12.2742 46.1748C12.2629 46.2908 12.2773 46.4078 12.3165 46.5176C12.3557 46.6273 12.4187 46.727 12.501 46.8095C12.5833 46.892 12.6827 46.9553 12.7924 46.9949C12.902 47.0344 13.0191 47.0492 13.1351 47.0382C13.7022 47.0382 13.9985 46.7496 13.9985 46.1419C13.9985 45.5342 13.7199 45.1722 13.1351 45.1722"
    fill="#466473" />
  <path
    d="M16.7643 47.4024C16.7643 47.7391 16.7161 47.7467 16.6832 47.7467H15.4502C15.4173 47.7467 15.3691 47.7138 15.3691 47.4024C15.3691 47.0909 15.4173 47.0403 15.4502 47.0403H16.6832C16.7161 47.0403 16.7643 47.0808 16.7643 47.4024Z"
    fill="#466473" />
  <path
    d="M17.9972 47.4024C17.9972 47.7391 17.9465 47.7467 17.9161 47.7467H16.6831C16.6501 47.7467 16.5996 47.7138 16.5996 47.4024C16.5996 47.0909 16.6501 47.0403 16.6831 47.0403H17.9161C17.9465 47.0403 17.9972 47.0808 17.9972 47.4024Z"
    fill="#466473" />
  <path
    d="M19.2272 47.4024C19.2272 47.7391 19.1791 47.7467 19.1462 47.7467H17.9131C17.8802 47.7467 17.832 47.7138 17.832 47.4024C17.832 47.0909 17.8802 47.0403 17.9131 47.0403H19.1462C19.1791 47.0403 19.2272 47.0808 19.2272 47.4024Z"
    fill="#466473" />
  <path
    d="M20.4601 47.4024C20.4601 47.7391 20.4095 47.7467 20.3765 47.7467H19.1435C19.1106 47.7467 19.0625 47.7138 19.0625 47.4024C19.0625 47.0909 19.1106 47.0403 19.1435 47.0403H20.3765C20.4095 47.0403 20.4601 47.0808 20.4601 47.4024Z"
    fill="#466473" />
  <path
    d="M21.6901 47.4024C21.6901 47.7391 21.642 47.7467 21.6091 47.7467H20.376C20.3431 47.7467 20.2949 47.7138 20.2949 47.4024C20.2949 47.0909 20.3431 47.0403 20.376 47.0403H21.6166C21.6495 47.0403 21.6976 47.0808 21.6976 47.4024"
    fill="#466473" />
  <path
    d="M22.921 47.4024C22.921 47.7391 22.8729 47.7467 22.84 47.7467H21.6171C21.5842 47.7467 21.5361 47.7138 21.5361 47.4024C21.5361 47.0909 21.5842 47.0403 21.6171 47.0403H22.8502C22.8831 47.0403 22.9311 47.0808 22.9311 47.4024"
    fill="#466473" />
  <path
    d="M24.1496 47.4024C24.1496 47.7391 24.0989 47.7467 24.066 47.7467H22.8355C22.8026 47.7467 22.752 47.7138 22.752 47.4024C22.752 47.0909 22.8026 47.0403 22.8355 47.0403H24.066C24.0989 47.0403 24.1496 47.0808 24.1496 47.4024Z"
    fill="#466473" />
  <path
    d="M25.3852 47.4024C25.3852 47.7391 25.3372 47.7467 25.3043 47.7467H24.0712C24.0383 47.7467 23.9902 47.7138 23.9902 47.4024C23.9902 47.0909 24.0383 47.0403 24.0712 47.0403H25.3043C25.3372 47.0403 25.3852 47.0808 25.3852 47.4024Z"
    fill="#466473" />
  <path
    d="M26.6173 47.4024C26.6173 47.7391 26.5667 47.7467 26.5338 47.7467H25.3007C25.2678 47.7467 25.2197 47.7138 25.2197 47.4024C25.2197 47.0909 25.2678 47.0403 25.3007 47.0403H26.5338C26.5667 47.0403 26.6173 47.0808 26.6173 47.4024Z"
    fill="#466473" />
  <path
    d="M27.8488 47.4024C27.8488 47.7391 27.7981 47.7467 27.7652 47.7467H26.5347C26.5018 47.7467 26.4512 47.7138 26.4512 47.4024C26.4512 47.0909 26.5018 47.0403 26.5347 47.0403H27.7652C27.7981 47.0403 27.8488 47.0808 27.8488 47.4024Z"
    fill="#466473" />
  <path
    d="M29.0787 47.4024C29.0787 47.7391 29.0305 47.7467 28.9976 47.7467H27.7646C27.7317 47.7467 27.6836 47.7138 27.6836 47.4024C27.6836 47.0909 27.7317 47.0403 27.7646 47.0403H28.9976C29.0305 47.0403 29.0787 47.0808 29.0787 47.4024Z"
    fill="#466473" />
  <path
    d="M30.3117 47.4024C30.3117 47.7391 30.261 47.7467 30.2281 47.7467H28.9976C28.9647 47.7467 28.9141 47.7138 28.9141 47.4024C28.9141 47.0909 28.9647 47.0403 28.9976 47.0403H30.2256C30.2585 47.0403 30.3092 47.0808 30.3092 47.4024"
    fill="#466473" />
  <path
    d="M31.5428 47.4024C31.5428 47.7391 31.4921 47.7467 31.4617 47.7467H30.2262C30.1932 47.7467 30.1426 47.7138 30.1426 47.4024C30.1426 47.0909 30.1932 47.0403 30.2262 47.0403H31.4592C31.4896 47.0403 31.5402 47.0808 31.5402 47.4024"
    fill="#466473" />
  <path
    d="M32.7721 47.4024C32.7721 47.7391 32.724 47.7467 32.6911 47.7467H31.4581C31.4251 47.7467 31.377 47.7138 31.377 47.4024C31.377 47.0909 31.4251 47.0403 31.4581 47.0403H32.6911C32.724 47.0403 32.7721 47.0808 32.7721 47.4024Z"
    fill="#466473" />
  <path
    d="M34.006 47.4024C34.006 47.7391 33.9554 47.7467 33.9224 47.7467H32.692C32.6591 47.7467 32.6084 47.7138 32.6084 47.4024C32.6084 47.0909 32.6591 47.0403 32.692 47.0403H33.9224C33.9554 47.0403 34.006 47.0808 34.006 47.4024Z"
    fill="#466473" />
  <path
    d="M35.2369 47.4024C35.2369 47.7391 35.1889 47.7467 35.156 47.7467H33.9229C33.89 47.7467 33.8418 47.7138 33.8418 47.4024C33.8418 47.0909 33.89 47.0403 33.9229 47.0403H35.156C35.1889 47.0403 35.2369 47.0808 35.2369 47.4024Z"
    fill="#466473" />
  <path
    d="M36.4699 47.4024C36.4699 47.7391 36.4192 47.7467 36.3863 47.7467H35.1532C35.1203 47.7467 35.0723 47.7138 35.0723 47.4024C35.0723 47.0909 35.1203 47.0403 35.1532 47.0403H36.3863C36.4192 47.0403 36.4699 47.0808 36.4699 47.4024Z"
    fill="#466473" />
  <path
    d="M37.6994 47.4024C37.6994 47.7391 37.6487 47.7467 37.6158 47.7467H36.3853C36.3524 47.7467 36.3018 47.7138 36.3018 47.4024C36.3018 47.0909 36.3524 47.0403 36.3853 47.0403H37.6158C37.6487 47.0403 37.6994 47.0808 37.6994 47.4024Z"
    fill="#466473" />
  <path
    d="M38.9302 47.4024C38.9302 47.7391 38.8821 47.7467 38.8492 47.7467H37.6161C37.5832 47.7467 37.5352 47.7138 37.5352 47.4024C37.5352 47.0909 37.5832 47.0403 37.6161 47.0403H38.8492C38.8821 47.0403 38.9302 47.0808 38.9302 47.4024Z"
    fill="#466473" />
  <path
    d="M42.1847 47.38C42.1847 47.7091 42.134 47.7345 42.1011 47.7345H41.8479C41.3618 47.7345 41.0174 47.5775 40.863 47.2483C40.7509 47.414 40.5964 47.5465 40.4155 47.632C40.2347 47.7176 40.0343 47.753 39.8351 47.7345H38.8502C38.8173 47.7345 38.7666 47.7091 38.7666 47.3901C38.7666 47.0711 38.8173 47.0281 38.8502 47.0281H39.8477C40.2655 47.0281 40.5465 46.7977 40.5465 46.4204V45.0886H41.2277V46.4027C41.219 46.4896 41.2303 46.5774 41.2607 46.6593C41.291 46.7412 41.3396 46.8151 41.4028 46.8754C41.4661 46.9357 41.5422 46.9808 41.6255 47.0072C41.7087 47.0337 41.797 47.0408 41.8834 47.0281H42.1138C42.1467 47.0281 42.1973 47.061 42.1973 47.38M39.2324 43.4556H41.3997V44.1113H39.2324V43.4556Z"
    fill="#466473" />
  <path
    d="M44.546 46.584L45.7943 45.8522C45.6221 45.2522 45.3512 45.0623 44.7613 45.0623H42.8395L42.9281 44.3483H44.8751C45.8524 44.3483 46.2804 44.7838 46.5918 46.0826L44.8676 47.1511C44.2092 47.5766 43.432 47.7806 42.6496 47.7334H42.1002C42.0673 47.7334 42.0166 47.7081 42.0166 47.3891C42.0166 47.0701 42.0673 47.027 42.1002 47.027H42.6749C43.3286 47.0664 43.9794 46.9123 44.546 46.584ZM43.8725 42.7051H44.7435V43.3887H43.8725V42.7051Z"
    fill="#466473" />
  <path
    d="M49.3092 47.402C49.3092 47.721 49.2687 47.7463 49.2257 47.7463H49.013C48.1674 47.7463 47.7471 47.2121 47.7471 46.3082V42.4319H48.4306V46.2753C48.4306 46.7817 48.6357 47.0349 49.0534 47.0349H49.2332C49.2762 47.0349 49.3168 47.0678 49.3168 47.3969"
    fill="#466473" />
  <path
    d="M50.631 46.3894V45.0981H51.3198V46.3894C51.3198 46.7996 51.5502 47.0376 52.0515 47.0376C52.5528 47.0376 52.8111 46.7844 52.8111 46.3894V45.0981H53.4921V46.3894C53.4921 46.7996 53.7301 47.0376 54.1909 47.0376C54.6517 47.0376 54.8973 46.7996 54.8973 46.3894V45.0981H55.5784V46.3641C55.5784 47.2275 55.0365 47.7364 54.1909 47.7364C53.6237 47.7364 53.2795 47.5541 53.1225 47.23C53.005 47.4031 52.843 47.5414 52.6537 47.6305C52.4644 47.7196 52.2547 47.7561 52.0464 47.7364C51.4388 47.7364 51.0944 47.5541 50.9374 47.23C50.8199 47.4031 50.658 47.5414 50.4687 47.6305C50.2794 47.7196 50.0696 47.7561 49.8613 47.7364H49.2157C49.1828 47.7364 49.1348 47.711 49.1348 47.392C49.1348 47.073 49.1828 47.03 49.2157 47.03H49.8563C50.3626 47.03 50.6158 46.7768 50.6158 46.3818"
    fill="#466473" />
  <path
    d="M64.5887 45.0872V46.4417C64.5887 47.2469 64.0469 47.733 63.2493 47.733H60.3097C59.3222 47.733 58.8564 47.1659 58.8564 46.3126V45.0872H59.5375V46.2215C59.5375 46.7278 59.7755 47.0266 60.3502 47.0266H63.2493C63.333 47.0356 63.4177 47.0267 63.4977 47.0005C63.5777 46.9743 63.6512 46.9314 63.7134 46.8747C63.7756 46.818 63.8251 46.7487 63.8585 46.6715C63.892 46.5942 63.9087 46.5107 63.9075 46.4266V45.0872H64.5887ZM60.6288 43.7478H62.7986V44.3985H60.6288V43.7478Z"
    fill="#466473" />
  <path d="M66.6635 42.4185H65.9824V47.7329H66.6635V42.4185Z" fill="#466473" />
  <path
    d="M69.9409 47.0277H70.0472C70.0801 47.0277 70.1283 47.0682 70.1283 47.3898C70.1283 47.7113 70.0801 47.7341 70.0472 47.7341H69.9409C69.8121 47.7411 69.6834 47.7194 69.5639 47.6709C69.4444 47.6223 69.3371 47.5479 69.2497 47.4531V47.5518C69.2243 48.8836 68.3711 49.7394 67.0975 49.7394H66.5228L66.457 49.0305H67.0823C68.009 49.0305 68.5686 48.4658 68.5686 47.4961V45.0883H69.2497V46.3897C69.2497 46.7922 69.4876 47.0227 69.9409 47.0227M68.4217 43.4172H69.2927V44.111H68.4217V43.4172Z"
    fill="#466473" />
  <path
    d="M72.1162 49.4275H69.9463V48.7717H72.1162V49.4275ZM73.9468 47.3817C73.9468 47.7109 73.8986 47.7361 73.8657 47.7361H73.6125C73.1289 47.7361 72.7821 47.5792 72.6276 47.25C72.5156 47.4157 72.3609 47.5482 72.1801 47.6338C71.9993 47.7193 71.7989 47.7546 71.5997 47.7361H70.0475C70.0146 47.7361 69.9666 47.7108 69.9666 47.3918C69.9666 47.0728 70.0146 47.0298 70.0475 47.0298H71.5997C72.02 47.0298 72.2984 46.7994 72.2984 46.4221V45.0903H72.9795V46.4044C72.9795 46.8146 73.2099 47.0298 73.6378 47.0298H73.8683C73.9012 47.0298 73.9492 47.0627 73.9492 47.3817"
    fill="#466473" />
  <path
    d="M75.1769 47.4024C75.1769 47.7391 75.1262 47.7467 75.0933 47.7467H73.8629C73.83 47.7467 73.7793 47.7138 73.7793 47.4024C73.7793 47.0909 73.83 47.0403 73.8629 47.0403H75.0933C75.1262 47.0403 75.1769 47.0808 75.1769 47.4024Z"
    fill="#466473" />
  <path
    d="M76.4077 47.4024C76.4077 47.7391 76.3596 47.7467 76.3267 47.7467H75.0937C75.0608 47.7467 75.0127 47.7138 75.0127 47.4024C75.0127 47.0909 75.0608 47.0403 75.0937 47.0403H76.3267C76.3596 47.0403 76.4077 47.0808 76.4077 47.4024Z"
    fill="#466473" />
  <path
    d="M77.6408 47.4024C77.6408 47.7391 77.5901 47.7467 77.5572 47.7467H76.3267C76.2938 47.7467 76.2432 47.7138 76.2432 47.4024C76.2432 47.0909 76.2938 47.0403 76.3267 47.0403H77.5572C77.5901 47.0403 77.6408 47.0808 77.6408 47.4024Z"
    fill="#466473" />
  <path
    d="M78.8712 47.4024C78.8712 47.7391 78.8206 47.7467 78.7903 47.7467H77.5572C77.5243 47.7467 77.4736 47.7138 77.4736 47.4024C77.4736 47.0909 77.5243 47.0403 77.5572 47.0403H78.7903C78.8206 47.0403 78.8712 47.0808 78.8712 47.4024Z"
    fill="#466473" />
  <path
    d="M80.103 47.4024C80.103 47.7391 80.055 47.7467 80.022 47.7467H78.789C78.7561 47.7467 78.708 47.7138 78.708 47.4024C78.708 47.0909 78.7561 47.0403 78.789 47.0403H80.022C80.055 47.0403 80.103 47.0808 80.103 47.4024Z"
    fill="#466473" />
  <path
    d="M81.3341 47.4024C81.3341 47.7391 81.2835 47.7467 81.2506 47.7467H80.0201C79.9872 47.7467 79.9365 47.7138 79.9365 47.4024C79.9365 47.0909 79.9872 47.0403 80.0201 47.0403H81.2506C81.2835 47.0403 81.3341 47.0808 81.3341 47.4024Z"
    fill="#466473" />
  <path
    d="M82.5641 47.4024C82.5641 47.7391 82.5159 47.7467 82.483 47.7467H81.2499C81.217 47.7467 81.1689 47.7138 81.1689 47.4024C81.1689 47.0909 81.217 47.0403 81.2499 47.0403H82.483C82.5159 47.0403 82.5641 47.0808 82.5641 47.4024Z"
    fill="#466473" />
  <path
    d="M83.798 47.4024C83.798 47.7391 83.7473 47.7467 83.7144 47.7467H82.4815C82.4486 47.7467 82.4004 47.7138 82.4004 47.4024C82.4004 47.0909 82.4486 47.0403 82.4815 47.0403H83.7144C83.7473 47.0403 83.798 47.0808 83.798 47.4024Z"
    fill="#466473" />
  <path
    d="M85.0285 47.4024C85.0285 47.7391 84.9778 47.7467 84.9449 47.7467H83.7143C83.6814 47.7467 83.6309 47.7138 83.6309 47.4024C83.6309 47.0909 83.6814 47.0403 83.7143 47.0403H84.9449C84.9778 47.0403 85.0285 47.0808 85.0285 47.4024Z"
    fill="#466473" />
  <path
    d="M86.2594 47.4024C86.2594 47.7391 86.2113 47.7467 86.1784 47.7467H84.9454C84.9124 47.7467 84.8643 47.7138 84.8643 47.4024C84.8643 47.0909 84.9124 47.0403 84.9454 47.0403H86.1809C86.2138 47.0403 86.2619 47.0808 86.2619 47.4024"
    fill="#466473" />
  <path
    d="M87.4918 47.4024C87.4918 47.7391 87.4412 47.7467 87.4082 47.7467H86.1803C86.1473 47.7467 86.0967 47.7138 86.0967 47.4024C86.0967 47.0909 86.1473 47.0403 86.1803 47.0403H87.4107C87.4436 47.0403 87.4943 47.0808 87.4943 47.4024"
    fill="#466473" />
  <path
    d="M92.5103 47.4024C92.5103 47.7214 92.4597 47.7467 92.4267 47.7467C91.7128 47.7467 91.414 47.886 91.1127 48.4784L90.4392 49.7165H90.062C88.8872 49.7165 88.1732 49.0532 88.1732 47.8454V47.7467H87.4137C87.3807 47.7467 87.3301 47.7214 87.3301 47.4024C87.3301 47.0833 87.3807 47.0403 87.4137 47.0403H88.1732V46.1617C88.1732 45.068 88.7556 44.3894 89.6924 44.3894C90.5962 44.3894 91.1634 44.949 91.1634 45.8427C91.1634 46.9112 90.2012 47.6986 88.8466 47.7239V47.8227C88.8466 48.6531 89.2492 49.038 90.0543 49.038L90.5607 48.1189C91.0367 47.2555 91.4318 47.0428 92.4243 47.0428C92.4572 47.0428 92.5078 47.0758 92.5078 47.4049M89.6898 45.0781C89.1479 45.0781 88.8517 45.4655 88.8517 46.1643V47.0428C89.8644 47.0428 90.4873 46.5998 90.4873 45.8832C90.4991 45.7753 90.4868 45.666 90.4511 45.5635C90.4153 45.4609 90.357 45.3676 90.2806 45.2905C90.2041 45.2133 90.1114 45.1542 90.0092 45.1174C89.907 45.0807 89.7978 45.0672 89.6898 45.0781Z"
    fill="#466473" />
  <path
    d="M93.2698 44.3494H95.2168C96.1941 44.3494 96.6221 44.7849 96.9335 46.0837L96.2853 46.4787C96.3342 46.653 96.4436 46.8041 96.594 46.9049C96.7444 47.0056 96.9258 47.0493 97.1056 47.0281H97.6475C97.6804 47.0281 97.731 47.0686 97.731 47.3902C97.731 47.7117 97.6804 47.7345 97.6475 47.7345H97.0677C96.4195 47.7345 96.0827 47.5117 95.7612 46.7977L95.1966 47.1522C94.538 47.5773 93.7611 47.7813 92.9787 47.7345H92.4267C92.3938 47.7345 92.3457 47.7092 92.3457 47.3902C92.3457 47.0712 92.3938 47.0281 92.4267 47.0281H93.0166C93.6711 47.0677 94.3228 46.9136 94.8902 46.585L96.1385 45.8533C95.9663 45.2533 95.6954 45.0634 95.103 45.0634H93.1812L93.2698 44.3494ZM93.9585 48.7701H94.8295V49.4587H93.9585V48.7701Z"
    fill="#466473" />
  <path
    d="M99.1568 45.0886H99.8404V46.428C99.8404 47.2483 99.296 47.7345 98.4909 47.7345H97.6376C97.6047 47.7345 97.5566 47.7091 97.5566 47.3901C97.5566 47.0711 97.6047 47.0281 97.6376 47.0281H98.4909C98.5758 47.0383 98.662 47.0301 98.7435 47.004C98.825 46.9779 98.8998 46.9345 98.963 46.8768C99.0262 46.8192 99.0763 46.7485 99.1098 46.6698C99.1432 46.591 99.1592 46.5059 99.1568 46.4204V45.0886ZM100.094 44.1037H97.9263V43.4556H100.106L100.094 44.1037Z"
    fill="#466473" />
  <path
    d="M104.098 49.739H103.085L103.02 49.0301H104.103C104.984 49.0301 105.541 48.5237 105.549 47.7338H104.729C103.587 47.7338 103.136 47.273 103.136 46.2957C103.136 45.2601 103.777 44.5537 104.696 44.5537C105.615 44.5537 106.233 45.2373 106.233 46.326V47.4603C106.233 48.8655 105.394 49.739 104.096 49.739M104.769 47.0274H105.549V46.3893C105.549 45.6298 105.238 45.2474 104.655 45.2474C104.149 45.2474 103.817 45.6576 103.817 46.2602C103.817 46.8198 104.055 47.0198 104.769 47.0198"
    fill="#466473" />
  <path d="M165.953 5.63184H156.385V38.1667H165.953V5.63184Z" fill="#F15A22" />
  <path d="M146.816 19.0266H137.248V38.1652H146.816V19.0266Z" fill="#F15A22" />
  <path d="M156.385 38.1638H146.817V47.7319H156.385V38.1638Z" fill="#F15A22" />
  <path d="M137.246 5.63184H123.85V19.0281H137.246V5.63184Z" fill="#F15A22" />
  <path d="M170.339 9.77254V6.55451H169.134V6.26587H171.876V6.55451H170.668V9.77254H170.339Z"
    fill="#F15A22" />
  <path
    d="M172.462 9.77254V6.26587H173.108L174.199 9.58264H174.262L175.353 6.26587H175.999V9.77254H175.677V6.45576H175.617L174.523 9.77254H173.936L172.844 6.45576H172.781V9.77254H172.462Z"
    fill="#F15A22" />
</svg>