<svg width="703" height="140" viewBox="0 0 703 140" fill="none" xmlns="http://www.w3.org/2000/svg">
<path d="M389.17 89.14C389.17 97.31 385.05 103.56 376.58 108.25L354.49 120.49L360.68 131.67L382.77 119.44C395.32 112.44 401.95 102.01 401.95 89.14V28.14H389.17V89.14Z" fill="white"/>
<path d="M367.1 70.78V29.87H304.1V42.66H354.35V70.78C354.35 85.72 339.09 87.33 332.53 87.33H299.63V100.14H332.53C353.53 100.14 367.13 88.62 367.13 70.8" fill="white"/>
<path d="M459.74 27.38H423.05L418.28 70.8C417.696 74.6864 418.035 78.656 419.272 82.3864C420.509 86.1167 422.609 89.5029 425.4 92.27C430.572 97.2474 437.492 99.9946 444.67 99.92C446.19 99.9228 447.708 99.8058 449.21 99.57L471.769 96.08C470.949 100.24 468.209 103.39 463.019 106.27L437.36 120.48L443.559 131.66L469.21 117.45C479.28 111.87 484.51 104 484.8 94.07V50.2C484.8 36.12 475.189 27.38 459.719 27.38M472 83.14L447.219 86.98C444.928 87.3962 442.571 87.273 440.336 86.6204C438.1 85.9678 436.047 84.8036 434.34 83.22C432.953 81.8415 431.918 80.15 431.321 78.288C430.724 76.426 430.583 74.4479 430.91 72.52L434.469 40.2H459.7C472 40.2 472 47.2 472 50.2V83.14Z" fill="white"/>
<path d="M267.39 87.98H250.74C248.562 87.9774 246.473 87.1102 244.934 85.5689C243.394 84.0276 242.53 81.9384 242.53 79.76V52.57H229.75V75.04C229.75 77.94 228.97 81.63 222.91 84.49C218.91 86.4 213.02 87.49 207.23 87.49C202.85 87.49 188.57 86.57 188.57 74.63V31.33H144.57V72.8C144.57 76.97 143.42 80.12 141.08 82.45C137.57 85.93 131.08 87.82 122.68 87.72L36.46 86.92C29.63 86.86 23.69 85.61 19.71 83.41C15.73 81.21 13.9096 78.25 13.8896 74.05L13.7695 29.58H0.980469L1.09961 74.06C1.17961 89.66 14.6798 99.47 36.3398 99.66L122.57 100.47H123.17C134.85 100.47 144.17 97.37 150.07 91.47C154.9 86.69 157.35 80.39 157.35 72.74V44.14H175.81V74.7C175.81 90.04 188.44 100.35 207.25 100.35C211.78 100.35 220.54 99.79 228.4 96.08C230.43 95.1259 232.341 93.9415 234.1 92.55C236.058 95.1098 238.58 97.1846 241.469 98.6135C244.358 100.042 247.537 100.787 250.76 100.79H280.2V28.14H267.41L267.39 87.98Z" fill="white"/>
<path d="M107.09 31.33H51.0996V44.1099H107.09V31.33Z" fill="white"/>
<path d="M468.18 3.80002L466.9 0L431.85 8.75L433.12 12.55L468.18 3.80002Z" fill="white"/>
<path d="M669.2 0.670044H637.55V108.29H669.2V0.670044Z" fill="white"/>
<path d="M605.89 44.99H574.24V108.3H605.89V44.99Z" fill="white"/>
<path d="M637.55 108.3H605.9V139.95H637.55V108.3Z" fill="white"/>
<path d="M574.24 0.670044H529.93V44.99H574.24V0.670044Z" fill="white"/>
<path d="M683.71 14.38V3.74002H679.72V2.78003H688.79V3.74002H684.8V14.38H683.71Z" fill="white"/>
<path d="M690.73 14.38V2.78003H692.87L696.48 13.75H696.68L700.3 2.78003H702.43V14.38H701.37V3.41H701.17L697.55 14.38H695.61L692 3.41H691.79V14.38H690.73Z" fill="white"/>
</svg>
