<?xml version="1.0" encoding="UTF-8"?>
<svg id="Layer_1" data-name="Layer 1" xmlns="http://www.w3.org/2000/svg" viewBox="0 0 710 210">
  <defs>
    <style>
      .cls-1 {
        fill: #f15b25;
      }

      .cls-2 {
        fill: #476473;
      }

      .cls-3 {
        fill: none;
        stroke: #fff;
        stroke-miterlimit: 10;
      }
    </style>
  </defs>
  <g>
    <g>
      <path class="cls-2" d="M343.99,84.46c0,7.12-3.59,12.57-10.97,16.66l-19.25,10.67,5.4,9.75,19.25-10.67c10.93-6.06,16.71-15.19,16.71-26.4V31.3h-11.14v53.16Z"/>
      <path class="cls-2" d="M324.75,68.47V32.81h-54.94v11.14h43.8v24.51c0,13.02-13.3,14.43-19.02,14.43h-28.68v11.14h28.68c18.32,0,30.16-10.04,30.16-25.57Z"/>
      <path class="cls-2" d="M405.5,30.63h-31.98l-4.16,37.84c-.97,7.05,1.29,13.87,6.2,18.72,4.35,4.3,10.43,6.67,16.8,6.67,1.31,0,2.63-.1,3.96-.3l19.66-3.04c-.71,3.63-3.11,6.37-7.63,8.88l-22.36,12.39,5.4,9.75,22.36-12.39c8.78-4.86,13.33-11.72,13.58-20.38h.02V50.53c0-12.27-8.38-19.89-21.86-19.89Zm10.72,48.57l-21.6,3.34c-4.27,.67-8.48-.56-11.23-3.28-2.44-2.4-3.5-5.71-2.99-9.32l3.1-28.17h22c10.72,0,10.72,6.13,10.72,8.75v28.68Z"/>
      <path class="cls-2" d="M237.85,83.45h-14.51c-3.95,0-7.16-3.21-7.16-7.16v-23.7h-11.14v19.58c0,2.52-.68,5.74-5.95,8.24-3.51,1.66-8.62,2.65-13.67,2.65-3.82,0-16.26-.81-16.26-11.21V34.08h-38.37v36.15c0,3.63-1,6.38-3.04,8.41-3.06,3.03-8.74,4.68-16.03,4.59l-75.15-.7c-5.95-.05-11.13-1.14-14.6-3.06-3.45-1.91-5.06-4.5-5.08-8.16l-.1-38.76-11.14,.03,.1,38.77c.07,13.59,11.84,22.14,30.71,22.31l75.15,.7c.17,0,.35,0,.52,0,10.18,0,18.28-2.7,23.45-7.82,4.21-4.17,6.34-9.66,6.34-16.33v-25.01h16.09v26.64c0,13.37,11.01,22.35,27.41,22.35,3.95,0,11.59-.48,18.43-3.72,1.86-.88,3.51-1.91,4.97-3.08,3.35,4.36,8.61,7.18,14.52,7.18h25.66V31.3h-11.14v52.15Z"/>
      <rect class="cls-2" x="49.33" y="34.08" width="48.8" height="11.14"/>
      <polygon class="cls-2" points="412.85 10.09 411.74 6.78 381.19 14.4 382.3 17.71 412.85 10.09"/>
    </g>
    <g>
      <path class="cls-2" d="M23.03,153.61h2.14c.13,0,.33,.16,.33,1.43,0,1.33-.2,1.36-.33,1.36h-2.24c-2.56,0-3.99-.88-5.29-3.99l-2.92,1.39c-4.15,1.95-5.35,3.76-5.35,6.49,0,3.15,1.85,4.58,6.29,4.58h6.91l-.26,2.79h-6.85c-6.03,0-8.79-2.47-8.79-7.07,0-3.73,1.85-6.68,6.98-9.05l5.97-2.72c-.78-2.3-1.46-2.95-3.76-2.95h-7.66l.36-2.82h7.75c3.73,0,5.39,1.56,6.46,6.94l-3.05,1.33c.75,1.78,1.62,2.3,3.31,2.3Z"/>
      <path class="cls-2" d="M28.76,151.21v-15.8h2.73v15.83c0,3.24-2.14,5.16-5.32,5.16h-1.01c-.13,0-.32-.1-.32-1.36s.19-1.43,.32-1.43h1.01c1.52,0,2.6-.91,2.6-2.4Z"/>
      <path class="cls-2" d="M43.51,155.04c0,1.26-.16,1.36-.32,1.36h-.84c-3.34,0-5.03-2.11-5.03-5.68v-15.31h2.69v15.18c0,2.01,.81,3.02,2.47,3.02h.71c.16,0,.32,.13,.32,1.43Z"/>
      <path class="cls-2" d="M48.38,155.04c0,1.33-.2,1.36-.32,1.36h-4.87c-.13,0-.32-.13-.32-1.36,0-1.3,.19-1.43,.32-1.43h4.87c.13,0,.32,.16,.32,1.43Z"/>
      <path class="cls-2" d="M53.24,155.04c0,1.33-.2,1.36-.32,1.36h-4.87c-.13,0-.32-.13-.32-1.36,0-1.3,.19-1.43,.32-1.43h4.87c.13,0,.32,.16,.32,1.43Z"/>
      <path class="cls-2" d="M58.1,155.04c0,1.33-.2,1.36-.32,1.36h-4.87c-.13,0-.32-.13-.32-1.36,0-1.3,.19-1.43,.32-1.43h4.87c.13,0,.32,.16,.32,1.43Z"/>
      <path class="cls-2" d="M62.97,155.04c0,1.33-.2,1.36-.32,1.36h-4.87c-.13,0-.32-.13-.32-1.36,0-1.3,.19-1.43,.32-1.43h4.87c.13,0,.32,.16,.32,1.43Z"/>
      <path class="cls-2" d="M67.83,155.04c0,1.33-.2,1.36-.32,1.36h-4.87c-.13,0-.32-.13-.32-1.36,0-1.3,.19-1.43,.32-1.43h4.87c.13,0,.32,.16,.32,1.43Z"/>
      <path class="cls-2" d="M72.7,155.04c0,1.33-.2,1.36-.32,1.36h-4.87c-.13,0-.32-.13-.32-1.36,0-1.3,.19-1.43,.32-1.43h4.87c.13,0,.32,.16,.32,1.43Z"/>
      <path class="cls-2" d="M76.68,151.04v-5.09h2.69v5c0,1.33,.49,1.98,1.39,2.3,4.09-7.3,7.3-10.19,10.9-10.19s6.13,2.76,6.13,6.68c0,1.2-.26,2.24-.78,3.15,.62,.55,1.52,.71,2.95,.71h.75c.13,0,.33,.13,.33,1.43s-.2,1.36-.33,1.36h-.75c-2.17,0-3.37-.32-4.45-1.46-1.13,.94-2.72,1.46-4.54,1.46h-8.66c-2.34,0-3.73-.65-4.41-1.91-.78,1.3-2.21,1.91-4.25,1.91h-1.3c-.13,0-.32-.1-.32-1.36s.19-1.43,.32-1.43h1.3c1.95,0,3.02-1.01,3.02-2.56Zm18.43-1.3c0-2.37-1.56-3.99-3.63-3.99-2.47,0-4.9,2.5-8.05,7.85h7.56c2.63,0,4.12-1.49,4.12-3.86Z"/>
      <path class="cls-2" d="M103.76,151.53v-1.33c0-4.15,2.34-6.68,6.2-6.68s6,2.3,6,6.55c0,4.02-2.3,6.33-6.1,6.33-2.27,0-3.79-.71-4.54-2.01-.71,1.39-1.85,2.01-3.86,2.01h-.75c-.13,0-.32-.1-.32-1.36s.19-1.43,.32-1.43h.75c1.56,0,2.3-.68,2.3-2.08Zm6.1-5.29c-2.3,0-3.41,1.3-3.41,3.96,0,2.11,1.23,3.41,3.41,3.41s3.41-1.13,3.41-3.54c0-2.53-1.1-3.83-3.41-3.83Z"/>
      <path class="cls-2" d="M164.48,145.95v5.03c0,3.41-2.14,5.42-5.51,5.42-2.24,0-3.6-.71-4.19-2.01-.81,1.3-2.24,2.01-4.28,2.01-1.49,0-2.43-.39-2.89-.94v.39c-.1,5-3.67,8.47-8.82,8.47h-1.43c-5.48,0-8.5-3.34-8.5-8.99v-6.13h2.69v6.07c0,4.09,2.01,6.26,5.87,6.26h1.36c3.7,0,6.13-2.3,6.13-6v-9.57h2.69v5.16c0,1.49,.91,2.5,2.89,2.5s3.05-1.01,3.05-2.56v-5.09h2.69v5.09c0,1.62,.91,2.56,2.73,2.56s2.82-.94,2.82-2.56v-5.09h2.69Zm-13.88-6.46h8.57v2.56h-8.57v-2.56Zm5.77-1.88h-2.95v-2.56h2.95v2.56Z"/>
      <path class="cls-2" d="M173.57,164.31h-3.99l-.26-2.79h4.28c3.47,0,5.68-1.98,5.71-5.13h-3.24c-4.51,0-6.29-1.82-6.29-5.68,0-4.09,2.53-6.88,6.16-6.88s6.07,2.69,6.07,7.04v4.48c0,5.55-3.31,8.95-8.44,8.95Zm2.66-10.71h3.08v-2.53c0-2.98-1.23-4.51-3.54-4.51-2.01,0-3.31,1.62-3.31,3.99,0,2.21,.94,3.05,3.76,3.05Z"/>
      <path class="cls-2" d="M190.33,155.46v-9.51h2.69v5.16c0,1.59,.94,2.5,2.73,2.5h.42c.13,0,.32,.16,.32,1.43s-.19,1.36-.32,1.36h-.42c-1.17,0-2.27-.45-2.73-1.1v.39c-.1,5.26-3.47,8.63-8.5,8.63h-.91l-.26-2.79h1.1c3.66,0,5.87-2.24,5.87-6.07Z"/>
      <path class="cls-2" d="M203.56,153.48c-3.5-1.3-4.64-2.6-4.64-5.09,0-3.47,2.63-6.16,6.23-6.16,3.96,0,6.26,2.56,6.26,6.98v1.1c0,4.06-2.76,6.1-7.95,6.1h-7.3c-.13,0-.32-.1-.32-1.36s.19-1.43,.32-1.43h5.74c.55,0,1.23-.03,1.65-.13Zm5.16-3.34v-.78c0-2.95-1.27-4.41-3.63-4.41-1.91,0-3.47,1.52-3.47,3.37,0,2.08,1.26,3.15,5.94,4.67,.75-.62,1.17-1.56,1.17-2.86Zm-5.45-11.32v-2.69h3.44v2.69h-3.44Z"/>
      <path class="cls-2" d="M228.24,164.31h-3.99l-.26-2.79h4.28c3.47,0,5.68-1.98,5.71-5.13h-3.24c-4.51,0-6.29-1.82-6.29-5.68,0-4.09,2.53-6.88,6.16-6.88s6.07,2.69,6.07,7.04v4.48c0,5.55-3.31,8.95-8.44,8.95Zm2.66-10.71h3.08v-2.53c0-2.98-1.23-4.51-3.54-4.51-2.01,0-3.31,1.62-3.31,3.99,0,2.21,.94,3.05,3.76,3.05Z"/>
      <path class="cls-2" d="M259.04,151.86c0-.94-.62-2.56-3.6-10.61l2.5-1.14,3.8,10.77c.68,1.95,1.39,2.72,2.95,2.72h.68c.16,0,.32,.16,.32,1.43,0,1.33-.16,1.36-.32,1.36h-.78c-1.95,0-3.24-.62-3.99-2.04-.81,1.43-2.11,2.04-4.09,2.04h-7.59l-.26-2.79h7.85c1.52,0,2.53-.75,2.53-1.75Z"/>
      <path class="cls-2" d="M278.5,145.95v5.29c0,3.24-2.14,5.16-5.32,5.16h-7.82c-.13,0-.32-.1-.32-1.36s.19-1.43,.32-1.43h7.82c1.52,0,2.6-.84,2.6-2.4v-5.26h2.73Zm-4.25,17.13h-8.57v-2.6h8.57v2.6Z"/>
      <path class="cls-2" d="M285.66,155.46v-9.51h2.69v5.16c0,1.59,.94,2.5,2.73,2.5h.42c.13,0,.32,.16,.32,1.43s-.19,1.36-.32,1.36h-.42c-1.17,0-2.27-.45-2.73-1.1v.39c-.1,5.26-3.47,8.63-8.5,8.63h-.91l-.26-2.79h1.1c3.66,0,5.87-2.24,5.87-6.07Z"/>
      <path class="cls-2" d="M301.16,151.86l4.93-2.89c-.68-2.37-1.75-3.11-4.09-3.11h-7.59l.36-2.82h7.69c3.86,0,5.55,1.72,6.78,6.85l-6.81,4.22c-2.76,1.72-4.93,2.3-8.76,2.3h-2.17c-.13,0-.32-.1-.32-1.36s.19-1.43,.32-1.43h2.27c3.28,0,5.13-.45,7.4-1.75Zm-2.66-12.62v-2.69h3.44v2.69h-3.44Z"/>
      <path class="cls-2" d="M319.41,164.31h-.91l-.26-2.79h1.1c3.67,0,5.87-2.24,5.87-6.07v-9.51h2.69v9.51c0,5.48-3.47,8.86-8.5,8.86Z"/>
      <path class="cls-2" d="M339.62,155.04c0,1.26-.16,1.36-.32,1.36h-.84c-3.34,0-5.03-2.11-5.03-5.68v-15.31h2.69v15.18c0,2.01,.81,3.02,2.47,3.02h.71c.16,0,.32,.13,.32,1.43Z"/>
      <path class="cls-2" d="M345.97,163.08h-8.56v-2.6h8.56v2.6Zm6.49-8.08c0,1.3-.2,1.39-.33,1.39h-1.01c-1.91,0-3.28-.62-3.89-1.91-.78,1.3-2.21,1.91-4.06,1.91h-3.89c-.13,0-.32-.1-.32-1.36s.19-1.43,.32-1.43h3.89c1.65,0,2.76-.91,2.76-2.4v-5.26h2.69v5.19c0,1.62,.91,2.47,2.6,2.47h.91c.13,0,.33,.13,.33,1.4Z"/>
      <path class="cls-2" d="M365.3,155c0,1.3-.2,1.39-.33,1.39h-1.01c-1.91,0-3.28-.62-3.89-1.91-.78,1.3-2.21,1.91-4.06,1.91h-3.89c-.13,0-.32-.1-.32-1.36s.19-1.43,.32-1.43h3.89c1.65,0,2.76-.91,2.76-2.4v-5.26h2.69v5.19c0,1.62,.91,2.47,2.6,2.47h.91c.13,0,.33,.13,.33,1.4Zm-11.71-15.51h8.57v2.56h-8.57v-2.56Z"/>
      <path class="cls-2" d="M370.16,155.04c0,1.33-.2,1.36-.32,1.36h-4.87c-.13,0-.32-.13-.32-1.36,0-1.3,.19-1.43,.32-1.43h4.87c.13,0,.32,.16,.32,1.43Z"/>
      <path class="cls-2" d="M375.02,155.04c0,1.33-.2,1.36-.32,1.36h-4.87c-.13,0-.32-.13-.32-1.36,0-1.3,.19-1.43,.32-1.43h4.87c.13,0,.32,.16,.32,1.43Z"/>
      <path class="cls-2" d="M379.89,155.04c0,1.33-.2,1.36-.32,1.36h-4.87c-.13,0-.32-.13-.32-1.36,0-1.3,.19-1.43,.32-1.43h4.87c.13,0,.32,.16,.32,1.43Z"/>
      <path class="cls-2" d="M385.11,151.04v-5.09h2.73v5.09c0,1.62,.91,2.56,2.89,2.56s3.02-1.01,3.02-2.56v-5.09h2.69v5.09c0,1.62,.94,2.56,2.76,2.56s2.79-.94,2.79-2.56v-5.09h2.69v5.03c0,3.41-2.14,5.42-5.48,5.42-2.24,0-3.6-.71-4.22-2.01-.78,1.3-2.21,2.01-4.25,2.01-2.4,0-3.76-.71-4.38-2.01-.78,1.3-2.21,2.01-4.25,2.01h-2.53c-.13,0-.32-.1-.32-1.36s.19-1.43,.32-1.43h2.53c1.95,0,3.02-1.01,3.02-2.56Z"/>
      <path class="cls-2" d="M415.98,140.05l6.23,7.17c1.46,1.65,1.95,3.02,1.95,4.38,0,2.79-1.98,4.8-5.68,4.8h-9.25l-.26-2.79h9.5c1.91,0,2.99-.81,2.99-2.04,0-.78-.39-1.52-1.33-2.63l-6.07-6.97,1.91-1.91Z"/>
      <path class="cls-2" d="M15.16,192.52h13.14c.13,0,.33,.13,.33,1.43s-.2,1.36-.33,1.36h-3.37c.32,.32,.49,.91,.49,1.52,0,3.76-3.44,6.39-8.79,6.39h-2.5c-5.48,0-8.5-3.34-8.5-8.99v-6.13h2.69v6.07c0,4.09,2.01,6.26,5.87,6.26h2.43c4.02,0,6.1-1.36,6.1-3.54,0-1.17-.55-1.69-1.82-1.69h-6.03l.29-2.69Z"/>
      <path class="cls-2" d="M31.66,195.31h-3.37c-.13,0-.32-.1-.32-1.36s.19-1.43,.32-1.43h3.37c1.52,0,2.63-.84,2.63-2.4v-5.26h2.69v5.29c0,3.24-2.14,5.16-5.32,5.16Zm.39-14.34v-2.69h3.44v2.69h-3.44Z"/>
      <path class="cls-2" d="M48.68,193.95c0,1.26-.16,1.36-.32,1.36h-.84c-3.34,0-5.03-2.11-5.03-5.68v-15.31h2.69v15.18c0,2.01,.81,3.02,2.47,3.02h.71c.16,0,.32,.13,.32,1.43Z"/>
      <path class="cls-2" d="M51.41,190.44v-1.33c0-4.15,2.34-6.68,6.2-6.68s6,2.3,6,6.55v.91c0,1.88,.78,2.63,2.24,2.63h.81c.13,0,.32,.13,.32,1.43s-.19,1.36-.32,1.36h-.81c-1.85,0-3.08-.62-3.67-2.08-.91,1.39-2.69,2.08-4.67,2.08-2.27,0-3.79-.71-4.54-2.01-.71,1.39-1.85,2.01-3.86,2.01h-.75c-.13,0-.32-.1-.32-1.36s.19-1.43,.32-1.43h.75c1.56,0,2.3-.68,2.3-2.08Zm6.1-5.29c-2.3,0-3.41,1.3-3.41,3.96,0,2.11,1.23,3.41,3.41,3.41s3.41-1.13,3.41-3.54c0-2.53-1.1-3.83-3.41-3.83Z"/>
      <path class="cls-2" d="M71.83,193.95c0,1.33-.2,1.36-.32,1.36h-4.87c-.13,0-.32-.13-.32-1.36,0-1.3,.19-1.43,.32-1.43h4.87c.13,0,.32,.16,.32,1.43Z"/>
      <path class="cls-2" d="M76.7,193.95c0,1.33-.2,1.36-.32,1.36h-4.87c-.13,0-.32-.13-.32-1.36,0-1.3,.19-1.43,.32-1.43h4.87c.13,0,.32,.16,.32,1.43Z"/>
      <path class="cls-2" d="M81.56,193.95c0,1.33-.2,1.36-.32,1.36h-4.87c-.13,0-.32-.13-.32-1.36,0-1.3,.19-1.43,.32-1.43h4.87c.13,0,.32,.16,.32,1.43Z"/>
      <path class="cls-2" d="M86.43,193.95c0,1.33-.2,1.36-.32,1.36h-4.87c-.13,0-.32-.13-.32-1.36,0-1.3,.19-1.43,.32-1.43h4.87c.13,0,.32,.16,.32,1.43Z"/>
      <path class="cls-2" d="M91.29,193.95c0,1.33-.2,1.36-.32,1.36h-4.87c-.13,0-.32-.13-.32-1.36,0-1.3,.19-1.43,.32-1.43h4.87c.13,0,.32,.16,.32,1.43Z"/>
      <path class="cls-2" d="M96.15,193.95c0,1.33-.2,1.36-.32,1.36h-4.87c-.13,0-.32-.13-.32-1.36,0-1.3,.19-1.43,.32-1.43h4.87c.13,0,.32,.16,.32,1.43Z"/>
      <path class="cls-2" d="M101.02,193.95c0,1.33-.2,1.36-.32,1.36h-4.87c-.13,0-.32-.13-.32-1.36,0-1.3,.19-1.43,.32-1.43h4.87c.13,0,.32,.16,.32,1.43Z"/>
      <path class="cls-2" d="M105.88,193.95c0,1.33-.2,1.36-.32,1.36h-4.87c-.13,0-.32-.13-.32-1.36,0-1.3,.19-1.43,.32-1.43h4.87c.13,0,.32,.16,.32,1.43Z"/>
      <path class="cls-2" d="M110.75,193.95c0,1.33-.2,1.36-.32,1.36h-4.87c-.13,0-.32-.13-.32-1.36,0-1.3,.19-1.43,.32-1.43h4.87c.13,0,.32,.16,.32,1.43Z"/>
      <path class="cls-2" d="M115.61,193.95c0,1.33-.2,1.36-.32,1.36h-4.87c-.13,0-.32-.13-.32-1.36,0-1.3,.19-1.43,.32-1.43h4.87c.13,0,.32,.16,.32,1.43Z"/>
      <path class="cls-2" d="M120.47,193.95c0,1.33-.2,1.36-.32,1.36h-4.87c-.13,0-.32-.13-.32-1.36,0-1.3,.19-1.43,.32-1.43h4.87c.13,0,.32,.16,.32,1.43Z"/>
      <path class="cls-2" d="M125.34,193.95c0,1.33-.2,1.36-.32,1.36h-4.87c-.13,0-.32-.13-.32-1.36,0-1.3,.19-1.43,.32-1.43h4.87c.13,0,.32,.16,.32,1.43Z"/>
      <path class="cls-2" d="M130.2,193.95c0,1.33-.2,1.36-.32,1.36h-4.87c-.13,0-.32-.13-.32-1.36,0-1.3,.19-1.43,.32-1.43h4.87c.13,0,.32,.16,.32,1.43Z"/>
      <path class="cls-2" d="M135.06,193.95c0,1.33-.2,1.36-.32,1.36h-4.87c-.13,0-.32-.13-.32-1.36,0-1.3,.19-1.43,.32-1.43h4.87c.13,0,.32,.16,.32,1.43Z"/>
      <path class="cls-2" d="M139.93,193.95c0,1.33-.2,1.36-.32,1.36h-4.87c-.13,0-.32-.13-.32-1.36,0-1.3,.19-1.43,.32-1.43h4.87c.13,0,.32,.16,.32,1.43Z"/>
      <path class="cls-2" d="M144.79,193.95c0,1.33-.2,1.36-.32,1.36h-4.87c-.13,0-.32-.13-.32-1.36,0-1.3,.19-1.43,.32-1.43h4.87c.13,0,.32,.16,.32,1.43Z"/>
      <path class="cls-2" d="M149.66,193.95c0,1.33-.2,1.36-.32,1.36h-4.87c-.13,0-.32-.13-.32-1.36,0-1.3,.19-1.43,.32-1.43h4.87c.13,0,.32,.16,.32,1.43Z"/>
      <path class="cls-2" d="M154.52,193.95c0,1.33-.2,1.36-.32,1.36h-4.87c-.13,0-.32-.13-.32-1.36,0-1.3,.19-1.43,.32-1.43h4.87c.13,0,.32,.16,.32,1.43Z"/>
      <path class="cls-2" d="M159.38,193.95c0,1.33-.2,1.36-.32,1.36h-4.87c-.13,0-.32-.13-.32-1.36,0-1.3,.19-1.43,.32-1.43h4.87c.13,0,.32,.16,.32,1.43Z"/>
      <path class="cls-2" d="M172.23,193.91c0,1.3-.2,1.39-.33,1.39h-1.01c-1.91,0-3.28-.62-3.89-1.91-.78,1.3-2.21,1.91-4.06,1.91h-3.89c-.13,0-.32-.1-.32-1.36s.19-1.43,.32-1.43h3.89c1.65,0,2.76-.91,2.76-2.4v-5.26h2.69v5.19c0,1.62,.91,2.47,2.6,2.47h.91c.13,0,.33,.13,.33,1.4Zm-11.71-15.51h8.57v2.56h-8.57v-2.56Z"/>
      <path class="cls-2" d="M181.56,190.77l4.93-2.89c-.68-2.37-1.75-3.11-4.09-3.11h-7.59l.36-2.82h7.69c3.86,0,5.55,1.72,6.78,6.85l-6.81,4.22c-2.76,1.72-4.93,2.3-8.76,2.3h-2.17c-.13,0-.32-.1-.32-1.36s.19-1.43,.32-1.43h2.27c3.28,0,5.13-.45,7.4-1.75Zm-2.66-12.62v-2.69h3.44v2.69h-3.44Z"/>
      <path class="cls-2" d="M200.37,193.95c0,1.26-.16,1.36-.32,1.36h-.84c-3.34,0-5.03-2.11-5.03-5.68v-15.31h2.69v15.18c0,2.01,.81,3.02,2.47,3.02h.71c.16,0,.32,.13,.32,1.43Z"/>
      <path class="cls-2" d="M205.59,189.96v-5.09h2.73v5.09c0,1.62,.91,2.56,2.89,2.56s3.02-1.01,3.02-2.56v-5.09h2.69v5.09c0,1.62,.94,2.56,2.76,2.56s2.79-.94,2.79-2.56v-5.09h2.69v5.03c0,3.41-2.14,5.42-5.48,5.42-2.24,0-3.6-.71-4.22-2.01-.78,1.3-2.21,2.01-4.25,2.01-2.4,0-3.76-.71-4.38-2.01-.78,1.3-2.21,2.01-4.25,2.01h-2.53c-.13,0-.32-.1-.32-1.36s.19-1.43,.32-1.43h2.53c1.95,0,3.02-1.01,3.02-2.56Z"/>
      <path class="cls-2" d="M260.72,184.86v5.35c0,3.18-2.14,5.09-5.29,5.09h-11.61c-3.89,0-5.74-2.24-5.74-5.61v-4.83h2.69v4.48c0,1.95,.94,3.18,3.21,3.18h11.45c1.52,0,2.6-.91,2.6-2.37v-5.29h2.69Zm-15.64-5.29h8.57v2.56h-8.57v-2.56Z"/>
      <path class="cls-2" d="M266.22,174.32h2.69v20.99h-2.69v-20.99Z"/>
      <path class="cls-2" d="M281.86,192.52h.42c.13,0,.32,.16,.32,1.43s-.19,1.36-.32,1.36h-.42c-1.17,0-2.27-.45-2.73-1.1v.39c-.1,5.26-3.47,8.63-8.5,8.63h-2.27l-.26-2.79h2.47c3.66,0,5.87-2.24,5.87-6.07v-9.51h2.69v5.16c0,1.59,.94,2.5,2.73,2.5Zm-6.03-11.55v-2.69h3.44v2.69h-3.44Z"/>
      <path class="cls-2" d="M290.45,201.99h-8.56v-2.6h8.56v2.6Zm7.23-8.08c0,1.3-.19,1.39-.32,1.39h-1.01c-1.91,0-3.28-.62-3.89-1.91-.78,1.3-2.21,1.91-4.06,1.91h-6.13c-.13,0-.32-.1-.32-1.36s.19-1.43,.32-1.43h6.13c1.65,0,2.76-.91,2.76-2.4v-5.26h2.69v5.19c0,1.62,.91,2.47,2.6,2.47h.91c.13,0,.32,.13,.32,1.4Z"/>
      <path class="cls-2" d="M302.54,193.95c0,1.33-.2,1.36-.32,1.36h-4.87c-.13,0-.32-.13-.32-1.36,0-1.3,.19-1.43,.32-1.43h4.87c.13,0,.32,.16,.32,1.43Z"/>
      <path class="cls-2" d="M307.4,193.95c0,1.33-.2,1.36-.32,1.36h-4.87c-.13,0-.32-.13-.32-1.36,0-1.3,.19-1.43,.32-1.43h4.87c.13,0,.32,.16,.32,1.43Z"/>
      <path class="cls-2" d="M312.27,193.95c0,1.33-.2,1.36-.32,1.36h-4.87c-.13,0-.32-.13-.32-1.36,0-1.3,.19-1.43,.32-1.43h4.87c.13,0,.32,.16,.32,1.43Z"/>
      <path class="cls-2" d="M317.13,193.95c0,1.33-.2,1.36-.32,1.36h-4.87c-.13,0-.32-.13-.32-1.36,0-1.3,.19-1.43,.32-1.43h4.87c.13,0,.32,.16,.32,1.43Z"/>
      <path class="cls-2" d="M321.99,193.95c0,1.33-.2,1.36-.32,1.36h-4.87c-.13,0-.32-.13-.32-1.36,0-1.3,.19-1.43,.32-1.43h4.87c.13,0,.32,.16,.32,1.43Z"/>
      <path class="cls-2" d="M326.86,193.95c0,1.33-.2,1.36-.32,1.36h-4.87c-.13,0-.32-.13-.32-1.36,0-1.3,.19-1.43,.32-1.43h4.87c.13,0,.32,.16,.32,1.43Z"/>
      <path class="cls-2" d="M331.72,193.95c0,1.33-.2,1.36-.32,1.36h-4.87c-.13,0-.32-.13-.32-1.36,0-1.3,.19-1.43,.32-1.43h4.87c.13,0,.32,.16,.32,1.43Z"/>
      <path class="cls-2" d="M336.59,193.95c0,1.33-.2,1.36-.32,1.36h-4.87c-.13,0-.32-.13-.32-1.36,0-1.3,.19-1.43,.32-1.43h4.87c.13,0,.32,.16,.32,1.43Z"/>
      <path class="cls-2" d="M341.45,193.95c0,1.33-.2,1.36-.32,1.36h-4.87c-.13,0-.32-.13-.32-1.36,0-1.3,.19-1.43,.32-1.43h4.87c.13,0,.32,.16,.32,1.43Z"/>
      <path class="cls-2" d="M346.31,193.95c0,1.33-.2,1.36-.32,1.36h-4.87c-.13,0-.32-.13-.32-1.36,0-1.3,.19-1.43,.32-1.43h4.87c.13,0,.32,.16,.32,1.43Z"/>
      <path class="cls-2" d="M351.18,193.95c0,1.33-.2,1.36-.32,1.36h-4.87c-.13,0-.32-.13-.32-1.36,0-1.3,.19-1.43,.32-1.43h4.87c.13,0,.32,.16,.32,1.43Z"/>
      <path class="cls-2" d="M371.03,193.95c0,1.26-.19,1.36-.32,1.36-2.82,0-3.96,.55-5.19,2.89l-2.66,4.9h-1.49c-4.64,0-7.46-2.63-7.46-7.4v-.39h-3.05c-.13,0-.32-.1-.32-1.36s.19-1.43,.32-1.43h3.05v-3.47c0-4.32,2.3-7.01,6.03-7.01s5.81,2.21,5.81,5.74c0,4.22-3.79,7.33-9.15,7.43v.39c0,3.28,1.59,4.8,4.77,4.8l1.98-3.63c1.88-3.41,3.44-4.25,7.36-4.25,.13,0,.32,.13,.32,1.43Zm-11.13-9.18c-2.14,0-3.31,1.52-3.31,4.28v3.47c3.99,0,6.46-1.75,6.46-4.57,0-2.04-1.17-3.18-3.15-3.18Z"/>
      <path class="cls-2" d="M373.97,181.94h7.69c3.86,0,5.55,1.72,6.78,6.85l-2.56,1.56c.68,1.65,1.56,2.17,3.24,2.17h2.14c.13,0,.33,.16,.33,1.43,0,1.33-.2,1.36-.33,1.36h-2.24c-2.56,0-3.89-.88-5.16-3.7l-2.24,1.39c-2.76,1.72-4.93,2.3-8.76,2.3h-2.17c-.13,0-.32-.1-.32-1.36s.19-1.43,.32-1.43h2.27c3.28,0,5.13-.45,7.4-1.75l4.93-2.89c-.68-2.37-1.75-3.11-4.09-3.11h-7.59l.36-2.82Zm2.72,20.18v-2.73h3.44v2.73h-3.44Z"/>
      <path class="cls-2" d="M397.25,184.86h2.69v5.29c0,3.24-2.14,5.16-5.32,5.16h-3.37c-.13,0-.32-.1-.32-1.36s.19-1.43,.32-1.43h3.37c1.53,0,2.63-.84,2.63-2.4v-5.26Zm3.7-3.89h-8.56v-2.56h8.56v2.56Z"/>
      <path class="cls-2" d="M416.77,203.22h-3.99l-.26-2.79h4.28c3.47,0,5.68-1.98,5.71-5.13h-3.24c-4.51,0-6.29-1.82-6.29-5.68,0-4.09,2.53-6.88,6.16-6.88s6.07,2.69,6.07,7.04v4.48c0,5.55-3.31,8.95-8.44,8.95Zm2.66-10.71h3.08v-2.53c0-2.98-1.23-4.51-3.54-4.51-2.01,0-3.31,1.62-3.31,3.99,0,2.21,.94,3.05,3.76,3.05Z"/>
    </g>
    <g>
      <path class="cls-2" d="M23.03,153.61h2.14c.13,0,.33,.16,.33,1.43,0,1.33-.2,1.36-.33,1.36h-2.24c-2.56,0-3.99-.88-5.29-3.99l-2.92,1.39c-4.15,1.95-5.35,3.76-5.35,6.49,0,3.15,1.85,4.58,6.29,4.58h6.91l-.26,2.79h-6.85c-6.03,0-8.79-2.47-8.79-7.07,0-3.73,1.85-6.68,6.98-9.05l5.97-2.72c-.78-2.3-1.46-2.95-3.76-2.95h-7.66l.36-2.82h7.75c3.73,0,5.39,1.56,6.46,6.94l-3.05,1.33c.75,1.78,1.62,2.3,3.31,2.3Z"/>
      <path class="cls-2" d="M28.76,151.21v-15.8h2.73v15.83c0,3.24-2.14,5.16-5.32,5.16h-1.01c-.13,0-.32-.1-.32-1.36s.19-1.43,.32-1.43h1.01c1.52,0,2.6-.91,2.6-2.4Z"/>
      <path class="cls-2" d="M43.51,155.04c0,1.26-.16,1.36-.32,1.36h-.84c-3.34,0-5.03-2.11-5.03-5.68v-15.31h2.69v15.18c0,2.01,.81,3.02,2.47,3.02h.71c.16,0,.32,.13,.32,1.43Z"/>
      <path class="cls-2" d="M48.38,155.04c0,1.33-.2,1.36-.32,1.36h-4.87c-.13,0-.32-.13-.32-1.36,0-1.3,.19-1.43,.32-1.43h4.87c.13,0,.32,.16,.32,1.43Z"/>
      <path class="cls-2" d="M53.24,155.04c0,1.33-.2,1.36-.32,1.36h-4.87c-.13,0-.32-.13-.32-1.36,0-1.3,.19-1.43,.32-1.43h4.87c.13,0,.32,.16,.32,1.43Z"/>
      <path class="cls-2" d="M58.1,155.04c0,1.33-.2,1.36-.32,1.36h-4.87c-.13,0-.32-.13-.32-1.36,0-1.3,.19-1.43,.32-1.43h4.87c.13,0,.32,.16,.32,1.43Z"/>
      <path class="cls-2" d="M62.97,155.04c0,1.33-.2,1.36-.32,1.36h-4.87c-.13,0-.32-.13-.32-1.36,0-1.3,.19-1.43,.32-1.43h4.87c.13,0,.32,.16,.32,1.43Z"/>
      <path class="cls-2" d="M67.83,155.04c0,1.33-.2,1.36-.32,1.36h-4.87c-.13,0-.32-.13-.32-1.36,0-1.3,.19-1.43,.32-1.43h4.87c.13,0,.32,.16,.32,1.43Z"/>
      <path class="cls-2" d="M72.7,155.04c0,1.33-.2,1.36-.32,1.36h-4.87c-.13,0-.32-.13-.32-1.36,0-1.3,.19-1.43,.32-1.43h4.87c.13,0,.32,.16,.32,1.43Z"/>
      <path class="cls-2" d="M76.68,151.04v-5.09h2.69v5c0,1.33,.49,1.98,1.39,2.3,4.09-7.3,7.3-10.19,10.9-10.19s6.13,2.76,6.13,6.68c0,1.2-.26,2.24-.78,3.15,.62,.55,1.52,.71,2.95,.71h.75c.13,0,.33,.13,.33,1.43s-.2,1.36-.33,1.36h-.75c-2.17,0-3.37-.32-4.45-1.46-1.13,.94-2.72,1.46-4.54,1.46h-8.66c-2.34,0-3.73-.65-4.41-1.91-.78,1.3-2.21,1.91-4.25,1.91h-1.3c-.13,0-.32-.1-.32-1.36s.19-1.43,.32-1.43h1.3c1.95,0,3.02-1.01,3.02-2.56Zm18.43-1.3c0-2.37-1.56-3.99-3.63-3.99-2.47,0-4.9,2.5-8.05,7.85h7.56c2.63,0,4.12-1.49,4.12-3.86Z"/>
      <path class="cls-2" d="M103.76,151.53v-1.33c0-4.15,2.34-6.68,6.2-6.68s6,2.3,6,6.55c0,4.02-2.3,6.33-6.1,6.33-2.27,0-3.79-.71-4.54-2.01-.71,1.39-1.85,2.01-3.86,2.01h-.75c-.13,0-.32-.1-.32-1.36s.19-1.43,.32-1.43h.75c1.56,0,2.3-.68,2.3-2.08Zm6.1-5.29c-2.3,0-3.41,1.3-3.41,3.96,0,2.11,1.23,3.41,3.41,3.41s3.41-1.13,3.41-3.54c0-2.53-1.1-3.83-3.41-3.83Z"/>
      <path class="cls-2" d="M164.48,145.95v5.03c0,3.41-2.14,5.42-5.51,5.42-2.24,0-3.6-.71-4.19-2.01-.81,1.3-2.24,2.01-4.28,2.01-1.49,0-2.43-.39-2.89-.94v.39c-.1,5-3.67,8.47-8.82,8.47h-1.43c-5.48,0-8.5-3.34-8.5-8.99v-6.13h2.69v6.07c0,4.09,2.01,6.26,5.87,6.26h1.36c3.7,0,6.13-2.3,6.13-6v-9.57h2.69v5.16c0,1.49,.91,2.5,2.89,2.5s3.05-1.01,3.05-2.56v-5.09h2.69v5.09c0,1.62,.91,2.56,2.73,2.56s2.82-.94,2.82-2.56v-5.09h2.69Zm-13.88-6.46h8.57v2.56h-8.57v-2.56Zm5.77-1.88h-2.95v-2.56h2.95v2.56Z"/>
      <path class="cls-2" d="M173.57,164.31h-3.99l-.26-2.79h4.28c3.47,0,5.68-1.98,5.71-5.13h-3.24c-4.51,0-6.29-1.82-6.29-5.68,0-4.09,2.53-6.88,6.16-6.88s6.07,2.69,6.07,7.04v4.48c0,5.55-3.31,8.95-8.44,8.95Zm2.66-10.71h3.08v-2.53c0-2.98-1.23-4.51-3.54-4.51-2.01,0-3.31,1.62-3.31,3.99,0,2.21,.94,3.05,3.76,3.05Z"/>
      <path class="cls-2" d="M190.33,155.46v-9.51h2.69v5.16c0,1.59,.94,2.5,2.73,2.5h.42c.13,0,.32,.16,.32,1.43s-.19,1.36-.32,1.36h-.42c-1.17,0-2.27-.45-2.73-1.1v.39c-.1,5.26-3.47,8.63-8.5,8.63h-.91l-.26-2.79h1.1c3.66,0,5.87-2.24,5.87-6.07Z"/>
      <path class="cls-2" d="M203.56,153.48c-3.5-1.3-4.64-2.6-4.64-5.09,0-3.47,2.63-6.16,6.23-6.16,3.96,0,6.26,2.56,6.26,6.98v1.1c0,4.06-2.76,6.1-7.95,6.1h-7.3c-.13,0-.32-.1-.32-1.36s.19-1.43,.32-1.43h5.74c.55,0,1.23-.03,1.65-.13Zm5.16-3.34v-.78c0-2.95-1.27-4.41-3.63-4.41-1.91,0-3.47,1.52-3.47,3.37,0,2.08,1.26,3.15,5.94,4.67,.75-.62,1.17-1.56,1.17-2.86Zm-5.45-11.32v-2.69h3.44v2.69h-3.44Z"/>
      <path class="cls-2" d="M228.24,164.31h-3.99l-.26-2.79h4.28c3.47,0,5.68-1.98,5.71-5.13h-3.24c-4.51,0-6.29-1.82-6.29-5.68,0-4.09,2.53-6.88,6.16-6.88s6.07,2.69,6.07,7.04v4.48c0,5.55-3.31,8.95-8.44,8.95Zm2.66-10.71h3.08v-2.53c0-2.98-1.23-4.51-3.54-4.51-2.01,0-3.31,1.62-3.31,3.99,0,2.21,.94,3.05,3.76,3.05Z"/>
      <path class="cls-2" d="M259.04,151.86c0-.94-.62-2.56-3.6-10.61l2.5-1.14,3.8,10.77c.68,1.95,1.39,2.72,2.95,2.72h.68c.16,0,.32,.16,.32,1.43,0,1.33-.16,1.36-.32,1.36h-.78c-1.95,0-3.24-.62-3.99-2.04-.81,1.43-2.11,2.04-4.09,2.04h-7.59l-.26-2.79h7.85c1.52,0,2.53-.75,2.53-1.75Z"/>
      <path class="cls-2" d="M278.5,145.95v5.29c0,3.24-2.14,5.16-5.32,5.16h-7.82c-.13,0-.32-.1-.32-1.36s.19-1.43,.32-1.43h7.82c1.52,0,2.6-.84,2.6-2.4v-5.26h2.73Zm-4.25,17.13h-8.57v-2.6h8.57v2.6Z"/>
      <path class="cls-2" d="M285.66,155.46v-9.51h2.69v5.16c0,1.59,.94,2.5,2.73,2.5h.42c.13,0,.32,.16,.32,1.43s-.19,1.36-.32,1.36h-.42c-1.17,0-2.27-.45-2.73-1.1v.39c-.1,5.26-3.47,8.63-8.5,8.63h-.91l-.26-2.79h1.1c3.66,0,5.87-2.24,5.87-6.07Z"/>
      <path class="cls-2" d="M301.16,151.86l4.93-2.89c-.68-2.37-1.75-3.11-4.09-3.11h-7.59l.36-2.82h7.69c3.86,0,5.55,1.72,6.78,6.85l-6.81,4.22c-2.76,1.72-4.93,2.3-8.76,2.3h-2.17c-.13,0-.32-.1-.32-1.36s.19-1.43,.32-1.43h2.27c3.28,0,5.13-.45,7.4-1.75Zm-2.66-12.62v-2.69h3.44v2.69h-3.44Z"/>
      <path class="cls-2" d="M319.41,164.31h-.91l-.26-2.79h1.1c3.67,0,5.87-2.24,5.87-6.07v-9.51h2.69v9.51c0,5.48-3.47,8.86-8.5,8.86Z"/>
      <path class="cls-2" d="M339.62,155.04c0,1.26-.16,1.36-.32,1.36h-.84c-3.34,0-5.03-2.11-5.03-5.68v-15.31h2.69v15.18c0,2.01,.81,3.02,2.47,3.02h.71c.16,0,.32,.13,.32,1.43Z"/>
      <path class="cls-2" d="M345.97,163.08h-8.56v-2.6h8.56v2.6Zm6.49-8.08c0,1.3-.2,1.39-.33,1.39h-1.01c-1.91,0-3.28-.62-3.89-1.91-.78,1.3-2.21,1.91-4.06,1.91h-3.89c-.13,0-.32-.1-.32-1.36s.19-1.43,.32-1.43h3.89c1.65,0,2.76-.91,2.76-2.4v-5.26h2.69v5.19c0,1.62,.91,2.47,2.6,2.47h.91c.13,0,.33,.13,.33,1.4Z"/>
      <path class="cls-2" d="M365.3,155c0,1.3-.2,1.39-.33,1.39h-1.01c-1.91,0-3.28-.62-3.89-1.91-.78,1.3-2.21,1.91-4.06,1.91h-3.89c-.13,0-.32-.1-.32-1.36s.19-1.43,.32-1.43h3.89c1.65,0,2.76-.91,2.76-2.4v-5.26h2.69v5.19c0,1.62,.91,2.47,2.6,2.47h.91c.13,0,.33,.13,.33,1.4Zm-11.71-15.51h8.57v2.56h-8.57v-2.56Z"/>
      <path class="cls-2" d="M370.16,155.04c0,1.33-.2,1.36-.32,1.36h-4.87c-.13,0-.32-.13-.32-1.36,0-1.3,.19-1.43,.32-1.43h4.87c.13,0,.32,.16,.32,1.43Z"/>
      <path class="cls-2" d="M375.02,155.04c0,1.33-.2,1.36-.32,1.36h-4.87c-.13,0-.32-.13-.32-1.36,0-1.3,.19-1.43,.32-1.43h4.87c.13,0,.32,.16,.32,1.43Z"/>
      <path class="cls-2" d="M379.89,155.04c0,1.33-.2,1.36-.32,1.36h-4.87c-.13,0-.32-.13-.32-1.36,0-1.3,.19-1.43,.32-1.43h4.87c.13,0,.32,.16,.32,1.43Z"/>
      <path class="cls-2" d="M385.11,151.04v-5.09h2.73v5.09c0,1.62,.91,2.56,2.89,2.56s3.02-1.01,3.02-2.56v-5.09h2.69v5.09c0,1.62,.94,2.56,2.76,2.56s2.79-.94,2.79-2.56v-5.09h2.69v5.03c0,3.41-2.14,5.42-5.48,5.42-2.24,0-3.6-.71-4.22-2.01-.78,1.3-2.21,2.01-4.25,2.01-2.4,0-3.76-.71-4.38-2.01-.78,1.3-2.21,2.01-4.25,2.01h-2.53c-.13,0-.32-.1-.32-1.36s.19-1.43,.32-1.43h2.53c1.95,0,3.02-1.01,3.02-2.56Z"/>
      <path class="cls-2" d="M415.98,140.05l6.23,7.17c1.46,1.65,1.95,3.02,1.95,4.38,0,2.79-1.98,4.8-5.68,4.8h-9.25l-.26-2.79h9.5c1.91,0,2.99-.81,2.99-2.04,0-.78-.39-1.52-1.33-2.63l-6.07-6.97,1.91-1.91Z"/>
      <path class="cls-2" d="M15.16,192.52h13.14c.13,0,.33,.13,.33,1.43s-.2,1.36-.33,1.36h-3.37c.32,.32,.49,.91,.49,1.52,0,3.76-3.44,6.39-8.79,6.39h-2.5c-5.48,0-8.5-3.34-8.5-8.99v-6.13h2.69v6.07c0,4.09,2.01,6.26,5.87,6.26h2.43c4.02,0,6.1-1.36,6.1-3.54,0-1.17-.55-1.69-1.82-1.69h-6.03l.29-2.69Z"/>
      <path class="cls-2" d="M31.66,195.31h-3.37c-.13,0-.32-.1-.32-1.36s.19-1.43,.32-1.43h3.37c1.52,0,2.63-.84,2.63-2.4v-5.26h2.69v5.29c0,3.24-2.14,5.16-5.32,5.16Zm.39-14.34v-2.69h3.44v2.69h-3.44Z"/>
      <path class="cls-2" d="M48.68,193.95c0,1.26-.16,1.36-.32,1.36h-.84c-3.34,0-5.03-2.11-5.03-5.68v-15.31h2.69v15.18c0,2.01,.81,3.02,2.47,3.02h.71c.16,0,.32,.13,.32,1.43Z"/>
      <path class="cls-2" d="M51.41,190.44v-1.33c0-4.15,2.34-6.68,6.2-6.68s6,2.3,6,6.55v.91c0,1.88,.78,2.63,2.24,2.63h.81c.13,0,.32,.13,.32,1.43s-.19,1.36-.32,1.36h-.81c-1.85,0-3.08-.62-3.67-2.08-.91,1.39-2.69,2.08-4.67,2.08-2.27,0-3.79-.71-4.54-2.01-.71,1.39-1.85,2.01-3.86,2.01h-.75c-.13,0-.32-.1-.32-1.36s.19-1.43,.32-1.43h.75c1.56,0,2.3-.68,2.3-2.08Zm6.1-5.29c-2.3,0-3.41,1.3-3.41,3.96,0,2.11,1.23,3.41,3.41,3.41s3.41-1.13,3.41-3.54c0-2.53-1.1-3.83-3.41-3.83Z"/>
      <path class="cls-2" d="M71.83,193.95c0,1.33-.2,1.36-.32,1.36h-4.87c-.13,0-.32-.13-.32-1.36,0-1.3,.19-1.43,.32-1.43h4.87c.13,0,.32,.16,.32,1.43Z"/>
      <path class="cls-2" d="M76.7,193.95c0,1.33-.2,1.36-.32,1.36h-4.87c-.13,0-.32-.13-.32-1.36,0-1.3,.19-1.43,.32-1.43h4.87c.13,0,.32,.16,.32,1.43Z"/>
      <path class="cls-2" d="M81.56,193.95c0,1.33-.2,1.36-.32,1.36h-4.87c-.13,0-.32-.13-.32-1.36,0-1.3,.19-1.43,.32-1.43h4.87c.13,0,.32,.16,.32,1.43Z"/>
      <path class="cls-2" d="M86.43,193.95c0,1.33-.2,1.36-.32,1.36h-4.87c-.13,0-.32-.13-.32-1.36,0-1.3,.19-1.43,.32-1.43h4.87c.13,0,.32,.16,.32,1.43Z"/>
      <path class="cls-2" d="M91.29,193.95c0,1.33-.2,1.36-.32,1.36h-4.87c-.13,0-.32-.13-.32-1.36,0-1.3,.19-1.43,.32-1.43h4.87c.13,0,.32,.16,.32,1.43Z"/>
      <path class="cls-2" d="M96.15,193.95c0,1.33-.2,1.36-.32,1.36h-4.87c-.13,0-.32-.13-.32-1.36,0-1.3,.19-1.43,.32-1.43h4.87c.13,0,.32,.16,.32,1.43Z"/>
      <path class="cls-2" d="M101.02,193.95c0,1.33-.2,1.36-.32,1.36h-4.87c-.13,0-.32-.13-.32-1.36,0-1.3,.19-1.43,.32-1.43h4.87c.13,0,.32,.16,.32,1.43Z"/>
      <path class="cls-2" d="M105.88,193.95c0,1.33-.2,1.36-.32,1.36h-4.87c-.13,0-.32-.13-.32-1.36,0-1.3,.19-1.43,.32-1.43h4.87c.13,0,.32,.16,.32,1.43Z"/>
      <path class="cls-2" d="M110.75,193.95c0,1.33-.2,1.36-.32,1.36h-4.87c-.13,0-.32-.13-.32-1.36,0-1.3,.19-1.43,.32-1.43h4.87c.13,0,.32,.16,.32,1.43Z"/>
      <path class="cls-2" d="M115.61,193.95c0,1.33-.2,1.36-.32,1.36h-4.87c-.13,0-.32-.13-.32-1.36,0-1.3,.19-1.43,.32-1.43h4.87c.13,0,.32,.16,.32,1.43Z"/>
      <path class="cls-2" d="M120.47,193.95c0,1.33-.2,1.36-.32,1.36h-4.87c-.13,0-.32-.13-.32-1.36,0-1.3,.19-1.43,.32-1.43h4.87c.13,0,.32,.16,.32,1.43Z"/>
      <path class="cls-2" d="M125.34,193.95c0,1.33-.2,1.36-.32,1.36h-4.87c-.13,0-.32-.13-.32-1.36,0-1.3,.19-1.43,.32-1.43h4.87c.13,0,.32,.16,.32,1.43Z"/>
      <path class="cls-2" d="M130.2,193.95c0,1.33-.2,1.36-.32,1.36h-4.87c-.13,0-.32-.13-.32-1.36,0-1.3,.19-1.43,.32-1.43h4.87c.13,0,.32,.16,.32,1.43Z"/>
      <path class="cls-2" d="M135.06,193.95c0,1.33-.2,1.36-.32,1.36h-4.87c-.13,0-.32-.13-.32-1.36,0-1.3,.19-1.43,.32-1.43h4.87c.13,0,.32,.16,.32,1.43Z"/>
      <path class="cls-2" d="M139.93,193.95c0,1.33-.2,1.36-.32,1.36h-4.87c-.13,0-.32-.13-.32-1.36,0-1.3,.19-1.43,.32-1.43h4.87c.13,0,.32,.16,.32,1.43Z"/>
      <path class="cls-2" d="M144.79,193.95c0,1.33-.2,1.36-.32,1.36h-4.87c-.13,0-.32-.13-.32-1.36,0-1.3,.19-1.43,.32-1.43h4.87c.13,0,.32,.16,.32,1.43Z"/>
      <path class="cls-2" d="M149.66,193.95c0,1.33-.2,1.36-.32,1.36h-4.87c-.13,0-.32-.13-.32-1.36,0-1.3,.19-1.43,.32-1.43h4.87c.13,0,.32,.16,.32,1.43Z"/>
      <path class="cls-2" d="M154.52,193.95c0,1.33-.2,1.36-.32,1.36h-4.87c-.13,0-.32-.13-.32-1.36,0-1.3,.19-1.43,.32-1.43h4.87c.13,0,.32,.16,.32,1.43Z"/>
      <path class="cls-2" d="M159.38,193.95c0,1.33-.2,1.36-.32,1.36h-4.87c-.13,0-.32-.13-.32-1.36,0-1.3,.19-1.43,.32-1.43h4.87c.13,0,.32,.16,.32,1.43Z"/>
      <path class="cls-2" d="M172.23,193.91c0,1.3-.2,1.39-.33,1.39h-1.01c-1.91,0-3.28-.62-3.89-1.91-.78,1.3-2.21,1.91-4.06,1.91h-3.89c-.13,0-.32-.1-.32-1.36s.19-1.43,.32-1.43h3.89c1.65,0,2.76-.91,2.76-2.4v-5.26h2.69v5.19c0,1.62,.91,2.47,2.6,2.47h.91c.13,0,.33,.13,.33,1.4Zm-11.71-15.51h8.57v2.56h-8.57v-2.56Z"/>
      <path class="cls-2" d="M181.56,190.77l4.93-2.89c-.68-2.37-1.75-3.11-4.09-3.11h-7.59l.36-2.82h7.69c3.86,0,5.55,1.72,6.78,6.85l-6.81,4.22c-2.76,1.72-4.93,2.3-8.76,2.3h-2.17c-.13,0-.32-.1-.32-1.36s.19-1.43,.32-1.43h2.27c3.28,0,5.13-.45,7.4-1.75Zm-2.66-12.62v-2.69h3.44v2.69h-3.44Z"/>
      <path class="cls-2" d="M200.37,193.95c0,1.26-.16,1.36-.32,1.36h-.84c-3.34,0-5.03-2.11-5.03-5.68v-15.31h2.69v15.18c0,2.01,.81,3.02,2.47,3.02h.71c.16,0,.32,.13,.32,1.43Z"/>
      <path class="cls-2" d="M205.59,189.96v-5.09h2.73v5.09c0,1.62,.91,2.56,2.89,2.56s3.02-1.01,3.02-2.56v-5.09h2.69v5.09c0,1.62,.94,2.56,2.76,2.56s2.79-.94,2.79-2.56v-5.09h2.69v5.03c0,3.41-2.14,5.42-5.48,5.42-2.24,0-3.6-.71-4.22-2.01-.78,1.3-2.21,2.01-4.25,2.01-2.4,0-3.76-.71-4.38-2.01-.78,1.3-2.21,2.01-4.25,2.01h-2.53c-.13,0-.32-.1-.32-1.36s.19-1.43,.32-1.43h2.53c1.95,0,3.02-1.01,3.02-2.56Z"/>
      <path class="cls-2" d="M260.72,184.86v5.35c0,3.18-2.14,5.09-5.29,5.09h-11.61c-3.89,0-5.74-2.24-5.74-5.61v-4.83h2.69v4.48c0,1.95,.94,3.18,3.21,3.18h11.45c1.52,0,2.6-.91,2.6-2.37v-5.29h2.69Zm-15.64-5.29h8.57v2.56h-8.57v-2.56Z"/>
      <path class="cls-2" d="M266.22,174.32h2.69v20.99h-2.69v-20.99Z"/>
      <path class="cls-2" d="M281.86,192.52h.42c.13,0,.32,.16,.32,1.43s-.19,1.36-.32,1.36h-.42c-1.17,0-2.27-.45-2.73-1.1v.39c-.1,5.26-3.47,8.63-8.5,8.63h-2.27l-.26-2.79h2.47c3.66,0,5.87-2.24,5.87-6.07v-9.51h2.69v5.16c0,1.59,.94,2.5,2.73,2.5Zm-6.03-11.55v-2.69h3.44v2.69h-3.44Z"/>
      <path class="cls-2" d="M290.45,201.99h-8.56v-2.6h8.56v2.6Zm7.23-8.08c0,1.3-.19,1.39-.32,1.39h-1.01c-1.91,0-3.28-.62-3.89-1.91-.78,1.3-2.21,1.91-4.06,1.91h-6.13c-.13,0-.32-.1-.32-1.36s.19-1.43,.32-1.43h6.13c1.65,0,2.76-.91,2.76-2.4v-5.26h2.69v5.19c0,1.62,.91,2.47,2.6,2.47h.91c.13,0,.32,.13,.32,1.4Z"/>
      <path class="cls-2" d="M302.54,193.95c0,1.33-.2,1.36-.32,1.36h-4.87c-.13,0-.32-.13-.32-1.36,0-1.3,.19-1.43,.32-1.43h4.87c.13,0,.32,.16,.32,1.43Z"/>
      <path class="cls-2" d="M307.4,193.95c0,1.33-.2,1.36-.32,1.36h-4.87c-.13,0-.32-.13-.32-1.36,0-1.3,.19-1.43,.32-1.43h4.87c.13,0,.32,.16,.32,1.43Z"/>
      <path class="cls-2" d="M312.27,193.95c0,1.33-.2,1.36-.32,1.36h-4.87c-.13,0-.32-.13-.32-1.36,0-1.3,.19-1.43,.32-1.43h4.87c.13,0,.32,.16,.32,1.43Z"/>
      <path class="cls-2" d="M317.13,193.95c0,1.33-.2,1.36-.32,1.36h-4.87c-.13,0-.32-.13-.32-1.36,0-1.3,.19-1.43,.32-1.43h4.87c.13,0,.32,.16,.32,1.43Z"/>
      <path class="cls-2" d="M321.99,193.95c0,1.33-.2,1.36-.32,1.36h-4.87c-.13,0-.32-.13-.32-1.36,0-1.3,.19-1.43,.32-1.43h4.87c.13,0,.32,.16,.32,1.43Z"/>
      <path class="cls-2" d="M326.86,193.95c0,1.33-.2,1.36-.32,1.36h-4.87c-.13,0-.32-.13-.32-1.36,0-1.3,.19-1.43,.32-1.43h4.87c.13,0,.32,.16,.32,1.43Z"/>
      <path class="cls-2" d="M331.72,193.95c0,1.33-.2,1.36-.32,1.36h-4.87c-.13,0-.32-.13-.32-1.36,0-1.3,.19-1.43,.32-1.43h4.87c.13,0,.32,.16,.32,1.43Z"/>
      <path class="cls-2" d="M336.59,193.95c0,1.33-.2,1.36-.32,1.36h-4.87c-.13,0-.32-.13-.32-1.36,0-1.3,.19-1.43,.32-1.43h4.87c.13,0,.32,.16,.32,1.43Z"/>
      <path class="cls-2" d="M341.45,193.95c0,1.33-.2,1.36-.32,1.36h-4.87c-.13,0-.32-.13-.32-1.36,0-1.3,.19-1.43,.32-1.43h4.87c.13,0,.32,.16,.32,1.43Z"/>
      <path class="cls-2" d="M346.31,193.95c0,1.33-.2,1.36-.32,1.36h-4.87c-.13,0-.32-.13-.32-1.36,0-1.3,.19-1.43,.32-1.43h4.87c.13,0,.32,.16,.32,1.43Z"/>
      <path class="cls-2" d="M351.18,193.95c0,1.33-.2,1.36-.32,1.36h-4.87c-.13,0-.32-.13-.32-1.36,0-1.3,.19-1.43,.32-1.43h4.87c.13,0,.32,.16,.32,1.43Z"/>
      <path class="cls-2" d="M371.03,193.95c0,1.26-.19,1.36-.32,1.36-2.82,0-3.96,.55-5.19,2.89l-2.66,4.9h-1.49c-4.64,0-7.46-2.63-7.46-7.4v-.39h-3.05c-.13,0-.32-.1-.32-1.36s.19-1.43,.32-1.43h3.05v-3.47c0-4.32,2.3-7.01,6.03-7.01s5.81,2.21,5.81,5.74c0,4.22-3.79,7.33-9.15,7.43v.39c0,3.28,1.59,4.8,4.77,4.8l1.98-3.63c1.88-3.41,3.44-4.25,7.36-4.25,.13,0,.32,.13,.32,1.43Zm-11.13-9.18c-2.14,0-3.31,1.52-3.31,4.28v3.47c3.99,0,6.46-1.75,6.46-4.57,0-2.04-1.17-3.18-3.15-3.18Z"/>
      <path class="cls-2" d="M373.97,181.94h7.69c3.86,0,5.55,1.72,6.78,6.85l-2.56,1.56c.68,1.65,1.56,2.17,3.24,2.17h2.14c.13,0,.33,.16,.33,1.43,0,1.33-.2,1.36-.33,1.36h-2.24c-2.56,0-3.89-.88-5.16-3.7l-2.24,1.39c-2.76,1.72-4.93,2.3-8.76,2.3h-2.17c-.13,0-.32-.1-.32-1.36s.19-1.43,.32-1.43h2.27c3.28,0,5.13-.45,7.4-1.75l4.93-2.89c-.68-2.37-1.75-3.11-4.09-3.11h-7.59l.36-2.82Zm2.72,20.18v-2.73h3.44v2.73h-3.44Z"/>
      <path class="cls-2" d="M397.25,184.86h2.69v5.29c0,3.24-2.14,5.16-5.32,5.16h-3.37c-.13,0-.32-.1-.32-1.36s.19-1.43,.32-1.43h3.37c1.53,0,2.63-.84,2.63-2.4v-5.26Zm3.7-3.89h-8.56v-2.56h8.56v2.56Z"/>
      <path class="cls-2" d="M416.77,203.22h-3.99l-.26-2.79h4.28c3.47,0,5.68-1.98,5.71-5.13h-3.24c-4.51,0-6.29-1.82-6.29-5.68,0-4.09,2.53-6.88,6.16-6.88s6.07,2.69,6.07,7.04v4.48c0,5.55-3.31,8.95-8.44,8.95Zm2.66-10.71h3.08v-2.53c0-2.98-1.23-4.51-3.54-4.51-2.01,0-3.31,1.62-3.31,3.99,0,2.21,.94,3.05,3.76,3.05Z"/>
    </g>
  </g>
  <g>
    <g>
      <rect class="cls-1" x="623.28" y="29.02" width="37.79" height="128.5"/>
      <rect class="cls-1" x="547.7" y="81.93" width="37.79" height="75.59"/>
      <rect class="cls-1" x="585.49" y="157.51" width="37.79" height="37.79"/>
      <rect class="cls-1" x="494.78" y="29.02" width="52.91" height="52.91"/>
    </g>
    <path class="cls-1" d="M678.39,45.38v-12.71h-4.76v-1.15h10.83v1.15h-4.76v12.71h-1.3Z"/>
    <path class="cls-1" d="M686.78,45.38v-13.86h2.55l4.32,13.1h.24l4.32-13.1h2.54v13.86h-1.26v-13.1h-.25l-4.32,13.1h-2.32l-4.32-13.1h-.25v13.1h-1.26Z"/>
  </g>
  <rect class="cls-3" x="-921.93" y="-873.47" width="7338.96" height="4836.08"/>
</svg>