<svg xmlns="http://www.w3.org/2000/svg" width="40" height="67" fill="none"><mask id="a" width="40" height="67" x="0" y="0" maskUnits="userSpaceOnUse" style="mask-type:luminance"><path fill="#fff" d="M0 0h39.6v67H0V0Z"/></mask><g mask="url(#a)"><path fill="#F15B25" d="m34.147 14.156-21.44-12.38c-1.22-.71-2.33-.8-3.16-.38l-.84.51-6.17 3.801s-.05.059-.03.089c.31.65 3.22 6.74 3.49 7.86.11.47 1.02 5.131 2.08 10.551v2.729c0 1.52.55 3.21 1.44 4.7v.02c1.1 5.65 2.03 10.48 2.05 10.6v.01l3.18 7.5s.07.06.11.04l7.26-4.23s.05-.06.03-.09l-.54-1.529v-.011c-.14-.73-.25-1.55-.3-2.37l9.25 10.29s.07.03.1.01l6.76-4.18s.07-.04.1-.06c.8-.5 1.29-1.52 1.29-2.95v-22.45c0-2.97-2.1-6.61-4.67-8.1l.01.02Z"/><path fill="#000" d="M30.627 52.617c-.22 0-.43-.09-.59-.26l-7.74-8.61s0 .05.01.07l.51 1.44c.13.36-.02.76-.35.95l-7.53 4.39-.37-.09a.81.81 0 0 1-.48-.44l-3.22-7.65-2.04-10.51c-.95-1.61-1.48-3.38-1.48-4.96v-2.65c-1.22-6.25-1.97-10.06-2.06-10.46-.18-.74-1.9-4.52-3.44-7.72a.783.783 0 0 1 .31-1.01l7-4.31c1.14-.57 2.5-.43 3.89.37l21.44 12.38c2.77 1.6 5.03 5.51 5.03 8.71v22.45c0 1.64-.58 2.9-1.62 3.56-.04.03-.09.05-.13.08l-6.73 4.16c-.13.08-.27.12-.42.12l.01-.01Zm-10.13-13.01 10.25 11.4 6.41-3.96c.62-.39.96-1.22.96-2.35v-22.45c0-2.7-1.98-6.13-4.32-7.48l-21.44-12.38c-.96-.55-1.84-.68-2.48-.36l-6.47 3.99c.85 1.79 3.04 6.44 3.29 7.49.14.58 1.36 6.87 2.08 10.57v.15l.01 2.72c0 1.33.49 2.91 1.34 4.34l.08.13.03.18 2.03 10.48 2.87 6.77 6.18-3.6-.39-1.13c-.16-.84-.27-1.69-.31-2.48l-.11-2.02-.01-.01Z"/><path fill="#fff" d="m34.127 14.157-20.09-11.56-10.11 6.34 21.51 11.32 4.52.72 6.96-4.13c-.78-1.12-1.74-2.09-2.79-2.69Z"/><path fill="#000" d="m30.097 21.717-4.99-.83-22.61-11.9 11.52-7.23 20.47 11.77c1.1.63 2.14 1.64 3.02 2.9l.44.63-7.83 4.66h-.02Zm-4.44-2.15 4.15.66 6.05-3.6c-.65-.8-1.36-1.44-2.1-1.86l-19.72-11.34-8.69 5.46 20.31 10.69v-.01Zm6.04 5.1s-8.68 2.049-9.24 2.259c-.47.17-8.97 7.031-11.87 10.241.57 2.97.97 5.02.99 5.1v.01l3.18 7.5s.07.06.11.04l7.26-4.23s.05-.06.03-.09l-.54-1.53v-.01c-.14-.73-.25-1.55-.3-2.37l9.25 10.29s.07.03.1.01l6.76-4.18s.07-.041.1-.061c.8-.5 1.29-1.519 1.29-2.949v-22.45c0-.55-.07-1.12-.21-1.7l-6.92 4.11.01.01Z"/><path fill="#F15B25" d="m37.888 23.766-5.143 3.11.492.813 5.142-3.111-.491-.812Zm-.167 20.132-5.142 3.11.491.813 5.143-3.111-.492-.812ZM27.297 18.437l-21.48-12.4c-2.56-1.48-4.64-.28-4.64 2.68v22.49c0 2.96 2.08 6.55 4.64 8.03l2.45 1.41c.44.25.82.83.91 1.38.26 1.65 1.23 5.22 4.71 7.81.68.5 1.22.07 1.02-.8-.24-1.06-.49-2.45-.5-3.78 0-.59.42-.82.93-.53l11.96 6.91c2.56 1.48 4.64.28 4.64-2.68v-22.49c0-2.96-2.08-6.55-4.64-8.03Z"/><path fill="#000" d="M29.367 52.987c-.76 0-1.59-.25-2.43-.73l-11.81-6.82c.03 1.29.27 2.57.47 3.44.17.74-.02 1.37-.52 1.69-.47.3-1.07.24-1.62-.16-3.62-2.69-4.68-6.33-4.99-8.27-.05-.34-.31-.73-.56-.87l-2.45-1.41c-2.8-1.62-4.99-5.41-4.99-8.65V8.717c0-1.69.61-2.98 1.71-3.62 1.11-.64 2.52-.52 3.99.32l21.48 12.4c2.8 1.62 4.99 5.41 4.99 8.65v22.49c0 1.7-.61 2.98-1.71 3.62-.47.27-1 .41-1.56.41Zm-14.46-9.1c.25 0 .52.08.78.22l11.96 6.91c1.01.58 1.92.7 2.57.32.65-.37 1-1.22 1-2.38v-22.49c0-2.73-1.92-6.05-4.28-7.41l-21.48-12.4c-1.01-.58-1.92-.7-2.56-.32-.65.37-1 1.22-1 2.38v22.49c0 2.73 1.92 6.05 4.28 7.41l2.45 1.41c.63.36 1.13 1.12 1.25 1.88.27 1.7 1.2 4.89 4.33 7.27-.23-1-.5-2.49-.51-3.92 0-.54.22-.98.62-1.21.18-.11.39-.16.6-.16h-.01Z"/><path fill="#F15B25" d="M23.492 40.84c3.831-2.212 3.832-9.383.002-16.017S13.453 14.605 9.622 16.817c-3.831 2.211-3.832 9.382-.002 16.016 3.83 6.634 10.041 10.219 13.872 8.007Z"/><path fill="#fff" d="M20.937 41.976c-1.43 0-3-.469-4.62-1.409-5.54-3.2-10.05-11.011-10.05-17.401 0-3.2 1.1-5.6 3.11-6.76 2.01-1.16 4.64-.909 7.41.691 5.54 3.2 10.05 10.999 10.05 17.399 0 3.2-1.1 5.6-3.11 6.76-.83.48-1.78.72-2.79.72Zm-8.76-25.34c-.85 0-1.63.2-2.32.59-1.7.98-2.64 3.09-2.64 5.94 0 6.09 4.29 13.53 9.57 16.58 2.47 1.42 4.76 1.67 6.46.69 1.7-.98 2.64-3.09 2.64-5.94 0-6.09-4.29-13.53-9.57-16.58-1.47-.85-2.88-1.28-4.14-1.28Z"/><path fill="#F15B25" d="m13.627 28.396-.18-.1c-.67-.39-1.21-1.42-1.21-2.32v-3.36c0-.89.54-1.3 1.21-.92l.18.1c.67.39 1.21 1.42 1.21 2.32v3.36c0 .89-.54 1.3-1.21.92Z"/><path fill="#fff" d="M14.107 29.017c-.23 0-.48-.07-.72-.21l-.18-.1c-.81-.47-1.45-1.67-1.45-2.73v-3.36c0-.64.24-1.15.66-1.39.37-.21.83-.19 1.27.06l.18.1c.81.47 1.45 1.67 1.45 2.73v3.36c0 .64-.24 1.15-.66 1.39-.17.1-.35.14-.55.14v.01Zm-1.15-6.99s-.06 0-.08.02c-.09.05-.18.25-.18.57v3.36c0 .72.46 1.61.98 1.91l.18.1c.13.08.25.1.32.06.09-.05.18-.25.18-.57v-3.36c0-.71-.46-1.61-.97-1.91l-.18-.1a.556.556 0 0 0-.24-.08h-.01Z"/><path fill="#F15B25" d="m19.657 31.886-.18-.1c-.67-.39-1.21-1.42-1.21-2.32v-3.36c0-.89.54-1.3 1.21-.92l.18.1c.67.39 1.21 1.42 1.21 2.32v3.36c0 .89-.54 1.3-1.21.92Z"/><path fill="#fff" d="M20.147 32.506c-.23 0-.48-.069-.72-.209l-.18-.101c-.81-.47-1.45-1.67-1.45-2.73v-3.36c0-.64.24-1.15.66-1.39.37-.21.83-.19 1.27.06l.18.11c.81.47 1.45 1.67 1.45 2.73v3.36c0 .64-.24 1.15-.66 1.39-.17.1-.35.14-.55.14Zm-1.14-6.989s-.05-.001-.08.019c-.09.05-.18.25-.18.57v3.36c0 .72.46 1.611.98 1.911l.18.099c.06.04.23.11.32.06s.18-.25.18-.57v-3.36c0-.72-.46-1.61-.98-1.91l-.18-.099s-.15-.08-.24-.08Zm1.46 11.959c-.8-1.33-1.84-2.399-2.92-3.029l-2.46-1.42c-1.01-.58-1.95-.71-2.64-.36l-.43-.85c.99-.5 2.25-.36 3.54.39l2.46 1.42c1.22.7 2.38 1.9 3.26 3.36l-.81.489Z"/><path fill="#ECECEC" d="m13.517 53.347-1.18.68c-.12.07-.33.06-.47-.02l-1.11-.64c-.14-.08-.15-.2-.03-.27l1.18-.68c.12-.07.33-.06.47.02l1.11.64c.14.08.15.2.03.27Zm2.75 1.58-1.18.68c-.12.07-.33.06-.47-.02l-1.11-.64c-.14-.08-.15-.2-.03-.27l1.18-.68c.12-.07.33-.06.47.02l1.11.64c.14.08.15.2.03.27Zm-2.9 1.68-1.18.68c-.12.07-.33.06-.47-.02l-1.11-.64c-.14-.08-.15-.2-.03-.27l1.18-.68c.12-.07.33-.06.47.02l1.11.64c.14.08.15.2.03.27Zm5.8-3.35-1.18.68c-.12.07-.33.06-.47-.02l-1.11-.64c-.14-.08-.15-.2-.03-.27l1.18-.68c.12-.07.33-.06.47.02l1.11.64c.14.08.15.2.03.27Zm.01 3.35-1.18.68c-.12.07-.33.06-.47-.02l-1.11-.64c-.14-.08-.15-.2-.03-.27l1.18-.68c.12-.07.33-.06.47.02l1.11.64c.14.08.15.2.03.27Zm-2.9 1.679-1.18.681c-.12.07-.33.059-.47-.021l-1.11-.64c-.14-.08-.15-.2-.03-.27l1.18-.679c.12-.07.33-.06.47.02l1.11.64c.14.08.15.199.03.269Zm5.79-3.349-1.18.68c-.12.07-.33.06-.47-.02l-1.11-.64c-.14-.08-.15-.2-.03-.27l1.18-.68c.12-.07.33-.06.47.02l1.11.64c.14.08.15.2.03.27Zm-.14 3.26-1.18.68c-.12.07-.33.06-.47-.02l-1.11-.64c-.14-.08-.15-.2-.03-.27l1.18-.68c.12-.07.33-.06.47.02l1.11.64c.14.08.15.2.03.27Zm-2.9 1.67-1.18.68c-.12.07-.33.06-.47-.02l-1.11-.64c-.14-.08-.16-.2-.03-.27l1.18-.68c.12-.07.33-.06.47.02l1.11.64c.14.08.15.2.03.27Zm5.79-3.34-1.18.68c-.12.07-.33.06-.47-.02l-1.11-.64c-.14-.08-.15-.2-.03-.27l1.18-.68c.12-.07.33-.06.47.02l1.11.64c.14.08.15.2.03.27Zm-.14 3.259-1.18.681c-.12.07-.33.059-.47-.021l-1.11-.64c-.14-.08-.15-.2-.03-.27l1.18-.679c.12-.07.33-.06.47.02l1.11.64c.14.08.15.199.03.269Zm-2.9 1.671-1.18.68c-.12.07-.33.06-.47-.02l-1.11-.64c-.14-.08-.15-.2-.03-.27l1.18-.68c.12-.07.33-.06.47.02l1.11.64c.14.08.15.2.03.27Zm5.79-3.34-1.18.68c-.12.07-.33.06-.47-.02l-1.11-.64c-.14-.08-.15-.2-.03-.27l1.18-.68c.12-.07.33-.06.47.02l1.11.64c.14.08.15.2.03.27Zm.01 3.35-1.18.68c-.12.07-.33.06-.47-.02l-1.11-.64c-.14-.08-.16-.2-.03-.27l1.18-.68c.12-.07.33-.06.47.02l1.11.64c.14.08.16.2.03.27Zm-2.89 1.67-1.18.68c-.12.07-.33.06-.47-.02l-1.11-.64c-.14-.08-.15-.2-.03-.27l1.18-.68c.12-.07.33-.06.47.02l1.11.64c.14.08.15.2.03.27Zm5.79-3.351-1.18.681c-.12.07-.33.059-.47-.021l-1.11-.64c-.14-.08-.15-.2-.03-.27l1.18-.679c.12-.07.33-.06.47.02l1.11.64c.14.08.15.199.03.269Zm-.15 3.261-1.18.68c-.12.07-.33.06-.47-.02l-1.11-.64c-.14-.08-.15-.2-.03-.27l1.18-.68c.12-.07.33-.06.47.02l1.11.64c.14.08.15.2.03.27Zm-2.89 1.68-1.18.68c-.12.07-.33.06-.47-.02l-1.11-.64c-.14-.08-.15-.2-.03-.27l1.18-.68c.12-.07.33-.06.47.02l1.11.64c.14.08.15.2.03.27Zm5.79-3.35-1.18.68c-.12.07-.33.06-.47-.02l-1.11-.64c-.14-.08-.15-.2-.03-.27l1.18-.68c.12-.07.33-.06.47.02l1.11.64c.14.08.15.2.03.27Zm-.15 3.26-1.18.68c-.12.07-.33.06-.47-.02l-1.11-.64c-.14-.08-.15-.2-.03-.27l1.18-.68c.12-.07.33-.06.47.02l1.11.64c.14.08.15.2.03.27Z"/></g></svg>